<svg width="80" height="80" viewBox="0 0 80 80" fill="none" xmlns="http://www.w3.org/2000/svg">
<path d="M40 0.5C61.8152 0.5 79.5 18.1848 79.5 40C79.5 61.8152 61.8152 79.5 40 79.5C18.1848 79.5 0.5 61.8152 0.5 40C0.5 18.1848 18.1848 0.5 40 0.5Z" fill="url(#paint0_linear_1058_582)" stroke="url(#paint1_linear_1058_582)"/>
<path d="M4 40C4 20.1177 20.1177 4 40 4V4C59.8823 4 76 20.1177 76 40V40C76 59.8823 59.8823 76 40 76V76C20.1177 76 4 59.8823 4 40V40Z" fill="url(#paint2_linear_1058_582)"/>
<g filter="url(#filter0_d_1058_582)">
<path fill-rule="evenodd" clip-rule="evenodd" d="M44.786 48.9984C45.871 48.5753 46.6305 47.9852 47.0645 47.2281C47.8449 45.841 48.8097 44.0262 49.9587 41.7837L51.3469 41.8985C52.4814 42.1777 53.1005 42.8255 53.6176 43.477C54.0754 44.1498 54.2596 45.0009 54.1701 46.0304C54.0904 47.0412 53.7935 48.0329 53.2793 49.0054C52.765 49.978 52.1272 50.7774 51.3653 51.4036C50.6035 52.0298 49.8108 52.3525 48.987 52.3717C42.3232 52.4383 31.8901 52.3581 25.6209 52.1309C24.8741 52.0949 24.3418 51.9929 24.0238 51.8249C23.0139 51.2911 22.7511 50.5658 23.2356 49.6494L27.4657 41.512C27.8315 40.8201 28.2299 40.3606 28.6609 40.1338C29.1018 39.8883 29.7611 39.8181 30.6388 39.9231L31.4566 40.0163C32.81 42.425 34.203 44.8512 35.6358 47.2949C36.0939 48.052 36.8414 48.631 37.8782 49.0318C38.9149 49.4326 40.0602 49.633 41.314 49.633C42.5678 49.633 43.7252 49.4215 44.786 48.9984Z" fill="url(#paint3_linear_1058_582)"/>
<path d="M46.3434 45.8615C45.9626 46.5808 45.2962 47.1414 44.3442 47.5433C43.4133 47.9453 42.3979 48.1463 41.2978 48.1463C40.1977 48.1463 39.1928 47.9559 38.2831 47.5751C37.3734 47.1943 36.7176 46.6442 36.3156 45.9249C33.1423 40.0648 30.1911 34.3105 27.462 28.662C27.1447 27.985 26.986 27.4667 26.986 27.1071C26.986 25.9647 27.5043 25.3935 28.541 25.3935L37.7119 25.33C38.4947 25.33 39.087 25.4675 39.489 25.7425C39.9121 26.0176 40.2823 26.5676 40.5996 27.3927L43.6778 35.2625C43.8047 35.601 44.0374 35.7703 44.3759 35.7703C44.7144 35.7703 44.9683 35.601 45.1375 35.2625L49.2946 26.2503C49.5696 25.6791 49.8658 25.3617 50.1831 25.2983C50.31 25.2771 50.5323 25.2665 50.8496 25.2665L54.499 25.33C54.9007 25.33 55.1863 25.5204 55.3558 25.9012C55.4192 26.0493 55.451 26.2291 55.451 26.4407C55.451 26.6522 55.2076 27.234 54.7211 28.186C54.2556 29.138 53.018 31.7824 51.0083 36.1193C49.0195 40.4562 47.4646 43.7036 46.3434 45.8615Z" fill="url(#paint4_linear_1058_582)"/>
</g>
<defs>
<filter id="filter0_d_1058_582" x="9" y="23.2665" width="60.4512" height="55.1279" filterUnits="userSpaceOnUse" color-interpolation-filters="sRGB">
<feFlood flood-opacity="0" result="BackgroundImageFix"/>
<feColorMatrix in="SourceAlpha" type="matrix" values="0 0 0 0 0 0 0 0 0 0 0 0 0 0 0 0 0 0 127 0" result="hardAlpha"/>
<feOffset dy="12"/>
<feGaussianBlur stdDeviation="7"/>
<feComposite in2="hardAlpha" operator="out"/>
<feColorMatrix type="matrix" values="0 0 0 0 0 0 0 0 0 0 0 0 0 0 0 0 0 0 0.08 0"/>
<feBlend mode="normal" in2="BackgroundImageFix" result="effect1_dropShadow_1058_582"/>
<feBlend mode="normal" in="SourceGraphic" in2="effect1_dropShadow_1058_582" result="shape"/>
</filter>
<linearGradient id="paint0_linear_1058_582" x1="40" y1="0" x2="40" y2="80" gradientUnits="userSpaceOnUse">
<stop stop-color="#F4F4F4" stop-opacity="0"/>
<stop offset="0.5" stop-color="#565656" stop-opacity="0.6"/>
<stop offset="1" stop-color="#F4F4F4"/>
</linearGradient>
<linearGradient id="paint1_linear_1058_582" x1="40" y1="-22" x2="44.2333" y2="99.8529" gradientUnits="userSpaceOnUse">
<stop stop-color="#C9C9C9" stop-opacity="0.1"/>
<stop offset="0.5" stop-color="#686A69" stop-opacity="0.5"/>
<stop offset="1" stop-color="#F4F4F4"/>
</linearGradient>
<linearGradient id="paint2_linear_1058_582" x1="38.56" y1="-1.58562" x2="40" y2="94.8944" gradientUnits="userSpaceOnUse">
<stop stop-color="#D5D8D8" stop-opacity="0.4"/>
<stop offset="1" stop-color="#909090"/>
</linearGradient>
<linearGradient id="paint3_linear_1058_582" x1="39.5" y1="14.9999" x2="41.0191" y2="62.9518" gradientUnits="userSpaceOnUse">
<stop stop-color="#434343" stop-opacity="0.5"/>
<stop offset="1" stop-color="#141414"/>
</linearGradient>
<linearGradient id="paint4_linear_1058_582" x1="39.5" y1="14.9999" x2="41.0191" y2="62.9518" gradientUnits="userSpaceOnUse">
<stop stop-color="#434343" stop-opacity="0.5"/>
<stop offset="1" stop-color="#141414"/>
</linearGradient>
</defs>
</svg>
