<svg width="135" height="134" viewBox="0 0 135 134" fill="none" xmlns="http://www.w3.org/2000/svg">
<rect x="0.799805" width="134" height="134" rx="30" fill="#1769FF"/>
<rect x="0.799805" width="134" height="134" rx="30" fill="black" fill-opacity="0.04"/>
<g clip-path="url(#clip0_1105_585)">
<path d="M52.7206 43.5C54.9378 43.5 56.9593 43.6973 58.7853 44.0926C60.6113 44.4876 62.1763 45.1355 63.4804 46.0341C64.7845 46.9339 65.7954 48.1299 66.5128 49.6223C67.2302 51.1147 67.5888 52.9575 67.5888 55.1516C67.5888 57.5217 67.0562 59.4965 65.9912 61.0759C64.9255 62.6557 63.3501 63.9501 61.2635 64.9597C64.1326 65.7937 66.2737 67.2535 67.6869 69.337C69.0987 71.422 69.8069 73.9348 69.8069 76.8744C69.8069 79.2441 69.3504 81.2962 68.4369 83.0299C67.5244 84.764 66.2955 86.1791 64.753 87.2746C63.2095 88.3724 61.4486 89.1836 59.4708 89.7112C57.4807 90.2389 55.4312 90.5041 53.3735 90.5004H30.8096V43.5H52.7206ZM51.4165 62.5246C53.2425 62.5246 54.742 62.0859 55.9162 61.2078C57.0899 60.3305 57.6767 58.9039 57.6767 56.9291C57.6767 55.8324 57.4812 54.9323 57.0899 54.2302C56.6987 53.5285 56.1771 52.9788 55.5249 52.5846C54.8727 52.1893 54.1227 51.9162 53.2751 51.7615C52.4032 51.6061 51.5193 51.529 50.634 51.5313H41.0479V62.5249L51.4165 62.5246ZM52.0032 82.4694C53.0026 82.4694 53.9595 82.3704 54.8723 82.1731C55.7851 81.9755 56.5891 81.6463 57.2854 81.1852C57.9802 80.7252 58.5347 80.0994 58.9482 79.3091C59.3609 78.5196 59.5674 77.5103 59.5674 76.281C59.5674 73.8683 58.893 72.1458 57.546 71.1141C56.1979 70.0828 54.4155 69.5668 52.1986 69.5668H41.0479V82.4687L52.0032 82.4694ZM82.6911 81.4823C84.0821 82.8438 86.0821 83.5228 88.6907 83.5228C90.5592 83.5228 92.1683 83.052 93.5157 82.1077C94.8635 81.1654 95.6897 80.1662 95.9939 79.1125H104.145C102.842 83.1936 100.841 86.1126 98.1461 87.8672C95.4498 89.623 92.1891 90.5004 88.3638 90.5004C85.712 90.5004 83.3204 90.0725 81.1904 89.2165C79.0598 88.3612 77.2553 87.1431 75.7783 85.5633C74.2999 83.9839 73.1587 82.098 72.3543 79.9028C71.5496 77.7091 71.1483 75.2949 71.1483 72.6618C71.1483 70.1172 71.5603 67.7475 72.3873 65.553C73.2123 63.3593 74.3858 61.4611 75.909 59.8585C77.4296 58.2574 79.2452 56.9956 81.3541 56.0738C83.4621 55.152 85.799 54.6917 88.3642 54.6917C91.2337 54.6917 93.733 55.251 95.864 56.3701C97.9936 57.4888 99.7437 58.9935 101.114 60.879C102.483 62.7663 103.471 64.9171 104.081 67.3298C104.69 69.7439 104.906 72.2668 104.733 74.9H80.4094C80.5393 77.9273 81.2989 80.1225 82.6911 81.4823ZM93.1574 63.5775C92.0491 62.3493 90.3638 61.7343 88.104 61.7343C86.6255 61.7343 85.3977 61.9873 84.4197 62.4913C83.4414 62.9969 82.6585 63.6209 82.0714 64.3674C81.4851 65.114 81.0713 65.9043 80.8329 66.7371C80.5934 67.5711 80.452 68.3173 80.4087 68.9753H95.4724C95.0378 66.6052 94.2664 64.8065 93.1574 63.5775ZM78.8273 45.8865H97.6486V51.1543H78.8273V45.8865Z" fill="white"/>
</g>
<defs>
<clipPath id="clip0_1105_585">
<rect width="74" height="47" fill="white" transform="translate(30.7998 43.5)"/>
</clipPath>
</defs>
</svg>
