<svg width="135" height="134" viewBox="0 0 135 134" fill="none" xmlns="http://www.w3.org/2000/svg">
<rect x="0.400391" width="134" height="134" rx="30" fill="#DD3E7B"/>
<g clip-path="url(#clip0_1105_564)">
<path d="M30.4004 67C30.4004 60.2906 32.0531 54.0994 35.3584 48.426C38.6637 42.7526 43.1531 38.2634 48.8264 34.958C54.4997 31.6526 60.6911 30 67.4004 30C74.1097 30 80.3011 31.6526 85.9744 34.958C91.6478 38.2634 96.1371 42.7526 99.4424 48.426C102.748 54.0994 104.4 60.2906 104.4 67C104.4 73.7094 102.748 79.9006 99.4424 85.574C96.1371 91.2474 91.6478 95.7366 85.9744 99.042C80.3011 102.347 74.1097 104 67.4004 104C60.6911 104 54.4997 102.347 48.8264 99.042C43.1531 95.7366 38.6637 91.2474 35.3584 85.574C32.0531 79.9006 30.4004 73.7094 30.4004 67ZM36.5424 67C36.5424 74.696 39.1324 81.4794 44.3124 87.35C46.6804 82.7126 50.4297 78.2974 55.5604 74.104C60.6911 69.9106 65.6984 67.2714 70.5824 66.186C69.8424 64.4594 69.1271 62.9054 68.4364 61.524C59.9511 64.2374 50.7751 65.594 40.9084 65.594C38.9844 65.594 37.5537 65.5694 36.6164 65.52C36.6164 65.7174 36.6041 65.964 36.5794 66.26C36.5547 66.556 36.5424 66.8026 36.5424 67ZM37.5044 59.378C38.5897 59.4766 40.1931 59.526 42.3144 59.526C50.5531 59.526 58.3724 58.416 65.7724 56.196C62.0231 49.536 57.9037 43.986 53.4144 39.546C49.5171 41.5194 46.1747 44.2574 43.3874 47.76C40.6001 51.2626 38.6391 55.1354 37.5044 59.378ZM48.5304 91.346C54.1051 95.6874 60.3951 97.858 67.4004 97.858C71.0511 97.858 74.6771 97.1674 78.2784 95.786C77.2917 87.35 75.3677 79.1854 72.5064 71.292C67.9678 72.2786 63.3921 74.77 58.7794 78.766C54.1667 82.762 50.7504 86.9554 48.5304 91.346ZM59.8524 37.178C64.1937 41.6674 68.2144 47.2666 71.9144 53.976C78.6237 51.164 83.6804 47.5874 87.0844 43.246C81.3617 38.51 74.8004 36.142 67.4004 36.142C64.8844 36.142 62.3684 36.4874 59.8524 37.178ZM74.5784 59.23C75.3184 60.8086 76.1571 62.8066 77.0944 65.224C80.7451 64.8786 84.7164 64.706 89.0084 64.706C92.0671 64.706 95.1011 64.78 98.1104 64.928C97.7158 58.2186 95.2984 52.2494 90.8584 47.02C87.6517 51.8054 82.2251 55.8754 74.5784 59.23ZM78.9444 70.404C81.4604 77.7054 83.1624 85.204 84.0504 92.9C87.9478 90.384 91.1297 87.1526 93.5964 83.206C96.0631 79.2594 97.5431 74.992 98.0364 70.404C94.4351 70.1574 91.1544 70.034 88.1944 70.034C85.4811 70.034 82.3978 70.1574 78.9444 70.404Z" fill="white"/>
</g>
<defs>
<clipPath id="clip0_1105_564">
<rect width="74" height="74" fill="white" transform="translate(30.4004 30)"/>
</clipPath>
</defs>
</svg>
