<svg width="135" height="134" viewBox="0 0 135 134" fill="none" xmlns="http://www.w3.org/2000/svg">
<rect x="0.200195" width="134" height="134" rx="30" fill="white"/>
<rect x="0.200195" width="134" height="134" rx="30" fill="black" fill-opacity="0.06"/>
<g clip-path="url(#clip0_1105_591)">
<path d="M35.2458 95.8637H47.0184V67.2729L30.2002 54.6592V90.8184C30.2002 93.606 32.4581 95.864 35.2458 95.864V95.8637Z" fill="#4285F4"/>
<path d="M87.3818 95.8637H99.1546C101.942 95.8637 104.2 93.6059 104.2 90.8183V54.6592L87.3818 67.2729V95.8637Z" fill="#34A853"/>
<path d="M87.3818 45.4096V67.2733L104.2 54.6596V47.9324C104.2 41.697 97.0819 38.1358 92.091 41.8778L87.3818 45.4096Z" fill="#FBBC04"/>
<path fill-rule="evenodd" clip-rule="evenodd" d="M47.0186 67.2733V45.4097L67.2003 60.5461L87.3821 45.4097V67.2733L67.2003 82.4097L47.0186 67.2733Z" fill="#EA4335"/>
<path d="M30.2002 47.9324V54.6596L47.0184 67.2733V45.4096L42.3093 41.8778C37.3184 38.1358 30.2002 41.697 30.2002 47.9321V47.9324Z" fill="#C5221F"/>
</g>
<defs>
<clipPath id="clip0_1105_591">
<rect width="74" height="74" fill="white" transform="translate(30.2002 30)"/>
</clipPath>
</defs>
</svg>
