<svg width="134" height="134" viewBox="0 0 134 134" fill="none" xmlns="http://www.w3.org/2000/svg">
<rect width="134" height="134" rx="30" fill="url(#paint0_radial_1105_588)"/>
<rect width="134" height="134" rx="30" fill="url(#paint1_radial_1105_588)"/>
<rect width="134" height="134" rx="30" fill="black" fill-opacity="0.02"/>
<path d="M54.6696 67C54.6696 60.1887 60.19 54.6657 67.0015 54.6657C73.813 54.6657 79.3363 60.1887 79.3363 67C79.3363 73.8113 73.813 79.3343 67.0015 79.3343C60.19 79.3343 54.6696 73.8113 54.6696 67ZM48.0017 67C48.0017 77.4932 56.5079 85.9991 67.0015 85.9991C77.4951 85.9991 86.0013 77.4932 86.0013 67C86.0013 56.5068 77.4951 48.0009 67.0015 48.0009C56.5079 48.0009 48.0017 56.5068 48.0017 67ZM82.3133 47.2476C82.3129 48.1258 82.573 48.9843 83.0606 49.7147C83.5482 50.445 84.2414 51.0144 85.0526 51.3507C85.8638 51.6871 86.7566 51.7754 87.618 51.6044C88.4793 51.4335 89.2707 51.0109 89.8919 50.3902C90.5131 49.7695 90.9363 48.9785 91.108 48.1173C91.2796 47.2561 91.1921 46.3634 90.8563 45.5519C90.5206 44.7405 89.9518 44.0468 89.2218 43.5587C88.4918 43.0705 87.6334 42.8098 86.7552 42.8094H86.7535C85.5763 42.8099 84.4475 43.2777 83.615 44.1098C82.7825 44.942 82.3143 46.0705 82.3133 47.2476ZM52.0529 97.1171C48.4454 96.9528 46.4846 96.352 45.1816 95.8443C43.454 95.1718 42.2214 94.3708 40.9255 93.0767C39.6296 91.7826 38.8274 90.5512 38.1578 88.8238C37.6498 87.5214 37.0489 85.5601 36.8849 81.9527C36.7056 78.0526 36.6697 76.8811 36.6697 67.0003C36.6697 57.1195 36.7085 55.9512 36.8849 52.0479C37.0492 48.4405 37.6546 46.4831 38.1578 45.1768C38.8303 43.4494 39.6313 42.2168 40.9255 40.9209C42.2197 39.625 43.4511 38.8229 45.1816 38.1533C46.484 37.6454 48.4454 37.0445 52.0529 36.8805C55.9531 36.7011 57.1248 36.6653 67.0015 36.6653C76.8782 36.6653 78.051 36.7041 81.9545 36.8805C85.562 37.0448 87.5195 37.6501 88.8258 38.1533C90.5534 38.8229 91.786 39.6268 93.0819 40.9209C94.3778 42.215 95.1771 43.4494 95.8496 45.1768C96.3576 46.4792 96.9585 48.4405 97.1225 52.0479C97.3018 55.9512 97.3377 57.1195 97.3377 67.0003C97.3377 76.8811 97.3018 78.0494 97.1225 81.9527C96.9582 85.5601 96.3543 87.5208 95.8496 88.8238C95.1771 90.5512 94.3761 91.7838 93.0819 93.0767C91.7877 94.3696 90.5534 95.1718 88.8258 95.8443C87.5234 96.3522 85.562 96.9531 81.9545 97.1171C78.0543 97.2965 76.8827 97.3323 67.0015 97.3323C57.1203 97.3323 55.952 97.2965 52.0529 97.1171ZM51.7465 30.2241C47.8075 30.4034 45.1158 31.028 42.7652 31.9426C40.3308 32.8872 38.27 34.1544 36.2106 36.2104C34.1513 38.2664 32.8873 40.3304 31.9427 42.7647C31.028 45.1167 30.4035 47.8068 30.2241 51.7456C30.0417 55.6907 30 56.952 30 67C30 77.048 30.0417 78.3093 30.2241 82.2544C30.4035 86.1935 31.028 88.8833 31.9427 91.2353C32.8873 93.6681 34.1516 95.7345 36.2106 97.7896C38.2697 99.8447 40.3308 101.11 42.7652 102.057C45.1203 102.972 47.8075 103.597 51.7465 103.776C55.6938 103.955 56.9531 104 67.0015 104C77.0499 104 78.3112 103.958 82.2565 103.776C86.1958 103.597 88.8856 102.972 91.2377 102.057C93.6707 101.11 95.733 99.8456 97.7923 97.7896C99.8517 95.7336 101.113 93.6681 102.06 91.2353C102.975 88.8833 103.602 86.1932 103.779 82.2544C103.958 78.3063 104 77.048 104 67C104 56.952 103.958 55.6907 103.779 51.7456C103.599 47.8065 102.975 45.1152 102.06 42.7647C101.113 40.3319 99.8484 38.2696 97.7923 36.2104C95.7362 34.1511 93.6707 32.8872 91.2407 31.9426C88.8856 31.028 86.1955 30.4005 82.2594 30.2241C78.3142 30.0447 77.0529 30 67.0044 30C56.956 30 55.6938 30.0417 51.7465 30.2241Z" fill="white"/>
<defs>
<radialGradient id="paint0_radial_1105_588" cx="0" cy="0" r="1" gradientUnits="userSpaceOnUse" gradientTransform="translate(35.5939 144.321) rotate(-90) scale(132.804 123.518)">
<stop stop-color="#FFDD55"/>
<stop offset="0.1" stop-color="#FFDD55"/>
<stop offset="0.5" stop-color="#FF543E"/>
<stop offset="1" stop-color="#C837AB"/>
</radialGradient>
<radialGradient id="paint1_radial_1105_588" cx="0" cy="0" r="1" gradientUnits="userSpaceOnUse" gradientTransform="translate(-22.4457 9.65313) rotate(78.6806) scale(59.3639 244.7)">
<stop stop-color="#3771C8"/>
<stop offset="0.128" stop-color="#3771C8"/>
<stop offset="1" stop-color="#6600FF" stop-opacity="0"/>
</radialGradient>
</defs>
</svg>
