<svg width="259" height="134" viewBox="0 0 259 134" fill="none" xmlns="http://www.w3.org/2000/svg">
<rect width="259" height="134" rx="30" fill="#0A66C2"/>
<g clip-path="url(#clip0_1105_563)">
<path d="M70.9999 30C50.5653 30 34 46.5653 34 66.9999C34 87.4345 50.5653 104 70.9999 104C91.4346 104 108 87.4345 108 66.9999C108 46.5653 91.4343 30 70.9999 30ZM61.1283 84.8877H53.0046V58.6423H61.1283V84.8877ZM57.0277 55.2053C54.3746 55.2053 52.2238 53.0369 52.2238 50.3625C52.2238 47.6879 54.3749 45.5197 57.0277 45.5197C59.6805 45.5197 61.8313 47.6879 61.8313 50.3625C61.8315 53.0371 59.6807 55.2053 57.0277 55.2053ZM91.5719 84.8877H83.4875V71.111C83.4875 67.3325 82.0523 65.2233 79.0645 65.2233C75.8128 65.2233 74.114 67.42 74.114 71.111V84.8877H66.3225V58.6423H74.114V62.1771C74.114 62.1771 76.4577 57.8417 82.0229 57.8417C87.5881 57.8417 91.572 61.2398 91.572 68.2695L91.5719 84.8877Z" fill="white"/>
</g>
<path d="M126.156 76V59.0898H128.266V74.1016H136.422V76H126.156ZM140.617 60.9297C139.844 60.9297 139.211 60.2969 139.211 59.5234C139.211 58.75 139.844 58.1172 140.617 58.1172C141.391 58.1172 142.023 58.75 142.023 59.5234C142.023 60.2969 141.391 60.9297 140.617 60.9297ZM139.586 76V63.3672H141.625V76H139.586ZM145.469 76V63.3672H147.508V65.2656H147.695C148.328 63.9297 149.512 63.1445 151.375 63.1445C154.211 63.1445 155.793 64.8203 155.793 67.8203V76H153.754V68.3125C153.754 66.0391 152.816 64.9492 150.801 64.9492C148.785 64.9492 147.508 66.3086 147.508 68.5234V76H145.469ZM159.602 76V58.3516H161.641V68.8867H161.828L167.289 63.3672H169.762L164.254 68.6758L170.125 76H167.559L162.824 70.0586L161.641 71.207V76H159.602ZM177.086 76.2227C173.477 76.2227 171.297 73.6914 171.297 69.7305V69.7188C171.297 65.8164 173.523 63.1445 176.957 63.1445C180.391 63.1445 182.477 65.6992 182.477 69.4727V70.2695H173.383C173.441 72.8828 174.883 74.4062 177.133 74.4062C178.844 74.4062 179.898 73.5977 180.238 72.8359L180.285 72.7305H182.324L182.301 72.8242C181.867 74.5352 180.062 76.2227 177.086 76.2227ZM176.945 64.9609C175.07 64.9609 173.641 66.2383 173.418 68.6406H180.402C180.191 66.1445 178.809 64.9609 176.945 64.9609ZM190.305 76.2227C187.105 76.2227 185.008 73.6328 185.008 69.6953V69.6719C185.008 65.7109 187.094 63.1445 190.305 63.1445C192.039 63.1445 193.551 64.0117 194.242 65.3594H194.43V58.3516H196.469V76H194.43V73.9844H194.242C193.469 75.3906 192.062 76.2227 190.305 76.2227ZM190.773 74.418C193.07 74.418 194.477 72.6133 194.477 69.6953V69.6719C194.477 66.7539 193.07 64.9492 190.773 64.9492C188.465 64.9492 187.094 66.7305 187.094 69.6719V69.6953C187.094 72.6367 188.465 74.418 190.773 74.418ZM201.461 60.9297C200.688 60.9297 200.055 60.2969 200.055 59.5234C200.055 58.75 200.688 58.1172 201.461 58.1172C202.234 58.1172 202.867 58.75 202.867 59.5234C202.867 60.2969 202.234 60.9297 201.461 60.9297ZM200.43 76V63.3672H202.469V76H200.43ZM206.312 76V63.3672H208.352V65.2656H208.539C209.172 63.9297 210.355 63.1445 212.219 63.1445C215.055 63.1445 216.637 64.8203 216.637 67.8203V76H214.598V68.3125C214.598 66.0391 213.66 64.9492 211.645 64.9492C209.629 64.9492 208.352 66.3086 208.352 68.5234V76H206.312Z" fill="white"/>
<defs>
<clipPath id="clip0_1105_563">
<rect width="74" height="74" fill="white" transform="translate(34 30)"/>
</clipPath>
</defs>
</svg>
