<svg width="134" height="134" viewBox="0 0 134 134" fill="none" xmlns="http://www.w3.org/2000/svg">
<rect x="0.599609" width="133" height="134" rx="30" fill="#00E676"/>
<rect x="0.599609" width="133" height="134" rx="30" fill="black" fill-opacity="0.04"/>
<g clip-path="url(#clip0_1105_629)">
<path d="M49.8556 93.9837L51.0476 94.5835C55.9081 97.4931 61.4649 99.0139 67.1201 98.9823C84.5298 98.9424 98.8341 84.5121 98.8341 66.9908C98.8341 58.523 95.4925 50.3912 89.5502 44.3967C83.6159 38.3403 75.5082 34.9272 67.0586 34.9272C49.7284 34.9272 35.4697 49.2795 35.4697 66.7189C35.4697 66.8569 35.4697 66.9928 35.4717 67.1308C35.5239 73.06 37.1717 78.8643 40.2399 83.9263L41.0345 85.126L37.8558 96.9229L49.8556 93.9837Z" fill="#00E676"/>
<path d="M49.8556 93.9837L51.0476 94.5835C55.9081 97.4931 61.4649 99.0139 67.1201 98.9823C84.5298 98.9424 98.8341 84.5121 98.8341 66.9908C98.8341 58.523 95.4925 50.3912 89.5502 44.3967C83.6159 38.3403 75.5082 34.9272 67.0586 34.9272C49.7284 34.9272 35.4697 49.2795 35.4697 66.7189C35.4697 66.8569 35.4697 66.9928 35.4717 67.1308C35.5239 73.06 37.1717 78.8643 40.2399 83.9263L41.0345 85.126L37.8558 96.9229L49.8556 93.9837Z" fill="black" fill-opacity="0.04"/>
<path d="M93.0862 40.7977C86.3214 33.8515 77.0413 29.9545 67.378 30.0004H67.3164C47.4155 30.0005 31.039 46.4822 31.039 66.5109C31.039 66.6048 31.0409 66.6968 31.0409 66.7908C31.1159 73.1587 32.7539 79.4092 35.8091 84.986L30.6436 103.981L49.8949 98.9823C55.2131 101.921 61.192 103.435 67.2588 103.381C87.2333 103.271 103.608 86.6956 103.596 66.5908C103.644 56.9314 99.8589 47.6418 93.0862 40.7977ZM67.378 97.1828C62.0002 97.211 56.7172 95.759 52.1001 92.9839L50.9081 92.384L39.4447 95.3833L42.4248 83.9863L41.6301 82.7866C38.6782 77.9896 37.1144 72.4591 37.1143 66.8168C37.1143 50.1772 50.7194 36.4847 67.2529 36.4847C83.7863 36.4847 97.3913 50.1772 97.3913 66.8168C97.3913 77.294 91.9975 87.0555 83.1525 92.584C78.4746 95.5998 73.0328 97.1963 67.4774 97.1828M84.9406 74.9886L82.7552 73.9889C82.7552 73.9889 79.5764 72.5892 77.5897 71.5895C77.3911 71.5895 77.1924 71.3896 76.9937 71.3896C76.5039 71.4018 76.0253 71.5394 75.603 71.7895C75.1798 72.0394 75.4043 71.9894 72.6229 75.1885C72.4342 75.5625 72.0468 75.7964 71.6296 75.7884H71.4309C71.1322 75.7381 70.8554 75.5988 70.6362 75.3885L69.6429 74.9886C67.5114 74.0805 65.5598 72.7936 63.8813 71.1897C63.484 70.7897 62.888 70.3898 62.4906 69.9899C61.0199 68.572 59.7498 66.9573 58.7159 65.1912L58.5172 64.7913C58.3446 64.5469 58.2106 64.2771 58.1199 63.9915C58.0679 63.6452 58.1382 63.2914 58.3185 62.9918C58.4993 62.6919 59.1132 61.992 59.7092 61.3922C60.3053 60.7924 60.3053 60.3925 60.7026 59.9926C60.9068 59.7072 61.0479 59.381 61.1165 59.0361C61.185 58.6913 61.1794 58.3356 61.0999 57.9931C60.1741 55.4059 59.113 52.8697 57.9212 50.3951C57.6018 49.8951 57.1041 49.5373 56.5305 49.3954H54.3451C53.9478 49.3954 53.5504 49.5953 53.1531 49.5953L52.9544 49.7952C52.5571 49.9952 52.1597 50.3951 51.7624 50.5951C51.365 50.795 51.1664 51.3949 50.769 51.7948C49.3802 53.5611 48.6117 55.7407 48.5836 57.9931C48.6056 59.5775 48.9434 61.1413 49.5769 62.5919L49.7757 63.1917C51.5596 67.0302 54.0544 70.4911 57.1266 73.389L57.9212 74.1889C58.4995 74.6709 59.0316 75.2064 59.5106 75.7884C63.627 79.3934 68.5164 81.9928 73.7951 83.3864C74.3911 83.5864 75.1858 83.5864 75.7818 83.7863H77.7686C78.8069 83.7348 79.8226 83.4622 80.7486 82.9865C81.2353 82.7646 81.7002 82.4967 82.1393 82.1868L82.5366 81.7868C82.934 81.3869 83.3314 81.187 83.7287 80.7871C84.117 80.4389 84.4518 80.0346 84.7221 79.5874C85.1035 78.6917 85.3717 77.7519 85.5168 76.7882V75.3885C85.3382 75.2271 85.1375 75.0924 84.9207 74.9886" fill="white"/>
</g>
<defs>
<clipPath id="clip0_1105_629">
<rect width="73" height="74" fill="white" transform="translate(30.5996 30)"/>
</clipPath>
</defs>
</svg>
