<svg width="80" height="80" viewBox="0 0 80 80" fill="none" xmlns="http://www.w3.org/2000/svg">
<rect width="80" height="80" rx="16" fill="white"/>
<path d="M30.225 22.1548C30.1314 22.0608 30.0201 21.9863 29.8976 21.9354C29.7751 21.8845 29.6438 21.8583 29.5112 21.8583C29.3785 21.8583 29.2472 21.8845 29.1247 21.9354C29.0022 21.9863 28.8909 22.0608 28.7973 22.1548L23.4492 27.4718L21.5427 25.6141C21.4491 25.5201 21.3378 25.4456 21.2153 25.3947C21.0928 25.3438 20.9615 25.3177 20.8288 25.3177C20.6962 25.3177 20.5649 25.3438 20.4424 25.3947C20.3199 25.4456 20.2086 25.5201 20.115 25.6141L18.7964 26.9343C18.7025 27.0279 18.6279 27.1392 18.5771 27.2617C18.5262 27.3842 18.5 27.5155 18.5 27.6482C18.5 27.7808 18.5262 27.9122 18.5771 28.0347C18.6279 28.1572 18.7025 28.2684 18.7964 28.362L22.7932 32.3429C22.9927 32.5326 23.2575 32.6383 23.5327 32.6383C23.808 32.6383 24.0727 32.5326 24.2722 32.3429L25.5815 31.0311L31.6452 24.9682C31.8341 24.7792 31.9409 24.5232 31.9423 24.2559C31.9437 23.9886 31.8397 23.7316 31.6528 23.5405L30.225 22.1548ZM30.225 35.5242C30.1314 35.4303 30.0201 35.3557 29.8976 35.3049C29.7751 35.254 29.6438 35.2278 29.5112 35.2278C29.3785 35.2278 29.2472 35.254 29.1247 35.3049C29.0022 35.3557 28.8909 35.4303 28.7973 35.5242L23.4492 40.8757L21.5427 39.0197C21.4491 38.9257 21.3378 38.8512 21.2153 38.8003C21.0928 38.7494 20.9615 38.7233 20.8288 38.7233C20.6962 38.7233 20.5649 38.7494 20.4424 38.8003C20.3199 38.8512 20.2086 38.9257 20.115 39.0197L18.7964 40.3374C18.7025 40.431 18.6279 40.5423 18.5771 40.6648C18.5262 40.7873 18.5 40.9186 18.5 41.0513C18.5 41.1839 18.5262 41.3152 18.5771 41.4377C18.6279 41.5602 18.7025 41.6715 18.7964 41.7651L22.7832 45.7544C22.9825 45.944 23.2471 46.0497 23.5222 46.0497C23.7973 46.0497 24.0619 45.944 24.2613 45.7544L25.5798 44.4367L31.6435 38.3713C31.8317 38.1836 31.9381 37.929 31.9395 37.6632C31.941 37.3974 31.8373 37.1417 31.6511 36.952L30.225 35.5242ZM23.875 50.0796C21.6502 50.0796 19.7942 51.8853 19.7942 54.1108C19.7942 56.3364 21.6519 58.1421 23.875 58.1421C24.9441 58.1421 25.9695 57.7174 26.7255 56.9614C27.4815 56.2054 27.9062 55.18 27.9062 54.1108C27.9062 53.0417 27.4815 52.0163 26.7255 51.2603C25.9695 50.5043 24.9441 50.0796 23.875 50.0796ZM60.1562 51.4233H35.9687C35.6123 51.4233 35.2706 51.5649 35.0185 51.8169C34.7665 52.0689 34.625 52.4107 34.625 52.7671V55.4546C34.625 55.811 34.7665 56.1528 35.0185 56.4048C35.2706 56.6568 35.6123 56.7983 35.9687 56.7983H60.1562C60.5126 56.7983 60.8544 56.6568 61.1064 56.4048C61.3584 56.1528 61.5 55.811 61.5 55.4546V52.7671C61.5 52.4107 61.3584 52.0689 61.1064 51.8169C60.8544 51.5649 60.5126 51.4233 60.1562 51.4233ZM60.1562 24.5483H35.9687C35.6123 24.5483 35.2706 24.6899 35.0185 24.9419C34.7665 25.1939 34.625 25.5357 34.625 25.8921V28.5796C34.625 28.936 34.7665 29.2777 35.0185 29.5297C35.2706 29.7817 35.6123 29.9233 35.9687 29.9233H60.1562C60.5126 29.9233 60.8544 29.7817 61.1064 29.5297C61.3584 29.2777 61.5 28.936 61.5 28.5796V25.8921C61.5 25.5357 61.3584 25.1939 61.1064 24.9419C60.8544 24.6899 60.5126 24.5483 60.1562 24.5483V24.5483ZM60.1562 37.9858H35.9687C35.6123 37.9858 35.2706 38.1274 35.0185 38.3794C34.7665 38.6314 34.625 38.9732 34.625 39.3296V42.0171C34.625 42.3735 34.7665 42.7153 35.0185 42.9673C35.2706 43.2193 35.6123 43.3608 35.9687 43.3608H60.1562C60.5126 43.3608 60.8544 43.2193 61.1064 42.9673C61.3584 42.7153 61.5 42.3735 61.5 42.0171V39.3296C61.5 38.9732 61.3584 38.6314 61.1064 38.3794C60.8544 38.1274 60.5126 37.9858 60.1562 37.9858Z" fill="#01212F"/>
<path d="M30.225 22.1548C30.1314 22.0609 30.0201 21.9863 29.8976 21.9354C29.7751 21.8846 29.6438 21.8584 29.5112 21.8584C29.3785 21.8584 29.2472 21.8846 29.1247 21.9354C29.0022 21.9863 28.8909 22.0609 28.7973 22.1548L23.4492 27.4719L21.5427 25.6141C21.4491 25.5202 21.3378 25.4456 21.2153 25.3948C21.0928 25.3439 20.9615 25.3177 20.8288 25.3177C20.6962 25.3177 20.5649 25.3439 20.4424 25.3948C20.3199 25.4456 20.2086 25.5202 20.115 25.6141L18.7964 26.9344C18.7025 27.028 18.6279 27.1393 18.5771 27.2618C18.5262 27.3843 18.5 27.5156 18.5 27.6482C18.5 27.7809 18.5262 27.9122 18.5771 28.0347C18.6279 28.1572 18.7025 28.2685 18.7964 28.3621L22.7932 32.343C22.9927 32.5326 23.2575 32.6384 23.5327 32.6384C23.808 32.6384 24.0727 32.5326 24.2722 32.343L25.5815 31.0311L31.6452 24.9683C31.8341 24.7792 31.9409 24.5233 31.9423 24.256C31.9437 23.9887 31.8397 23.7316 31.6528 23.5406L30.225 22.1548ZM30.225 35.5243C30.1314 35.4303 30.0201 35.3558 29.8976 35.3049C29.7751 35.2541 29.6438 35.2279 29.5112 35.2279C29.3785 35.2279 29.2472 35.2541 29.1247 35.3049C29.0022 35.3558 28.8909 35.4303 28.7973 35.5243L23.4492 40.8758L21.5427 39.0197C21.4491 38.9258 21.3378 38.8512 21.2153 38.8004C21.0928 38.7495 20.9615 38.7233 20.8288 38.7233C20.6962 38.7233 20.5649 38.7495 20.4424 38.8004C20.3199 38.8512 20.2086 38.9258 20.115 39.0197L18.7964 40.3375C18.7025 40.4311 18.6279 40.5423 18.5771 40.6648C18.5262 40.7873 18.5 40.9187 18.5 41.0513C18.5 41.184 18.5262 41.3153 18.5771 41.4378C18.6279 41.5603 18.7025 41.6716 18.7964 41.7652L22.7832 45.7544C22.9825 45.944 23.2471 46.0498 23.5222 46.0498C23.7973 46.0498 24.0619 45.944 24.2613 45.7544L25.5798 44.4367L31.6435 38.3714C31.8317 38.1836 31.9381 37.9291 31.9395 37.6633C31.941 37.3974 31.8373 37.1418 31.6511 36.952L30.225 35.5243Z" fill="#5AC8FA"/>
</svg>
