<svg width="328" height="331" viewBox="0 0 328 331" fill="none" xmlns="http://www.w3.org/2000/svg">
<g filter="url(#filter0_d_1153_2170)">
<path d="M62.0133 63.8097C64.42 36.3006 88.6717 15.951 116.181 18.3578L245.686 29.688C284.199 33.0575 312.688 67.0097 309.319 105.523L297.989 235.028C295.582 262.537 271.33 282.887 243.821 280.48L114.316 269.15C75.803 265.78 47.3136 231.828 50.6831 193.315L62.0133 63.8097Z" fill="#5AC8FA"/>
<path d="M62.0133 63.8097C64.42 36.3006 88.6717 15.951 116.181 18.3578L245.686 29.688C284.199 33.0575 312.688 67.0097 309.319 105.523L297.989 235.028C295.582 262.537 271.33 282.887 243.821 280.48L114.316 269.15C75.803 265.78 47.3136 231.828 50.6831 193.315L62.0133 63.8097Z" fill="url(#paint0_linear_1153_2170)" fill-opacity="0.5"/>
</g>
<path d="M169.927 153.628L165.508 132.731L134.333 130.003L126.352 149.815L106.816 148.106L144.509 64.8838L166.677 66.8232L189.462 155.337L169.927 153.628ZM162.51 117.145C158.392 98.1996 156.068 87.4858 155.538 85.0034C155.048 82.5244 154.708 80.5694 154.519 79.1383C152.796 84.0169 148.031 96.0358 140.225 115.195L162.51 117.145Z" fill="#FCFCFC"/>
<path d="M240.407 159.794L237.734 150.602L237.266 150.561C233.933 154.08 230.602 156.441 227.275 157.643C223.991 158.809 219.794 159.169 214.686 158.722C208.408 158.173 203.613 155.946 200.3 152.042C197.027 148.14 195.68 142.875 196.26 136.246C196.867 129.306 199.732 124.409 204.854 121.557C210.018 118.669 217.509 117.477 227.327 117.983L238.704 118.624L238.955 115.758C239.535 109.13 236.433 105.518 229.648 104.925C224.423 104.468 218.143 105.51 210.809 108.051L205.956 95.4849C213.826 92.205 222.343 90.9659 231.506 91.7676C240.28 92.5352 246.839 95.0343 251.184 99.265C255.529 103.496 257.36 109.51 256.678 117.309L252.865 160.884L240.407 159.794ZM237.794 129.036L230.871 128.666C225.672 128.368 221.729 128.966 219.045 130.46C216.36 131.954 214.864 134.456 214.557 137.965C214.117 142.995 216.783 145.763 222.554 146.268C226.687 146.629 230.086 145.728 232.75 143.565C235.454 141.404 236.978 138.355 237.323 134.417L237.794 129.036Z" fill="#FCFCFC"/>
<path d="M118.511 206.302C118.202 209.833 117.089 212.471 115.172 214.215C113.255 215.959 110.662 216.687 107.393 216.401C104.124 216.116 101.697 214.947 100.112 212.897C98.5272 210.847 97.8899 208.046 98.2006 204.495C98.5113 200.945 99.6239 198.312 101.538 196.597C103.464 194.874 106.065 194.155 109.344 194.442C112.622 194.729 115.045 195.892 116.611 197.931C118.188 199.97 118.821 202.761 118.511 206.302ZM102.941 204.94C102.732 207.323 103.027 209.157 103.827 210.443C104.626 211.728 105.925 212.45 107.725 212.607C111.334 212.923 113.349 210.683 113.768 205.887C114.189 201.081 112.604 198.521 109.014 198.207C107.215 198.049 105.804 198.539 104.783 199.675C103.763 200.801 103.149 202.556 102.941 204.94ZM130.581 218.43C128.665 218.262 127.222 217.435 126.254 215.949L126.021 215.928C126.057 217.304 126.066 218.099 126.048 218.313L125.469 224.923L121.018 224.534L123.074 201.04L126.693 201.356L127.135 203.527L127.34 203.545C128.522 202.021 130.134 201.349 132.177 201.527C134.104 201.696 135.546 202.572 136.506 204.156C137.465 205.74 137.829 207.855 137.598 210.501C137.445 212.242 137.055 213.732 136.427 214.971C135.809 216.211 134.999 217.126 133.996 217.714C132.994 218.303 131.855 218.542 130.581 218.43ZM130.436 204.963C129.337 204.867 128.504 205.137 127.939 205.774C127.374 206.401 127.014 207.492 126.858 209.047L126.816 209.528C126.663 211.279 126.811 212.557 127.26 213.361C127.719 214.165 128.513 214.617 129.641 214.716C131.636 214.89 132.777 213.334 133.064 210.045C133.205 208.44 133.062 207.217 132.636 206.376C132.22 205.526 131.487 205.055 130.436 204.963ZM148.492 206.146C147.549 206.063 146.783 206.3 146.195 206.856C145.608 207.403 145.228 208.223 145.054 209.315L151.299 209.861C151.376 208.76 151.163 207.889 150.66 207.247C150.159 206.595 149.436 206.228 148.492 206.146ZM147.917 219.947C145.29 219.717 143.301 218.813 141.949 217.234C140.597 215.655 140.038 213.537 140.27 210.882C140.509 208.148 141.375 206.096 142.867 204.727C144.37 203.349 146.327 202.765 148.74 202.976C151.046 203.178 152.783 203.992 153.953 205.418C155.122 206.843 155.605 208.714 155.403 211.029L155.214 213.189L144.692 212.268C144.63 213.537 144.918 214.558 145.557 215.329C146.195 216.101 147.147 216.542 148.411 216.652C149.394 216.738 150.332 216.717 151.225 216.59C152.119 216.462 153.062 216.216 154.054 215.852L153.753 219.296C152.941 219.617 152.084 219.831 151.182 219.938C150.28 220.056 149.192 220.058 147.917 219.947ZM173.276 221.871L168.825 221.482L169.658 211.953C169.761 210.776 169.629 209.877 169.262 209.257C168.896 208.627 168.255 208.272 167.341 208.192C166.096 208.083 165.159 208.422 164.531 209.21C163.904 209.989 163.507 211.341 163.338 213.267L162.667 220.943L158.216 220.554L159.643 204.239L163.043 204.537L163.459 206.676L163.707 206.697C164.272 205.953 165.005 205.419 165.906 205.096C166.817 204.764 167.827 204.646 168.936 204.743C170.833 204.909 172.228 205.551 173.121 206.668C174.014 207.776 174.376 209.297 174.206 211.233L173.276 221.871ZM199.083 218.159C198.915 220.085 198.086 221.542 196.598 222.53C195.12 223.518 193.145 223.904 190.674 223.688C188.397 223.488 186.421 222.884 184.745 221.875L185.112 217.672C186.496 218.44 187.673 218.999 188.642 219.348C189.621 219.699 190.524 219.91 191.351 219.983C192.343 220.069 193.119 219.946 193.677 219.613C194.245 219.28 194.562 218.739 194.628 217.99C194.664 217.572 194.58 217.192 194.375 216.85C194.17 216.499 193.852 216.153 193.421 215.811C193 215.47 192.123 214.908 190.79 214.125C189.54 213.398 188.614 212.724 188.011 212.103C187.409 211.482 186.946 210.779 186.622 209.996C186.298 209.213 186.181 208.321 186.268 207.318C186.433 205.431 187.2 204.003 188.569 203.035C189.948 202.067 191.766 201.682 194.023 201.88C195.132 201.977 196.176 202.201 197.155 202.551C198.144 202.902 199.167 203.364 200.224 203.937L198.457 207.326C197.36 206.76 196.445 206.351 195.712 206.101C194.989 205.851 194.267 205.695 193.547 205.632C192.691 205.557 192.017 205.699 191.525 206.058C191.033 206.417 190.759 206.917 190.703 207.559C190.668 207.958 190.729 208.317 190.888 208.634C191.047 208.942 191.314 209.255 191.688 209.572C192.073 209.88 192.988 210.46 194.433 211.312C196.344 212.44 197.627 213.518 198.282 214.545C198.938 215.563 199.205 216.768 199.083 218.159ZM212.442 225.298L211.775 223.005L211.659 222.994C210.827 223.873 209.996 224.462 209.166 224.761C208.347 225.052 207.3 225.142 206.025 225.031C204.459 224.894 203.263 224.338 202.436 223.364C201.619 222.391 201.283 221.077 201.428 219.423C201.58 217.691 202.294 216.47 203.572 215.758C204.861 215.038 206.729 214.74 209.179 214.866L212.018 215.027L212.08 214.312C212.225 212.658 211.451 211.757 209.758 211.609C208.454 211.495 206.888 211.755 205.058 212.389L203.847 209.253C205.811 208.435 207.936 208.126 210.222 208.326C212.411 208.518 214.047 209.141 215.131 210.197C216.215 211.252 216.672 212.753 216.502 214.698L215.551 225.57L212.442 225.298ZM211.79 217.624L210.063 217.532C208.766 217.458 207.782 217.607 207.113 217.979C206.443 218.352 206.07 218.976 205.993 219.852C205.883 221.107 206.548 221.797 207.988 221.923C209.019 222.014 209.867 221.789 210.532 221.249C211.207 220.71 211.587 219.949 211.673 218.967L211.79 217.624ZM235.207 227.29L230.756 226.9L231.59 217.371C231.693 216.194 231.561 215.295 231.193 214.675C230.827 214.045 230.187 213.69 229.272 213.61C228.027 213.501 227.09 213.841 226.463 214.629C225.836 215.407 225.438 216.76 225.27 218.686L224.598 226.362L220.147 225.972L221.575 209.657L224.975 209.955L225.391 212.094L225.639 212.116C226.204 211.371 226.937 210.837 227.837 210.514C228.749 210.182 229.759 210.065 230.868 210.162C232.765 210.328 234.16 210.969 235.052 212.086C235.945 213.194 236.307 214.716 236.138 216.652L235.207 227.29ZM251.595 223.842C251.449 225.515 250.754 226.738 249.51 227.512C248.275 228.286 246.501 228.572 244.185 228.369C242.998 228.265 241.994 228.094 241.172 227.856C240.349 227.627 239.586 227.325 238.883 226.95L239.205 223.272C239.998 223.734 240.899 224.141 241.907 224.494C242.925 224.848 243.828 225.059 244.616 225.128C246.231 225.269 247.079 224.873 247.161 223.939C247.191 223.589 247.109 223.297 246.914 223.064C246.719 222.822 246.371 222.542 245.87 222.223C245.369 221.895 244.697 221.508 243.854 221.062C242.645 220.426 241.763 219.859 241.209 219.36C240.664 218.861 240.281 218.313 240.059 217.715C239.847 217.108 239.779 216.382 239.853 215.536C239.979 214.086 240.637 213.016 241.824 212.326C243.023 211.627 244.653 211.368 246.716 211.548C248.681 211.72 250.555 212.315 252.338 213.334L250.715 216.427C249.928 216.005 249.19 215.652 248.499 215.366C247.808 215.08 247.093 214.904 246.354 214.84C245.041 214.725 244.353 215.023 244.291 215.733C244.256 216.132 244.435 216.495 244.828 216.824C245.23 217.153 246.121 217.667 247.501 218.366C248.731 218.993 249.622 219.557 250.177 220.056C250.731 220.556 251.124 221.109 251.355 221.718C251.586 222.326 251.666 223.034 251.595 223.842Z" fill="#FCFCFC"/>
<defs>
<filter id="filter0_d_1153_2170" x="0.412109" y="0.164551" width="327.178" height="330.509" filterUnits="userSpaceOnUse" color-interpolation-filters="sRGB">
<feFlood flood-opacity="0" result="BackgroundImageFix"/>
<feColorMatrix in="SourceAlpha" type="matrix" values="0 0 0 0 0 0 0 0 0 0 0 0 0 0 0 0 0 0 127 0" result="hardAlpha"/>
<feOffset dx="-16" dy="16"/>
<feGaussianBlur stdDeviation="17"/>
<feComposite in2="hardAlpha" operator="out"/>
<feColorMatrix type="matrix" values="0 0 0 0 0 0 0 0 0 0 0 0 0 0 0 0 0 0 0.08 0"/>
<feBlend mode="normal" in2="BackgroundImageFix" result="effect1_dropShadow_1153_2170"/>
<feBlend mode="normal" in="SourceGraphic" in2="effect1_dropShadow_1153_2170" result="shape"/>
</filter>
<linearGradient id="paint0_linear_1153_2170" x1="73.9289" y1="42.8976" x2="384.14" y2="375.123" gradientUnits="userSpaceOnUse">
<stop stop-color="white" stop-opacity="0"/>
<stop offset="1" stop-color="white"/>
</linearGradient>
</defs>
</svg>
