<svg width="178" height="128" viewBox="0 0 178 128" fill="none" xmlns="http://www.w3.org/2000/svg">
<g filter="url(#filter0_f_846_1017)">
<path d="M81.3758 58.8327C81.3757 46.0374 71.0058 35.6665 58.2112 35.6665C45.4183 35.6668 35.0468 46.0381 35.0467 58.8311V58.98L35.0385 59.1145C35.0384 59.1149 35.0389 59.1152 35.0392 59.1149C35.0395 59.1146 35.04 59.1148 35.04 59.1152L35.0384 59.1389C35.037 59.1718 35.0341 59.2334 35.0318 59.3225C35.0271 59.5016 35.0232 59.7919 35.0268 60.1813C35.034 60.9607 35.0736 62.1383 35.2088 63.6331C35.4797 66.6283 36.1313 70.8683 37.6545 75.7308C39.0911 80.3166 41.3019 85.4561 44.7121 90.6418C47.4253 94.7674 53.1279 92.5211 53.1279 87.5833V87.0806C53.1279 84.2732 55.4038 81.9973 58.2112 81.9973C71.0045 81.9973 81.3758 71.626 81.3758 58.8327Z" fill="url(#paint0_linear_846_1017)"/>
</g>
<path d="M58.7588 12.1943C73.5868 12.1946 85.6093 24.2518 85.6094 39.1279C85.6094 52.6561 75.6643 63.8544 62.709 65.7705C60.4239 66.1084 58.5088 67.9556 58.5088 70.3105V82.1602C58.5088 85.2169 55.1059 86.8898 52.8623 84.8955C41.6321 74.912 36.3942 63.4689 33.9629 54.5215C32.7472 50.0475 32.2332 46.1981 32.0234 43.4688C31.9186 42.1045 31.8895 41.0203 31.8867 40.2783C31.8854 39.9074 31.891 39.6218 31.8965 39.4297C31.8992 39.3336 31.9022 39.2603 31.9043 39.2119C31.9053 39.188 31.9056 39.1701 31.9062 39.1582C31.9066 39.1522 31.9071 39.1474 31.9072 39.1445V39.1406L31.9082 39.1338V39.126C31.9084 24.2515 43.9307 12.1943 58.7588 12.1943Z" fill="url(#paint1_linear_846_1017)" stroke="url(#paint2_linear_846_1017)" stroke-width="0.5"/>
<path d="M82.2235 39.0075C82.2234 26.2122 71.8534 15.8413 59.0589 15.8413C46.266 15.8416 35.8944 26.2129 35.8943 39.0059V39.1548L35.8861 39.2893C35.8861 39.2897 35.8866 39.29 35.8869 39.2897C35.8872 39.2894 35.8876 39.2896 35.8876 39.29L35.886 39.3137C35.8846 39.3466 35.8817 39.4082 35.8794 39.4973C35.8748 39.6764 35.8709 39.9668 35.8745 40.3561C35.8817 41.1355 35.9213 42.3131 36.0565 43.8079C36.3274 46.8031 36.979 51.0431 38.5022 55.9057C40.6277 62.6908 44.4482 70.6882 51.3411 78.2537C52.1071 79.0945 52.4902 79.5149 52.8647 79.5566C53.1808 79.5919 53.5169 79.4618 53.7268 79.2228C53.9756 78.9397 53.9756 78.3558 53.9756 77.188V67.2555C53.9756 64.448 56.2514 62.1721 59.0589 62.1721C71.8522 62.1721 82.2235 51.8008 82.2235 39.0075Z" fill="url(#paint3_linear_846_1017)"/>
<g filter="url(#filter1_f_846_1017)">
<path d="M142.376 58.8327C142.376 46.0374 132.006 35.6665 119.211 35.6665C106.418 35.6668 96.0468 46.0381 96.0467 58.8311V58.98L96.0385 59.1145C96.0384 59.1149 96.0389 59.1152 96.0392 59.1149C96.0395 59.1146 96.04 59.1148 96.04 59.1152L96.0384 59.1389C96.037 59.1718 96.0341 59.2334 96.0318 59.3225C96.0271 59.5016 96.0232 59.7919 96.0268 60.1813C96.034 60.9607 96.0736 62.1383 96.2088 63.6331C96.4797 66.6283 97.1313 70.8683 98.6545 75.7308C100.091 80.3166 102.302 85.4561 105.712 90.6418C108.425 94.7674 114.128 92.5211 114.128 87.5833V87.0806C114.128 84.2732 116.404 81.9973 119.211 81.9973C132.005 81.9973 142.376 71.626 142.376 58.8327Z" fill="url(#paint4_linear_846_1017)"/>
</g>
<path d="M119.759 12.1943C134.587 12.1946 146.609 24.2518 146.609 39.1279C146.609 52.6561 136.664 63.8544 123.709 65.7705C121.424 66.1084 119.509 67.9556 119.509 70.3105V82.1602C119.509 85.2169 116.106 86.8898 113.862 84.8955C102.632 74.912 97.3942 63.4689 94.9629 54.5215C93.7472 50.0475 93.2332 46.1981 93.0234 43.4688C92.9186 42.1045 92.8895 41.0203 92.8867 40.2783C92.8854 39.9074 92.891 39.6218 92.8965 39.4297C92.8992 39.3336 92.9022 39.2603 92.9043 39.2119C92.9053 39.188 92.9056 39.1701 92.9062 39.1582C92.9066 39.1522 92.9071 39.1474 92.9072 39.1445V39.1406L92.9082 39.1338V39.126C92.9084 24.2515 104.931 12.1943 119.759 12.1943Z" fill="url(#paint5_linear_846_1017)" stroke="url(#paint6_linear_846_1017)" stroke-width="0.5"/>
<path d="M143.223 39.0075C143.223 26.2122 132.853 15.8413 120.059 15.8413C107.266 15.8416 96.8944 26.2129 96.8943 39.0059V39.1548L96.8861 39.2893C96.8861 39.2897 96.8866 39.29 96.8869 39.2897C96.8872 39.2894 96.8876 39.2896 96.8876 39.29L96.886 39.3137C96.8846 39.3466 96.8817 39.4082 96.8794 39.4973C96.8748 39.6764 96.8709 39.9668 96.8745 40.3561C96.8817 41.1355 96.9213 42.3131 97.0565 43.8079C97.3274 46.8031 97.979 51.0431 99.5022 55.9057C101.628 62.6908 105.448 70.6882 112.341 78.2537C113.107 79.0945 113.49 79.5149 113.865 79.5566C114.181 79.5919 114.517 79.4618 114.727 79.2228C114.976 78.9397 114.976 78.3558 114.976 77.188V67.2555C114.976 64.448 117.251 62.1721 120.059 62.1721C132.852 62.1721 143.223 51.8008 143.223 39.0075Z" fill="url(#paint7_linear_846_1017)"/>
<defs>
<filter id="filter0_f_846_1017" x="0.0253906" y="0.666504" width="116.351" height="127.125" filterUnits="userSpaceOnUse" color-interpolation-filters="sRGB">
<feFlood flood-opacity="0" result="BackgroundImageFix"/>
<feBlend mode="normal" in="SourceGraphic" in2="BackgroundImageFix" result="shape"/>
<feGaussianBlur stdDeviation="17.5" result="effect1_foregroundBlur_846_1017"/>
</filter>
<filter id="filter1_f_846_1017" x="61.0254" y="0.666504" width="116.351" height="127.125" filterUnits="userSpaceOnUse" color-interpolation-filters="sRGB">
<feFlood flood-opacity="0" result="BackgroundImageFix"/>
<feBlend mode="normal" in="SourceGraphic" in2="BackgroundImageFix" result="shape"/>
<feGaussianBlur stdDeviation="17.5" result="effect1_foregroundBlur_846_1017"/>
</filter>
<linearGradient id="paint0_linear_846_1017" x1="35.0254" y1="68.2324" x2="81.3758" y2="68.2324" gradientUnits="userSpaceOnUse">
<stop stop-color="#53837D" stop-opacity="0"/>
<stop offset="1" stop-color="#ABC9C4"/>
</linearGradient>
<linearGradient id="paint1_linear_846_1017" x1="58.7478" y1="2.62489" x2="58.7479" y2="91.5832" gradientUnits="userSpaceOnUse">
<stop stop-color="#F4F4F4" stop-opacity="0"/>
<stop offset="0.381683" stop-color="#565656" stop-opacity="0.6"/>
<stop offset="1" stop-color="#F4F4F4"/>
</linearGradient>
<linearGradient id="paint2_linear_846_1017" x1="58.7478" y1="-1.61122" x2="63.7126" y2="92.7521" gradientUnits="userSpaceOnUse">
<stop stop-color="#C9C9C9" stop-opacity="0.1"/>
<stop offset="0.5" stop-color="#686A69" stop-opacity="0.5"/>
<stop offset="1" stop-color="#F4F4F4"/>
</linearGradient>
<linearGradient id="paint3_linear_846_1017" x1="53.6647" y1="3.4722" x2="55.3009" y2="79.7053" gradientUnits="userSpaceOnUse">
<stop stop-color="#D5D8D8" stop-opacity="0.4"/>
<stop offset="1" stop-color="#909090"/>
</linearGradient>
<linearGradient id="paint4_linear_846_1017" x1="96.0254" y1="68.2324" x2="142.376" y2="68.2324" gradientUnits="userSpaceOnUse">
<stop stop-color="#53837D" stop-opacity="0"/>
<stop offset="1" stop-color="#ABC9C4"/>
</linearGradient>
<linearGradient id="paint5_linear_846_1017" x1="119.748" y1="2.62489" x2="119.748" y2="91.5832" gradientUnits="userSpaceOnUse">
<stop stop-color="#F4F4F4" stop-opacity="0"/>
<stop offset="0.381683" stop-color="#565656" stop-opacity="0.6"/>
<stop offset="1" stop-color="#F4F4F4"/>
</linearGradient>
<linearGradient id="paint6_linear_846_1017" x1="119.748" y1="-1.61122" x2="124.713" y2="92.7521" gradientUnits="userSpaceOnUse">
<stop stop-color="#C9C9C9" stop-opacity="0.1"/>
<stop offset="0.5" stop-color="#686A69" stop-opacity="0.5"/>
<stop offset="1" stop-color="#F4F4F4"/>
</linearGradient>
<linearGradient id="paint7_linear_846_1017" x1="114.665" y1="3.4722" x2="116.301" y2="79.7053" gradientUnits="userSpaceOnUse">
<stop stop-color="#D5D8D8" stop-opacity="0.4"/>
<stop offset="1" stop-color="#909090"/>
</linearGradient>
</defs>
</svg>
