<svg width="120" height="102" viewBox="0 0 120 102" fill="none" xmlns="http://www.w3.org/2000/svg">
<path d="M38.7236 102C38.2074 100.488 38.3758 99.345 39.019 98.1472C39.6043 97.0571 39.8583 95.7765 40.1813 94.5594C41.2111 90.6873 42.2077 86.8042 43.2154 82.9239C44.9546 76.2174 46.6994 69.5137 48.4221 62.8045C48.5298 62.3878 48.4773 61.9324 48.516 61.1513C47.3316 61.9655 46.4399 62.6334 45.493 63.2157C44.4025 63.8864 41.6507 65.4685 41.8874 63.9747C41.8874 63.31 41.1034 64.132 40.7804 64.3473C36.5068 67.2313 31.6092 68.0206 26.6427 68.6471C22.8522 69.1246 19.147 68.6483 15.5749 67.5128C7.00131 64.7874 0.841727 55.7527 0.352157 47.8157C-0.107681 40.3608 0.934673 33.1443 3.8997 26.2033C7.46934 17.8492 13.3331 11.5098 20.7402 6.50617C23.3905 4.71502 26.1677 3.02579 29.0942 1.75093C33.9224 -0.352359 40.3028 -0.920609 45.7746 2.0766C50.4016 4.61015 53.1042 8.72585 54.8243 13.5852C56.1177 17.2392 57.1229 20.9763 57.1405 24.8427C57.153 27.5725 56.8725 30.3938 56.3537 33.0367C55.2118 38.8537 52.8916 43.3627 48.9743 47.882C44.7267 52.7822 40.2503 57.9499 35.143 62.2663C33.9172 63.3013 32.7246 64.3914 31.4243 65.3242C30.9301 65.6775 30.0936 65.9038 29.5635 65.7299C29.2129 65.6168 29.039 64.706 28.9313 64.1237C28.4178 61.3859 27.965 58.6344 27.4681 55.8938C26.4908 50.5038 25.5356 45.1083 24.4948 39.7293C24.0807 37.5877 23.4264 35.4957 22.9654 33.3596C22.8715 32.929 23.1641 32.4157 23.2773 31.941C23.4733 31.9079 23.6721 31.8775 23.8681 31.8444C24.3319 32.8794 25.0083 33.8729 25.2264 34.9575C26.143 39.492 26.9022 44.0568 27.7552 48.6023C28.5614 52.9187 29.4089 57.2268 30.2427 61.5377C30.2868 61.7613 30.3779 61.9738 30.4525 62.189C30.919 63.5359 31.2393 63.5966 32.3795 62.7631C36.965 59.4099 40.9626 55.4329 44.7503 51.2214C48.0467 47.5535 50.9537 43.6235 53.2341 39.2353C54.8049 36.2105 55.2467 32.9235 55.7022 29.62C56.6878 22.4581 55.0617 15.7489 51.8178 9.46749C49.4298 4.84473 45.262 1.90727 40.1813 1.30384C35.9228 0.798054 32.1586 1.5743 28.4813 3.30473C26.0491 4.44731 23.7246 5.8714 21.4828 7.37C17.3804 10.1161 13.9598 13.5935 10.7712 17.3745C6.05032 22.9687 3.65676 29.5344 2.29019 36.5307C1.40676 41.0513 1.00795 45.7625 1.9451 50.2416C2.60176 53.3801 4.45993 57.0546 5.85155 58.6426C8.53678 61.7068 11.293 64.7226 15.3015 66.1991C18.8601 67.5128 22.4905 67.9792 26.2285 67.3803C28.9285 66.9498 31.6285 66.4889 34.2927 65.8873C36.8657 65.3049 39.262 64.2645 41.1393 62.3105C41.639 61.7916 42.2109 60.9943 42.5224 60.649C42.8339 60.3038 43.3426 59.6395 43.9021 59.8159C44.4615 59.9924 43.951 61.7157 43.8037 62.367C43.9942 62.2925 45.4267 61.5846 45.7966 61.3418C47.293 60.3593 48.7617 59.3574 49.5098 57.5911C49.6286 57.3124 50.3491 57.2875 50.7908 57.144C50.9013 57.5442 51.1828 57.9885 51.0917 58.3363C50.0813 62.1697 48.9715 65.9783 47.9721 69.8145C47.3781 72.093 46.847 74.3872 46.2971 76.6763C46.0164 77.8448 45.7308 79.012 45.4295 80.175C43.8034 86.451 42.1249 92.7131 40.4601 98.9807C40.2973 99.5989 40.1786 100.253 39.8749 100.799C39.6154 101.266 39.1212 101.6 38.7292 101.994L38.7236 102Z" fill="#007AFF"/>
<path fill-rule="evenodd" clip-rule="evenodd" d="M73.2279 58.5725C73.3184 58.5113 73.4176 58.4443 73.5278 58.3702L73.9628 58.0786C73.9159 58.8494 73.7206 59.5894 73.5901 60.0841C73.5669 60.1721 73.5457 60.2524 73.5278 60.3237C72.8624 62.9759 72.0817 65.6109 71.2397 68.2052C70.5143 70.4385 69.799 72.6727 69.0839 74.9062C67.619 79.482 66.155 84.0546 64.6078 88.6094C64.2195 89.7505 63.8132 90.8849 63.4069 92.0191C62.86 93.546 62.3133 95.0722 61.8112 96.613C61.7107 96.92 61.8289 97.2984 61.9467 97.6761C62.0006 97.8486 62.0544 98.0209 62.0873 98.1861C62.223 98.0678 62.381 97.9575 62.5389 97.8471C62.8821 97.6074 63.2253 97.3676 63.3406 97.0463C63.8877 95.5318 64.3753 93.9957 64.863 92.4591C65.1334 91.6072 65.4039 90.7551 65.6845 89.9066C67.2721 85.1117 68.7257 80.2909 70.1803 75.467C71.1209 72.3472 72.062 69.2262 73.04 66.11C74.1277 62.6464 75.1759 59.1342 76.109 55.6209C76.3686 54.6439 76.2885 54.0505 75.2643 53.562C75.1923 53.6512 75.1136 53.7405 75.0334 53.8314C74.858 54.0302 74.6754 54.2371 74.5409 54.47C73.3152 56.6034 71.7747 58.3559 69.4143 59.3274C67.7606 60.0063 66.9682 59.573 66.9213 57.8205C66.91 57.3868 66.7879 56.9571 66.6659 56.5276C66.6093 56.3285 66.5527 56.1294 66.5072 55.93L66.0406 55.9382C65.9541 56.0328 65.8494 56.1233 65.7449 56.2137C65.5228 56.4057 65.3016 56.5971 65.2566 56.8242C64.9927 58.1519 64.0183 58.8335 63.0641 59.5007C62.8303 59.6642 62.5977 59.8269 62.3771 59.998C61.8139 60.4341 60.4324 60.9612 60.1354 60.5996C59.8839 60.2934 60.0584 59.3775 60.1932 58.67C60.2176 58.5422 60.2406 58.4211 60.2597 58.3117C60.2597 58.1658 60.36 57.7004 60.4263 57.441C60.4832 57.217 60.5954 56.9394 60.6957 56.6911C60.8291 56.3611 60.9415 56.0829 60.8753 56.0514C60.2762 55.7727 59.5363 55.5132 58.9124 55.6264C57.3722 55.9051 56.3588 56.9801 55.3533 58.0467C55.1044 58.3107 54.856 58.5743 54.6001 58.8251C54.1833 59.2335 53.7912 59.7441 53.598 60.2823C53.4434 60.71 53.4323 61.4 53.6836 61.6981C53.9127 61.9685 54.625 62.0182 55.0474 61.8968C55.4272 61.7864 55.7855 61.6017 56.1443 61.4167C56.4764 61.2454 56.8089 61.074 57.1593 60.9612C57.5376 60.8398 58.1946 60.8563 58.4127 61.0937C59.6937 62.4902 60.1327 62.6916 61.8195 61.8112C62.6801 61.3638 63.4838 60.8065 64.2939 60.2447C64.6531 59.9956 65.0136 59.7456 65.3808 59.504C65.4474 59.5578 65.5116 59.6037 65.5715 59.6465C65.6804 59.7243 65.7752 59.7921 65.8446 59.8793C67.0732 61.4 67.5204 61.5684 69.337 60.7984C70.0203 60.5096 70.6663 60.1267 71.3119 59.7439C71.6104 59.567 71.9088 59.39 72.2109 59.2225C72.5252 59.0469 72.7623 58.8868 73.2279 58.5725ZM58.815 57.875C57.3106 59.732 56.1851 60.1328 55.5087 59.8331C55.5087 59.8331 55.9766 60.2702 55.5114 59.8331C55.0463 59.396 57.482 57.1452 58.1294 57.1452C59.1682 56.9091 58.9837 57.617 58.815 57.875Z" fill="#007AFF"/>
<path d="M111.489 71.9176C112.87 69.9001 114.341 67.9351 115.603 65.8431C116.539 64.2893 117.154 62.5451 118.027 60.9471C118.239 60.5552 118.592 60.2028 119.293 60.379C119.995 60.5552 119.678 60.9251 119.697 61.3252C119.78 62.948 118.629 63.9361 117.753 65.1007C116.246 67.1127 113.895 70.3184 112.473 72.192C112.162 72.6017 112.068 73.1473 112.473 73.4521C113.273 74.1743 114.853 74.4879 116.083 74.0592C116.573 73.8886 117.066 73.5707 117.591 73.4521C117.867 73.3886 118.217 73.6452 118.532 73.7556C118.391 74.0123 118.317 74.4042 118.104 74.5063C116.218 75.4033 114.322 76.1208 112.243 74.9672C110.736 74.131 109.145 75.2377 108.905 77.1365C108.764 78.2432 108.574 79.372 108.187 80.4097C107.826 81.3894 107.009 81.911 105.777 81.5219C105.802 81.2404 105.747 80.9009 105.871 80.6525C108.265 75.9221 109.087 70.695 110.587 65.6831C111.199 63.638 111.528 61.5102 112.039 59.4347C112.185 58.8331 112.409 58.1956 112.787 57.7291C112.983 57.4863 113.728 57.3897 113.977 57.5691C114.225 57.7485 114.333 58.4053 114.22 58.7669C113.052 62.5423 111.764 66.2542 110.642 70.0685C110.519 70.4873 110.519 71.2235 110.642 71.5729C110.828 71.8174 111.124 72.1796 111.492 71.9148L111.489 71.9176Z" fill="#007AFF"/>
<path d="M97.6662 59.5596C98.2377 59.5265 100.272 59.1769 101.065 59.3747C101.534 59.4919 100.77 60.9433 99.8831 60.9147C94.7644 60.7497 89.9002 61.2542 84.9116 61.486C83.3656 61.5578 81.8334 61.8834 80.2929 62.0822C79.6607 62.165 79.0174 62.325 78.399 62.2588C77.8883 62.2036 77.4107 61.8669 76.9165 61.6571C77.3969 61.2432 77.8165 60.6277 78.3687 60.4594C79.219 60.1999 80.1631 60.211 81.0687 60.1723C82.0321 60.1309 93.1055 59.8163 97.6662 59.5596Z" fill="#007AFF"/>
<path d="M105.201 60.1113C105.132 60.4938 105.914 60.751 106.092 60.9109C106.354 60.6262 107.334 59.8698 107.404 59.4872C107.473 59.1047 106.878 58.8736 106.438 58.9984C105.997 59.1232 105.27 59.7288 105.201 60.1113Z" fill="#007AFF"/>
<path d="M50.7931 53.0364C50.8019 53.4769 51.6597 53.7953 51.8763 53.985C52.0451 53.7624 52.7287 53.3127 52.7199 52.8722C52.7111 52.4317 52.2177 51.7496 51.8323 51.7824C51.4469 51.8152 50.7842 52.5958 50.7931 53.0364Z" fill="#007AFF"/>
<path d="M45.5503 53.6689C45.917 53.6689 46.8851 54.3143 46.6413 55.2011C46.3976 56.088 45.7813 55.9909 45.3573 55.9466C44.9333 55.9023 44.7221 55.3828 44.7083 54.9992C44.6945 54.6156 45.1837 53.6689 45.5503 53.6689Z" fill="#007AFF"/>
</svg>
