<svg width="164" height="90" viewBox="0 0 164 90" fill="none" xmlns="http://www.w3.org/2000/svg">
<path fill-rule="evenodd" clip-rule="evenodd" d="M13.1691 21.694C17.0574 16.9258 22.5216 12.7059 27.9857 9.87776C39.005 4.44199 54.4971 1.61832 65.2778 8.65739C69.0349 11.6792 72.6608 19.2325 72.965 23.9977C72.9937 24.0424 73.0455 24.1209 73.0847 24.1804C73.0965 24.1981 73.1071 24.2142 73.1156 24.2272C73.1603 32.2571 71.1893 39.8356 66.9074 46.6452C66.8475 46.6982 66.7294 46.903 66.5945 47.1369C66.434 47.4151 66.2498 47.7347 66.1113 47.8894C65.9261 48.0788 65.9632 48.1359 66.0601 48.2856L66.0621 48.2887C66.548 48.0263 67.0595 47.763 67.5835 47.4933C70.9478 45.7617 74.8316 43.7625 75.8081 40.0368C75.9542 38.6421 76.2584 37.2517 77.302 37.1028C78.1116 36.9498 78.5016 37.4935 78.6573 38.3962C78.6531 38.4582 78.6576 38.56 78.6634 38.6912C78.676 38.9763 78.6948 39.4004 78.6438 39.8593C78.4708 40.6595 78.1849 41.4426 77.9076 42.2027C77.2293 44.0619 76.601 45.7838 77.7925 47.2815C81.4951 46.9787 84.9113 41.6878 87.0857 38.3205C87.2762 38.0255 87.4572 37.7452 87.6281 37.4843C87.7684 37.231 87.8855 36.9945 87.9915 36.7804C88.4197 35.9157 88.6671 35.4162 89.5275 35.6575C90.721 36.1975 90.6789 37.091 90.2893 38.946C89.5416 44.1081 87.605 49.2711 85.726 54.2805C85.3194 55.3645 84.9155 56.4412 84.527 57.5093C84.6303 57.5996 84.9203 57.5717 85.1466 57.55C85.2077 57.544 85.2642 57.5386 85.3112 57.5361C85.8193 56.7751 86.2782 55.8346 86.7307 54.907C87.0855 54.1797 87.4363 53.4605 87.804 52.8424C88.1962 52.0845 88.6344 51.3943 89.0632 50.7189C89.614 49.8512 90.1493 49.008 90.5517 48.0772C90.8686 46.6914 91.9025 45.4163 92.7833 44.3301C92.8394 44.2611 92.8947 44.1929 92.9491 44.1255C94.0509 42.8366 96.654 40.3497 98.2016 39.3022C99.7283 38.1518 102.278 37.4411 102.6 40.1887C102.617 40.9058 102.476 41.6095 102.336 42.3094C102.127 43.3589 101.919 44.3997 102.248 45.4636C103.719 46.076 105.594 42.7174 106.244 41.5164C106.293 41.4209 106.34 41.3298 106.385 41.2421C106.773 40.4921 107.034 39.9874 107.257 39.1725C107.32 38.5199 107.998 37.4575 108.802 37.5036C109.224 37.5111 109.776 37.8687 110.086 38.1339C110.11 38.2369 110.142 38.3415 110.174 38.4473C110.29 38.8308 110.41 39.2306 110.215 39.6359C110.122 39.9764 110.025 40.3024 109.93 40.6219C109.641 41.5939 109.371 42.5027 109.292 43.5593C109.264 43.9382 109.207 44.106 109.292 44.553C109.297 44.6704 109.494 45.1401 109.494 45.1401C109.504 45.1636 109.483 45.117 109.494 45.1401C109.614 45.4095 109.721 45.6501 109.975 45.8793C110.277 45.9736 110.387 45.9382 110.587 45.8793C113.528 44.3831 115.131 41.4422 116.68 38.6003C117.19 37.6637 117.695 36.7378 118.239 35.878C118.378 35.6877 118.525 35.3588 118.692 34.9859C119.263 33.7135 120.064 31.9284 121.51 33.3896C122.096 34.1488 121.773 35.3647 121.547 36.2201C121.538 36.2511 121.53 36.2816 121.522 36.3116C121.117 38.2625 120.743 40.2428 120.368 42.2261C119.792 45.2702 119.216 48.3211 118.524 51.2823C118.383 51.9802 118.239 52.5843 118.104 53.1554C117.82 54.3524 117.571 55.4049 117.442 56.8745C117.506 57.1546 118.663 57.3096 118.858 57.2977C119.653 55.6719 120.6 53.8287 121.576 51.9264C122.96 49.2326 124.404 46.4204 125.564 43.9392C125.739 43.4714 126.11 42.9305 126.702 42.8396C127.868 42.7293 128.706 44.2775 127.999 45.249C127.427 46.3043 126.917 47.4813 126.414 48.6428C126.125 49.3082 125.839 49.9686 125.545 50.5983C124.392 53.0599 123.024 55.5945 121.666 58.0487C125.08 59.2035 128.144 61.1957 130.782 63.5589C133.429 63.4271 136.109 63.3614 138.787 63.2956C144.317 63.1599 149.838 63.0245 155.031 62.3088C155.18 62.3088 155.621 62.0734 155.71 61.9452C156.143 61.5578 156.77 62.2775 156.915 62.6619C156.875 65.3168 152.515 65.405 149.328 65.4695C148.333 65.4896 147.452 65.5074 146.851 65.6003C144.319 65.7185 141.638 65.8005 139.003 65.8811C136.924 65.9445 134.875 66.0071 132.952 66.0861C133.011 66.3947 133.122 66.7334 133.236 67.0841C133.632 68.2997 134.075 69.6594 132.607 70.4088C131.552 70.674 129.764 70.5727 128.685 70.2747C124.916 69.7293 120.427 68.9187 116.656 67.8578C115.45 70.0443 114.75 72.473 114.051 74.8964C113.693 76.1393 113.335 77.381 112.909 78.5878C112.759 78.9413 112.725 79.1276 112.691 79.3119C112.663 79.4632 112.636 79.6131 112.544 79.8528L112.416 80.1672V80.6068C112.297 80.767 112.236 81.0392 112.183 81.2751C112.158 81.3879 112.134 81.4923 112.107 81.5724C111.997 81.7422 111.709 82.4828 111.751 82.6735C111.593 82.7923 111.51 82.9337 111.421 83.0857C111.368 83.1776 111.312 83.2736 111.235 83.3709C111.158 83.3971 111.064 83.4062 110.97 83.4151C110.797 83.4318 110.623 83.4485 110.551 83.572C109.959 83.5646 109.376 83.423 109.318 82.9119C109.323 82.8711 109.201 82.7877 109.134 82.7412C109.122 82.7333 109.112 82.7266 109.105 82.7212C108.772 79.9154 109.564 76.8339 110.269 74.283C110.356 73.7742 110.585 72.9739 110.823 72.144C111.117 71.1212 111.423 70.0532 111.492 69.4298C111.445 69.4519 111.406 69.3175 111.39 69.2611C111.389 69.2567 111.388 69.2528 111.387 69.2495C109.339 70.8901 104.29 72.2013 103.784 68.4315C103.599 68.4091 103.38 68.4896 103.216 68.5894L102.719 68.6103C99.7989 68.8531 96.9108 69.1398 94.0336 69.4253C90.1149 69.8144 86.2166 70.2014 82.2861 70.4729C81.8992 70.6563 81.7199 71.0723 81.5499 71.4666C81.5004 71.5813 81.4518 71.6941 81.399 71.799C81.1041 72.3642 80.8652 72.9605 80.6266 73.5555C80.3384 74.2748 80.051 74.9919 79.6666 75.6493V75.9459C78.7318 77.5224 78.0102 80.4325 77.6748 82.2846C77.5905 82.9618 77.509 83.3177 77.442 83.6094C77.3884 83.8441 77.3441 84.0374 77.3154 84.323C77.3201 84.566 77.2809 84.6552 77.219 84.7951C77.202 84.8335 77.1834 84.876 77.1634 84.9265C77.0604 85.1323 76.8749 85.2118 76.6855 85.2931C76.5296 85.36 76.3711 85.4281 76.2539 85.5687L75.0508 85.4391C74.0881 84.5006 74.4384 82.9699 74.7551 81.5862C74.8941 80.9792 75.0266 80.4004 75.0388 79.9124C75.4212 77.2381 76.0283 74.4492 76.5916 71.8617C76.6541 71.5745 76.7161 71.2896 76.7772 71.0078C73.0614 71.3426 69.4294 71.7157 65.8287 72.0857C59.9939 72.685 54.2412 73.2761 48.3471 73.6825C48.0101 73.678 45.7246 73.6467 45.407 73.6363C45.1846 73.6227 44.7579 73.5194 44.3395 73.4183C43.8351 73.2962 43.343 73.1772 43.2362 73.222C43.2498 73.1094 43.1783 73.0379 43.0417 72.9018C43.0138 72.8739 42.9831 72.8434 42.95 72.8093C42.1225 72.0479 41.8124 70.908 42.7323 70.1421C43.9392 69.4465 45.1157 68.9205 46.2783 68.4006C47.1406 68.015 47.9955 67.6326 48.8495 67.1873C59.4424 63.1015 70.2113 60.1974 81.3006 58.0278C81.3394 57.9153 81.5103 57.4737 81.7664 56.8116C83.3331 52.763 88.0892 40.4714 85.3291 44.7975C85.2933 44.8424 85.2569 44.8881 85.2198 44.9348C83.2985 47.3487 79.4887 52.1352 76.1525 49.4763C75.2729 48.7492 74.7242 47.6853 74.7093 46.453L74.5617 46.3308C71.0969 49.1679 67.0938 51.1139 62.7537 52.6904C62.1296 52.8361 61.8574 53.1504 61.5369 53.5204C61.4249 53.6497 61.307 53.7859 61.1659 53.9242C56.3443 58.8459 50.5089 62.8035 44.2784 65.6495C44.1934 65.6906 44.1083 65.7321 44.0229 65.7735C38.7106 68.3525 32.3878 71.4222 26.4158 70.0437C21.3035 69.1735 18.7227 64.6556 18.3977 59.7965C18.4718 59.3172 18.4797 59.1476 18.5252 58.1704C18.5392 57.8687 18.5568 57.4898 18.5811 57.0012C18.5562 56.8073 18.6428 56.3539 18.7379 55.8554C18.8486 55.2766 18.9707 54.637 18.9434 54.2728C12.9097 51.3821 7.64527 45.55 7.21141 38.5378C7.12794 38.4331 7.18353 37.9083 7.22673 37.5005C7.24758 37.3037 7.26553 37.1341 7.2636 37.0522C7.25167 36.7884 7.20992 36.0508 7.15625 35.7841C7.29821 35.179 7.38859 34.5134 7.48025 33.8384C7.63601 32.6915 7.79543 31.5176 8.21778 30.5674C9.14065 27.3637 11.2354 24.0796 13.1691 21.694ZM47.8581 7.07792C48.6348 7.06749 49.2819 7.04961 49.2953 7.0362L52.0878 7.13603C52.6695 7.21733 53.2842 7.26951 53.9052 7.32223C54.8548 7.40286 55.8192 7.48474 56.7036 7.67395C56.9225 7.72888 57.1449 7.78344 57.3695 7.83849C58.1257 8.0239 58.9059 8.21523 59.6541 8.44729C60.5934 8.75126 62.2662 9.57676 63.0862 10.0551C66.1336 12.092 67.8541 15.3747 69.3778 18.9285C71.2296 22.828 71.0477 27.5485 70.086 31.5657C69.6015 33.8157 68.9395 36.4829 68.0763 38.6838C66.3483 43.1435 64.0836 46.7301 61.0571 50.1334C60.6533 50.3593 60.2079 50.5218 59.7612 50.6846C59.5067 50.7775 59.2519 50.8704 59.0041 50.9753C55.3749 52.0486 51.6949 52.6435 47.9326 53.2517L47.9146 53.2545C47.7603 53.2796 47.6057 53.3046 47.451 53.3296C46.8949 53.3296 46.0734 53.4071 45.6992 53.5219C45.295 53.4915 44.3945 53.6077 43.6458 53.7042H43.6457L43.5793 53.7127C43.2498 53.7552 42.9543 53.7929 42.7502 53.8109C41.8321 53.857 40.9252 53.9091 40.0283 53.9607C33.7873 54.3196 28.0269 54.6509 22.3382 52.7098C22.3009 52.6517 22.2249 52.5369 22.1861 52.4788C22.4492 51.4206 22.9551 50.3582 23.438 49.3439C23.6447 48.91 23.847 48.4848 24.0244 48.0727C24.3986 46.9119 26.3592 43.5935 27.1434 42.3568C28.0425 40.8304 29.0816 39.4212 30.1385 37.9878C30.3309 37.7267 30.524 37.4648 30.7171 37.2012C32.8595 34.5295 34.4354 32.7161 36.8745 30.0772C37.3746 29.437 37.6601 29.2262 37.8642 29.0755C38.1657 28.8328 38.2404 28.7978 38.4877 28.1252C38.6129 27.7898 38.6425 27.5771 38.7152 27.2742C38.7339 27.1969 38.7477 27.0782 38.7576 26.9689C38.6592 26.3669 38.0345 25.4803 37.2279 25.4654C36.4695 26.0309 35.9789 26.703 35.475 27.3935C35.1597 27.8257 34.8392 28.2649 34.4444 28.6899C33.9571 29.2572 33.4423 29.8487 32.9135 30.4565C30.9629 32.6982 28.8202 35.1605 27.1583 37.444C26.6807 38.1032 26.2011 38.8627 25.724 39.6183C25.4862 39.995 25.249 40.3707 25.0129 40.7326C24.9428 40.898 24.6476 41.2884 24.5447 41.354C24.4503 41.4642 24.284 41.7834 24.1323 42.074C23.9747 42.3759 23.8333 42.6471 23.8052 42.622C23.7724 42.6429 23.762 42.6608 23.7814 42.6608C23.841 42.6608 23.5682 43.2374 23.4191 43.4267C23.328 43.5344 23.2879 43.6345 23.2482 43.7335C23.2101 43.8288 23.1722 43.9232 23.0896 44.0227C22.6583 44.7199 22.1193 45.8435 21.6844 46.7504C21.5449 47.0413 21.416 47.3096 21.305 47.5348C20.8619 48.4819 20.5184 49.4328 20.1738 50.3866C20.0429 50.7488 19.912 51.1115 19.7753 51.4745C19.2058 51.4462 18.0205 50.7116 17.4107 50.3123C16.7234 49.9293 15.4338 48.9652 14.7137 48.2217C14.241 47.9803 12.8798 46.4858 12.7158 46.1252C12.7301 46.098 12.709 46.0891 12.6845 46.0785C12.6577 46.0671 12.6268 46.0538 12.6338 46.0134C12.6408 45.9747 12.5283 45.8415 12.4196 45.7129C12.3191 45.5938 12.2218 45.4786 12.2253 45.4457C12.2292 45.4096 12.1742 45.3609 12.1203 45.3132C12.0695 45.2682 12.0196 45.2241 12.0211 45.1924C12.0211 45.1656 11.9659 45.0836 11.8973 45.0121C11.7771 44.8939 11.609 44.5403 11.4899 44.29C11.4332 44.1708 11.3876 44.075 11.3636 44.0391C10.8776 43.455 10.2156 41.573 10.0412 40.977C9.67589 39.6106 9.58345 38.0803 9.58345 36.2565C9.64063 35.8245 9.68359 35.5129 9.7244 35.2171C9.78255 34.7954 9.83628 34.4059 9.9204 33.7457C9.9553 33.3593 10.0096 33.1909 10.0717 32.9984C10.1156 32.8621 10.1635 32.7137 10.2111 32.4672C10.2245 32.2832 10.2542 32.2164 10.2834 32.151C10.3031 32.1068 10.3225 32.0631 10.3364 31.9844C10.3364 31.8384 10.4482 31.5374 10.5033 31.5374C10.5668 30.9021 10.8123 30.2966 11.0381 29.7398C11.1147 29.5509 11.1891 29.3676 11.2533 29.1906C11.3084 29.1906 11.3845 28.9924 11.3666 28.897C11.3591 28.8613 11.38 28.8329 11.4113 28.8329C11.4503 28.8329 11.4432 28.8078 11.436 28.7826C11.4286 28.7568 11.4212 28.7309 11.4635 28.7316C11.4963 28.7316 11.5127 28.7033 11.5008 28.669C11.4814 28.6094 11.5052 28.5677 11.6513 28.4038C11.8626 28.0595 12.0625 27.6697 12.2639 27.2767C12.5133 26.7905 12.7651 26.2994 13.0438 25.8841C13.2216 25.697 13.2876 25.5792 13.3509 25.4663C13.4071 25.3662 13.4612 25.2696 13.5895 25.1316C13.7766 24.936 13.8207 24.8141 13.858 24.7111C13.8914 24.6187 13.9193 24.5416 14.0398 24.4402C14.2279 24.1695 14.6776 23.6603 15.1056 23.1756C15.488 22.7426 15.8532 22.3291 15.9988 22.1232C16.1733 21.7864 17.2333 20.5616 17.5956 20.3634C17.7591 20.0228 18.3434 19.5349 18.8788 19.0879C19.1633 18.8504 19.434 18.6244 19.6203 18.4382C20.8055 17.3728 22.1205 16.2925 23.431 15.397C23.5369 15.3538 23.6233 15.2957 23.6233 15.2704C23.6876 15.124 24.19 14.8761 24.3968 14.774L24.3973 14.7738L24.3985 14.7732C24.4164 14.7644 24.432 14.7567 24.4448 14.7503C24.951 14.3341 25.5244 14.0003 26.1006 13.6648C26.3662 13.5102 26.6324 13.3552 26.8929 13.1917C26.944 13.1638 27.0147 13.1245 27.0986 13.0779C27.5707 12.8158 28.4621 12.3208 28.6507 12.3006C28.695 12.3117 28.822 12.1961 28.9238 12.1035C28.9864 12.0465 29.0395 11.9982 29.0577 11.9936C29.1964 11.9683 30.1759 11.4885 30.2847 11.3306C30.2968 11.3306 30.3113 11.3307 30.3274 11.3309C30.4481 11.3323 30.6625 11.3348 30.7007 11.2769C31.0275 11.0588 32.0686 10.6346 32.5585 10.435C32.6005 10.4179 32.6386 10.4024 32.6717 10.3888C32.7067 10.3966 32.7355 10.3694 32.7668 10.3398C32.8021 10.3064 32.8407 10.27 32.8953 10.2771C33.1271 10.283 33.3511 10.1904 33.5698 10.1C33.7392 10.0299 33.9055 9.96115 34.0701 9.94034C34.2021 9.94417 34.3297 9.87063 34.4521 9.80018C34.5674 9.73377 34.6778 9.67008 34.7828 9.6766C34.8171 9.69001 34.8752 9.66468 34.911 9.62146C34.9762 9.55556 35.0504 9.54431 35.1312 9.53206C35.1965 9.52217 35.2663 9.5116 35.3389 9.47097C35.5613 9.35479 35.7327 9.31315 35.87 9.27979C35.9775 9.25367 36.0641 9.23263 36.138 9.18487C36.1419 9.14834 36.223 9.1398 36.3044 9.13125C36.3822 9.12305 36.4604 9.11486 36.4705 9.08206C36.5111 9.04432 36.5813 9.03414 36.6555 9.0234C36.7365 9.01165 36.8222 8.99924 36.879 8.94944C36.9476 8.90474 37.0251 8.88239 37.052 8.89878C37.7382 8.65712 38.4139 8.51107 39.7265 8.22734L39.7305 8.22648L39.8741 8.19545L39.998 8.16865C40.2297 8.1172 40.4444 8.06801 40.6489 8.02112C41.357 7.85888 41.9441 7.72434 42.6936 7.6203C42.8728 7.59216 43.0621 7.5616 43.2595 7.52975L43.2597 7.52972C44.6714 7.30195 46.4878 7.00884 47.8625 7.06898L47.8581 7.07792ZM98.7309 42.7174C98.8457 42.6159 99.1438 42.3924 99.2273 42.3866C99.2913 42.3759 99.3366 42.3954 99.2929 42.5414C98.4789 44.1403 97.4263 46.0313 95.9235 47.0863C95.8032 47.1733 95.6808 47.2649 95.5561 47.3581L95.556 47.3582C94.873 47.8691 94.1266 48.4275 93.3323 48.551C93.3403 48.0956 93.937 47.2351 94.686 46.4156C95.5011 45.5238 97.4402 43.8391 98.4167 42.9905C98.4826 42.9331 98.5442 42.8797 98.6009 42.8305C98.6481 42.7894 98.6916 42.7515 98.7309 42.7174ZM55.5634 54.8465C56.1428 54.7117 56.4475 54.6407 55.6033 55.3189C53.7041 57.0024 51.5312 58.3616 49.34 59.7325H49.3399L49.3364 59.7345C49.0967 59.8846 48.8568 60.0346 48.6169 60.1854C45.1864 62.13 42.291 63.5604 38.8485 65.0147C36.5823 65.946 33.766 66.9935 31.3641 67.3914C27.54 68.0157 23.3654 67.232 21.7358 63.2043C21.2707 62.1687 21.1261 61.0825 21.0336 60.2197L21.0324 60.2015C21.008 59.8414 20.9962 59.6694 20.8994 59.5596C20.9563 59.1384 20.985 58.6551 21.0129 58.1892C21.0538 57.5047 21.0925 56.8578 21.214 56.5005C21.2601 56.4549 21.285 56.2768 21.3133 56.0751C21.3581 55.755 21.4113 55.3758 21.5704 55.374C21.9897 55.5352 22.1479 55.5765 22.3437 55.6275C22.553 55.6822 22.8051 55.7479 23.4653 55.9834C26.8124 56.8387 30.0939 57.1189 33.4782 57.0712C40.9894 57.1233 47.3467 56.3709 54.682 55.0089L54.6805 55.006C54.9394 54.9858 55.2184 54.9259 55.4616 54.8701C55.4963 54.862 55.5303 54.8541 55.5634 54.8465ZM101.097 58.1724C105.582 58.0844 109.552 58.0755 114.011 58.682C114.06 58.7341 114.159 58.8399 114.207 58.8921C114.204 58.9032 114.201 58.9216 114.197 58.9441C114.179 59.0472 114.146 59.2367 114.104 59.2258C114.084 59.2139 114.062 59.2988 114.056 59.4151C114.043 59.5842 114.018 59.6484 113.987 59.7259C113.96 59.7937 113.929 59.8716 113.899 60.0394C113.849 60.2227 113.809 60.4218 113.77 60.6186C113.712 60.9083 113.655 61.1933 113.565 61.4177C113.529 61.5967 113.495 61.7965 113.46 62.0066C113.326 62.8015 113.167 63.744 112.72 64.2697C111.093 63.8376 109.804 63.6662 108.046 63.7258C106.267 63.9553 105.356 64.6586 104.308 65.9684C103.054 66.0713 101.905 66.2119 100.781 66.3495C100.23 66.4169 99.6841 66.4836 99.1349 66.545C97.9343 66.6286 96.584 66.7559 95.2332 66.8831L95.2327 66.8833C93.9149 67.0074 92.5967 67.1317 91.4165 67.2156C90.234 67.3252 88.8017 67.4209 87.4988 67.5079C87.103 67.5344 86.7191 67.5601 86.3578 67.5851C83.7264 67.8265 83.3432 67.8325 83.3432 67.6253C83.7029 66.8089 84.0535 65.9937 84.4034 65.1798C85.2429 63.2277 86.079 61.2835 87.0302 59.3495C91.5506 58.7281 96.4259 58.305 101.097 58.1724ZM116.745 59.3494C116.775 59.1686 116.778 59.1504 117.038 59.1454C117.245 59.126 117.595 59.2124 117.73 59.3823C117.466 59.9664 117.105 60.6071 116.726 61.0974C116.632 61.145 116.441 61.2434 116.347 61.2911C116.371 60.8563 116.505 60.3307 116.62 59.8834C116.66 59.7296 116.697 59.5851 116.726 59.4568C116.73 59.4385 116.733 59.4213 116.736 59.4052C116.739 59.3851 116.742 59.3665 116.745 59.3494ZM83.5093 60.1434C83.5913 59.9466 83.6317 59.8493 83.7174 59.7533L84.1856 59.7831C84.189 59.8186 84.1942 59.871 84.1994 59.9248C84.2054 59.9859 84.2113 60.0488 84.2154 60.0901C83.8917 60.5355 83.6218 61.2584 83.4074 61.833C83.3571 61.9679 83.3098 62.0945 83.2657 62.2075C83.1321 62.4634 82.9855 62.739 82.8384 63.0158L82.8382 63.0161C82.6095 63.4464 82.379 63.8799 82.1922 64.2488C82.1476 64.3308 82.1059 64.4524 82.0616 64.5814C81.9844 64.8064 81.8995 65.0536 81.7792 65.1503C81.6173 65.1932 81.6711 65.0843 81.7439 64.937C81.7925 64.8388 81.8496 64.7233 81.8568 64.6243C82.2876 63.322 82.8452 61.8066 83.3298 60.5878L83.4699 60.2361V60.2376L83.4854 60.2006C83.4938 60.1807 83.5017 60.1616 83.5093 60.1434ZM120.379 60.0363C120.385 60.0269 120.391 60.0184 120.395 60.0111C121.917 60.33 123.513 61.0094 124.819 61.8558C124.954 61.9379 125.104 62.0254 125.263 62.1175C126.072 62.5883 127.095 63.1833 127.437 63.8376C126.836 63.9669 126.202 64.0007 125.624 64.0316C125.083 64.0605 124.59 64.0869 124.218 64.1863C123.55 64.1928 122.463 64.2916 121.335 64.3943C120.151 64.5019 118.923 64.6135 118.086 64.6273L117.935 64.4768C118.015 64.2791 118.11 64.0617 118.207 63.8374L118.208 63.8368L118.208 63.8364L118.208 63.8361L118.208 63.8356C118.41 63.3706 118.625 62.8759 118.751 62.4652C118.886 62.2741 118.972 62.1267 119.056 61.9826C119.19 61.7537 119.319 61.5332 119.63 61.1584C119.711 61.0616 119.799 60.9334 119.884 60.8078C119.991 60.6511 120.095 60.4983 120.181 60.4149C120.181 60.3534 120.313 60.1418 120.379 60.0369L120.379 60.0363ZM79.0464 60.552C79.279 60.4834 79.9812 60.3657 80.2197 60.3702C80.29 60.607 80.1568 60.9334 80.0294 61.2461C79.9916 61.3386 79.9544 61.4299 79.923 61.5176C79.7664 61.9652 79.6168 62.3428 79.4665 62.7223C79.2751 63.2057 79.0823 63.6923 78.872 64.3308C78.6817 64.8356 78.614 65.0743 78.5517 65.2938C78.4882 65.5181 78.4303 65.7222 78.2532 66.1695C78.1843 66.2899 78.1648 66.4024 78.1475 66.503C78.1337 66.5829 78.1213 66.6552 78.0862 66.7179C78.0342 66.7475 78.0725 66.8764 78.0891 66.9319L78.0892 66.9325C78.0311 66.9757 77.9312 67.0561 77.9625 67.1336C77.9837 67.1853 77.9607 67.1958 77.9357 67.2072C77.9132 67.2174 77.889 67.2284 77.8939 67.2707C77.8835 67.4538 77.8221 67.5844 77.7627 67.7101C77.6947 67.8545 77.6296 67.9928 77.6479 68.1975C77.6069 68.2199 77.5507 68.2527 77.4944 68.2854C77.438 68.3182 77.3818 68.351 77.3408 68.3733C76.3121 68.4285 74.2293 68.6222 73.4003 68.7325C71.1259 69.015 68.9119 69.2123 66.6692 69.4122C65.5289 69.5138 64.3812 69.6162 63.2144 69.7308C61.8499 69.8524 60.4816 69.9884 59.1117 70.1245C54.9286 70.5404 50.7318 70.9574 46.5908 70.972C46.4939 70.8975 46.4342 70.7843 46.482 70.668C47.4048 70.224 48.2889 69.8485 49.1716 69.4745C53.203 67.5702 57.9992 66.0369 62.0396 64.7838C67.4933 63.1149 73.3124 61.522 79.0494 60.5535L79.0464 60.552ZM129.406 66.2752C129.597 66.2595 129.766 66.2457 129.88 66.2381C130.301 66.551 130.94 67.5911 130.958 67.9919L130.845 68.129C130.349 68.0983 129.784 67.9967 129.224 67.8958C128.75 67.8106 128.28 67.7258 127.856 67.6849C127.516 67.6164 127.174 67.5748 126.83 67.533H126.829C126.342 67.4738 125.853 67.4143 125.367 67.2781C125.241 67.2141 123.678 66.8758 123.528 66.8475C123.544 66.7995 123.878 66.7534 124.059 66.7283C124.114 66.7207 124.155 66.7151 124.169 66.7119C124.667 66.6736 125.185 66.6188 125.711 66.5631H125.712C126.519 66.4775 127.343 66.3904 128.138 66.3588C128.378 66.3568 128.833 66.3218 129.236 66.289C129.294 66.2844 129.35 66.2798 129.405 66.2753L129.406 66.2752ZM107.075 68.1781C107.566 68.0992 108.18 68.0247 108.671 68.0247C107.466 69.4149 105 68.2988 107.075 68.1781ZM116.066 50.6237C116.495 48.8311 116.856 47.1786 117.124 45.4189C117.112 45.3901 117.18 45.061 117.273 44.6126C117.513 43.4509 117.919 41.4893 117.519 41.8785C117.306 42.0857 117.123 42.4799 116.962 42.8266C116.897 42.9658 116.836 43.0972 116.778 43.2061C116.729 43.3313 116.652 43.455 116.604 43.4803C116.451 43.5713 116.196 44.0066 115.969 44.3933L115.969 44.3937C115.84 44.6139 115.72 44.8184 115.633 44.9346C115.171 45.6171 114.585 46.3397 113.923 47.0177C113.681 47.1308 113.372 47.4077 113.088 47.6625C112.889 47.8405 112.702 48.0077 112.559 48.101C111.606 48.6464 110.8 49.0681 109.544 49.0561C109.39 48.9925 109.096 48.8489 108.842 48.7256H108.842L108.842 48.7255C108.757 48.6841 108.677 48.645 108.608 48.6121C107.863 47.9684 107.278 47.0252 107.022 46.155C106.985 45.9121 106.844 45.5917 106.603 45.5724C106.549 45.6022 106.475 45.7191 106.401 45.8359C106.334 45.9408 106.268 46.0454 106.217 46.0864C106.15 46.1535 105.489 46.8777 105.44 47.0296C104.739 47.7717 103.678 48.3826 102.685 48.6791C102.486 48.7598 102.227 48.7273 101.993 48.6978C101.772 48.6274 101.452 48.51 101.338 48.4161C101.306 48.3965 101.276 48.379 101.248 48.3627C101.138 48.2983 101.052 48.2479 100.933 48.1292C100.579 47.9638 99.6555 46.5904 99.6433 46.4694C98.9903 47.28 97.8632 48.6419 96.9969 49.2975L96.9849 49.3065C96.241 49.8554 95.4155 50.4647 94.686 50.8293C94.5623 50.9664 92.9357 51.6608 92.3617 51.5043C92.2441 51.4469 92.0419 51.3498 91.8728 51.2684L91.8555 51.2601L91.7521 51.2102L91.6818 51.1765L91.4418 51.2108C91.1234 51.7709 90.8556 52.1768 90.5924 52.5757C90.1941 53.1796 89.8064 53.7673 89.2696 54.8495C89.0552 55.2174 88.9028 55.5478 88.7504 55.8777C88.6104 56.1812 88.4704 56.4844 88.2826 56.8164C88.2765 56.8268 88.2703 56.8368 88.2645 56.8465C88.259 56.8556 88.2536 56.8642 88.2486 56.8726C88.1824 56.981 88.1467 57.0392 88.2021 57.0995C89.4061 57.0432 90.5868 56.8997 91.765 56.7563C93.0511 56.6 94.3346 56.444 95.6432 56.4022C95.9382 56.3889 96.233 56.3756 96.5276 56.3624C102.435 56.0961 108.293 55.8319 114.533 56.5899C114.722 56.3977 114.868 56.0684 114.888 55.8061C114.875 55.7491 114.893 55.7313 114.913 55.7102C114.937 55.6859 114.965 55.6571 114.958 55.5603C114.94 55.3368 114.991 55.2076 115.034 55.0988C115.077 54.9894 115.112 54.9006 115.061 54.7571C115.177 54.7699 115.191 54.6688 115.229 54.3831C115.239 54.3068 115.251 54.2173 115.267 54.1134C115.596 52.8528 115.838 51.8366 116.066 50.6237Z" fill="#007AFF"/>
<path d="M83.288 28.4367L83.203 28.6497C83.042 28.982 82.9362 29.1742 82.6052 29.6213C82.222 30.1388 82.0088 30.6673 81.6271 31.2603C81.5004 31.457 81.3051 31.8132 81.1918 32.0516C80.9846 32.4852 80.7371 33.4773 80.7371 33.6087C80.6916 34.2396 80.9485 35.0073 81.4766 35.1703C81.6775 35.2092 82.0196 35.1604 82.3383 34.9721C82.4322 34.7247 82.5202 34.3463 82.6633 33.9916C82.6782 33.8933 83.3283 32.6506 83.3894 32.5507C83.3894 32.5507 83.7129 31.9622 84.1185 31.5777C84.4822 31.2022 84.9101 30.9146 85.0965 30.3216C85.2559 29.8147 85.2113 29.3545 85.098 28.9612C85.0577 28.8196 84.9608 28.6289 84.8848 28.5395C84.8409 28.47 84.8113 28.4337 84.7446 28.3756C84.6655 28.3254 84.623 28.2973 84.4584 28.237C84.3193 28.1804 84.2499 28.1638 84.1304 28.1431C84.0023 28.1096 83.948 28.1157 83.8486 28.1223C83.7114 28.1223 83.5937 28.1729 83.5191 28.2072C83.4089 28.2671 83.3569 28.3148 83.288 28.4367ZM94.3058 26.6545C94.1274 26.7906 94.0548 26.8751 93.9465 27.033C93.8624 27.1692 93.8034 27.3716 93.7945 27.483C93.7766 27.7155 93.6275 28.237 93.6036 28.3368C93.5529 28.535 93.3293 29.0565 93.2741 29.2502C93.2741 29.2502 93.1057 29.6526 93.0401 29.8552C92.9838 30.0289 92.6375 30.6971 92.6375 30.6971C92.7165 30.5287 92.5779 30.8237 92.6375 30.6971C92.1425 31.7476 92.0173 32.0322 91.9919 32.1723C91.9605 32.3463 91.8658 32.7689 91.8697 32.892C91.849 33.1871 91.8572 33.3335 91.9726 33.4969C92.0739 33.713 92.5093 33.6757 92.8477 33.634C92.9685 33.634 93.1668 33.5103 93.4843 33.2347C93.6901 33.0574 93.7557 32.9799 94.1746 32.4151L94.1895 32.3943C94.3297 32.2065 94.6428 31.6656 94.6711 31.6641L95.4166 30.5913C95.6223 30.2367 96.0383 29.359 96.1158 29.1176C96.1808 29.0522 96.3746 28.262 96.3484 28.2191C96.3734 28.0719 96.3642 27.9741 96.3305 27.79L96.2217 27.4473C96.1134 27.1531 96.052 27.063 95.9429 26.9362C95.8187 26.7606 95.4717 26.514 95.3823 26.4877C95.3906 26.4774 95.0395 26.412 94.9529 26.4251C94.6994 26.4345 94.5576 26.4611 94.3058 26.6545Z" fill="#007AFF"/>
<path fill-rule="evenodd" clip-rule="evenodd" d="M48.4681 35.9806C49.1197 35.0806 49.9069 32.6399 51.1756 32.242C52.2923 32.1243 52.6785 33.2329 52.5473 34.1687C51.3739 35.8972 49.631 38.1233 48.7738 40.0694C48.1655 41.3404 47.8017 43.1478 46.5955 44.0493C43.3558 45.3993 47.8091 36.9819 48.4681 35.9806ZM58.4841 32.8425C63.6128 32.3419 56.9499 43.6604 54.6301 43.4354C54.1798 41.1899 56.8664 38.7372 57.184 36.3621C57.6253 35.2892 56.9767 33.3685 58.4841 32.8425Z" fill="#007AFF"/>
</svg>
