<svg width="42" height="42" viewBox="0 0 42 42" fill="none" xmlns="http://www.w3.org/2000/svg">
<path d="M16.9717 13.7188C16.8398 13.7188 16.7666 13.6309 16.7373 13.499C16.2393 11.2432 16.2393 11.082 13.8516 10.5986C13.7051 10.5693 13.6172 10.4814 13.6172 10.3643C13.6172 10.2324 13.7051 10.1592 13.8516 10.1299C16.2393 9.64648 16.2393 9.4707 16.7373 7.22949C16.7666 7.09766 16.8398 7.00977 16.9717 7.00977C17.1035 7.00977 17.1768 7.09766 17.2061 7.22949C17.7041 9.4707 17.7188 9.64648 20.1064 10.1299C20.2383 10.1592 20.3262 10.2324 20.3262 10.3643C20.3262 10.4961 20.2383 10.5693 20.1064 10.5986C17.7188 11.082 17.7041 11.2432 17.2061 13.499C17.1768 13.6309 17.1035 13.7188 16.9717 13.7188ZM28.7783 18.6992C28.6318 18.6992 28.5293 18.5967 28.5 18.4355C27.9727 15.8281 27.9434 15.5938 25.1455 15.0811C24.9844 15.0518 24.8818 14.9639 24.8818 14.8027C24.8818 14.6416 24.9844 14.5391 25.1455 14.5098C27.9434 14.0117 27.9727 13.7627 28.5 11.1553C28.5293 11.0088 28.6318 10.9062 28.7783 10.9062C28.9395 10.9062 29.0273 11.0088 29.0566 11.1553C29.584 13.7627 29.6279 14.0117 32.4111 14.5098C32.5723 14.5391 32.6748 14.6416 32.6748 14.8027C32.6748 14.9639 32.5723 15.0518 32.4111 15.0811C29.6279 15.5938 29.584 15.8281 29.0566 18.4355C29.0273 18.5967 28.9395 18.6992 28.7783 18.6992ZM9.14941 22.8154C8.98828 22.8154 8.90039 22.7129 8.87109 22.5518C8.34375 19.9443 8.31445 19.71 5.5166 19.1973C5.35547 19.168 5.25293 19.0801 5.25293 18.9189C5.25293 18.7578 5.35547 18.6553 5.5166 18.626C8.31445 18.1279 8.34375 17.8936 8.87109 15.2715C8.90039 15.125 8.98828 15.0225 9.14941 15.0225C9.2959 15.0225 9.39844 15.125 9.42773 15.2715C9.95508 17.8936 9.98438 18.1279 12.7822 18.626C12.9434 18.6553 13.0459 18.7578 13.0459 18.9189C13.0459 19.0801 12.9434 19.168 12.7822 19.1973C9.98438 19.71 9.95508 19.9443 9.42773 22.5518C9.39844 22.7129 9.2959 22.8154 9.14941 22.8154ZM34.4766 35.75L20.458 21.6729C19.9453 21.1455 19.9307 20.3252 20.458 19.7832C20.9414 19.2705 21.8203 19.2559 22.333 19.7832L36.3662 33.8604C36.8789 34.4023 36.8789 35.208 36.3662 35.75C35.8682 36.2773 35.0039 36.292 34.4766 35.75ZM16.1074 35.4131C15.8877 35.4131 15.7412 35.2666 15.7119 35.0615C15.1406 31.1357 15.082 31.1797 11.0391 30.4033C10.8486 30.3594 10.6875 30.2275 10.6875 30.0078C10.6875 29.7881 10.8486 29.6416 11.0391 29.6123C15.082 28.9678 15.1553 28.9238 15.7119 24.9688C15.7412 24.749 15.8877 24.6025 16.1074 24.6025C16.3125 24.6025 16.459 24.749 16.4883 24.9834C17.0303 28.8945 17.1475 28.8359 21.1611 29.6123C21.3516 29.6562 21.5127 29.7881 21.5127 30.0078C21.5127 30.2422 21.3516 30.3594 21.1172 30.4033C17.1328 31.0918 17.0303 31.1211 16.4883 35.0322C16.459 35.2666 16.3125 35.4131 16.1074 35.4131ZM34.916 34.9004C35.165 35.1494 35.3994 35.1934 35.6191 34.9883C35.8389 34.7539 35.7803 34.5195 35.5459 34.2852L26.3467 25.0713L25.7168 25.7012L34.916 34.9004Z" fill="black"/>
</svg>
