<svg width="42" height="42" viewBox="0 0 42 42" fill="none" xmlns="http://www.w3.org/2000/svg">
<path d="M11.3906 12.957C11.3906 8.09375 15.624 4.10938 21 4.10938C26.3613 4.10938 30.5947 8.09375 30.5947 12.957C30.5947 18.3184 27.2842 19.8271 26.376 29.8467C26.332 30.3301 26.0684 30.623 25.5117 30.623H16.4736C15.917 30.623 15.6533 30.3301 15.6094 29.8467C14.7158 19.8271 11.3906 18.3184 11.3906 12.957ZM13.1045 12.957C13.1045 17.2197 16.0195 18.4648 17.2061 28.9092H24.7939C25.9805 18.4648 28.8809 17.2197 28.8809 12.957C28.8809 8.91406 25.2773 5.82324 21 5.82324C16.708 5.82324 13.1045 8.91406 13.1045 12.957ZM16.4883 33.5381C16.0635 33.5381 15.7412 33.2158 15.7412 32.791C15.7412 32.3662 16.0635 32.0293 16.4883 32.0293H25.4971C25.9219 32.0293 26.2588 32.3662 26.2588 32.791C26.2588 33.2158 25.9219 33.5381 25.4971 33.5381H16.4883ZM21 37.6543C18.7295 37.6543 16.9424 36.585 16.8398 34.9443H25.1602C25.0283 36.585 23.2559 37.6543 21 37.6543Z" fill="black"/>
</svg>
