<svg width="42" height="42" viewBox="0 0 42 42" fill="none" xmlns="http://www.w3.org/2000/svg">
<path d="M6.10254 18.1279C6.10254 11.0674 10.8486 5.76465 18.2314 5.76465C21.4395 5.76465 24.6621 6.79004 27.4453 8.5332L26.2295 9.74902C23.7832 8.26953 20.9854 7.39062 18.1875 7.39062C11.6982 7.39062 7.72852 12.0049 7.72852 18.0693C7.72852 26.1992 14.5107 33.7285 23.915 34.7246C24.4424 34.7832 24.7061 35.1641 24.7061 35.5449C24.7061 35.9551 24.3838 36.3799 23.7393 36.3213C14.9795 35.7207 6.10254 28.1621 6.10254 18.1279ZM33.1143 9.9248L31.1807 7.97656L32.2939 6.86328C32.8066 6.33594 33.5098 6.33594 34.0078 6.79004L34.2715 7.03906C34.8135 7.56641 34.7988 8.26953 34.2422 8.81152L33.1143 9.9248ZM18.9053 24.1191L16.0928 25.3643C15.8291 25.4668 15.5361 25.1885 15.668 24.9248L16.9717 22.1709L30.1699 9.00195L32.1035 10.9355L18.9053 24.1191ZM35.8975 22.6836C35.8975 27.8252 32.3672 31.1797 27.5039 31.1797C24.1348 31.1797 20.4873 29.5684 17.792 27.0195L19.5352 26.2578C21.8936 28.3525 24.8086 29.6416 27.4893 29.6416C31.2393 29.6416 34.3301 27.0049 34.3301 22.6982C34.3301 19.8271 33.29 17.0293 31.5762 14.6416L32.7627 13.4697C34.7109 16.1211 35.8975 19.3145 35.8975 22.6836Z" fill="black"/>
</svg>
