<svg width="42" height="42" viewBox="0 0 42 42" fill="none" xmlns="http://www.w3.org/2000/svg">
<path d="M29.9941 34.6953C25.3359 36.3799 21.1318 35.0615 17.6602 30.8428L12.6211 24.7344C12.3281 24.3682 12.0645 23.8994 11.9326 23.5332C11.4199 22.127 12.2109 20.9111 13.4561 20.457C14.3789 20.1348 15.3604 20.3838 16.1807 21.2773L18.4219 23.7676C18.4805 23.8262 18.5391 23.8408 18.583 23.8262C18.6562 23.7969 18.6709 23.7383 18.6416 23.665L14.2764 11.6533C13.6904 10.042 14.3936 8.60645 15.873 8.0791C17.3086 7.55176 18.7734 8.19629 19.3594 9.80762L21.0879 14.5537C21.4102 14.3193 21.7471 14.1143 22.084 13.9971C23.2559 13.5723 24.3545 13.9238 25.043 14.8467C25.4092 14.5537 25.79 14.334 26.2148 14.1729C27.3428 13.7627 28.3682 14.085 29.0127 14.9492C31.4883 14.085 33.5391 15.3594 34.6963 18.5234L35.707 21.3359C38.0361 27.708 35.4727 32.6885 29.9941 34.6953ZM29.4961 33.2012C34.2422 31.4727 36.2637 27.3271 34.2129 21.7168L33.3193 19.2266C32.4551 16.8535 31.1953 15.8281 29.7891 16.3408L30.4043 18.0107C30.5654 18.4795 30.3311 18.8604 29.9795 18.9922C29.5986 19.1387 29.1738 18.9922 28.998 18.5234L28.2803 16.5312C27.9727 15.6816 27.3281 15.3447 26.5371 15.623C26.2441 15.7402 25.9072 15.9453 25.6729 16.165L26.625 18.7871C26.7861 19.2559 26.5664 19.6367 26.2002 19.7686C25.834 19.915 25.3945 19.7686 25.2334 19.2998L24.1641 16.3555C23.8418 15.5059 23.1973 15.1543 22.4209 15.4473C22.1133 15.5498 21.791 15.7695 21.542 15.9893L22.8604 19.5781C23.0068 19.9736 22.8311 20.3984 22.4355 20.5449C22.0254 20.6914 21.6006 20.4863 21.4688 20.0908L17.8799 10.2471C17.6309 9.54395 17.0303 9.22168 16.3711 9.45605C15.7119 9.70508 15.4336 10.3496 15.6973 11.0527L20.751 24.9248C20.9561 25.5107 20.707 26.0381 20.1943 26.2285C19.7402 26.3896 19.3008 26.3311 18.8174 25.833L15.4629 22.2588C15.0381 21.79 14.584 21.5996 14.0859 21.7754C13.4707 22.0098 13.2217 22.6104 13.4121 23.1523C13.5146 23.416 13.6172 23.5918 13.7783 23.7822L18.8174 29.8906C21.9961 33.7285 25.6289 34.6074 29.4961 33.2012ZM12.2549 11.0527L12.7676 12.5029C9.20801 14.7881 6.9668 18.875 6.87891 24.0166C6.86426 24.4414 6.57129 24.7637 6.16113 24.7783C5.78027 24.7783 5.41406 24.4121 5.41406 23.9873C5.41406 18.2891 8.09473 13.6016 12.2549 11.0527Z" fill="black"/>
</svg>
