<svg width="42" height="42" viewBox="0 0 42 42" fill="none" xmlns="http://www.w3.org/2000/svg">
<path d="M21 35.0615C20.6045 35.0615 20.2236 35.0615 19.8574 35.0176L19.1104 36.4385C18.9492 36.7461 18.6709 36.9072 18.29 36.834C17.8945 36.7754 17.7041 36.541 17.6455 36.1602L17.3965 34.5928C16.6787 34.4023 15.9609 34.124 15.2578 33.8164L14.1006 34.8564C13.8369 35.0908 13.5146 35.1641 13.1484 34.9736C12.8408 34.7979 12.7236 34.4902 12.7969 34.1094L13.1191 32.5713C12.5039 32.1465 11.918 31.6484 11.376 31.1211L9.94043 31.707C9.58887 31.8682 9.28125 31.7949 8.98828 31.4727C8.75391 31.1943 8.75391 30.8721 8.94434 30.5498L9.76465 29.2021C9.35449 28.5869 8.97363 27.9277 8.63672 27.2393L7.05469 27.2979C6.68848 27.3271 6.39551 27.1514 6.29297 26.7852C6.16113 26.4189 6.27832 26.1113 6.55664 25.8916L7.78711 24.9102C7.59668 24.1777 7.46484 23.4307 7.4209 22.6689L5.91211 22.1709C5.53125 22.0537 5.35547 21.8047 5.35547 21.4238C5.35547 21.043 5.53125 20.7939 5.91211 20.6621L7.4209 20.1934C7.46484 19.417 7.59668 18.6699 7.78711 17.9375L6.55664 16.9561C6.26367 16.7217 6.16113 16.4434 6.29297 16.0771C6.41016 15.7109 6.68848 15.5352 7.05469 15.5645L8.63672 15.6084C8.97363 14.9053 9.35449 14.2754 9.76465 13.6455L8.92969 12.2832C8.73926 11.9902 8.75391 11.668 8.98828 11.3896C9.28125 11.0527 9.58887 10.9941 9.94043 11.1553L11.376 11.7266C11.918 11.2139 12.5039 10.7158 13.1191 10.2764L12.7969 8.75293C12.7236 8.34277 12.8408 8.0498 13.1484 7.88867C13.5146 7.69824 13.8223 7.74219 14.1006 8.00586L15.2578 9.0166C15.9609 8.70898 16.6787 8.45996 17.3965 8.25488L17.6455 6.70215C17.7041 6.32129 17.8945 6.08691 18.2754 6.02832C18.6709 5.95508 18.9492 6.11621 19.1104 6.40918L19.8574 7.83008C20.2383 7.80078 20.6045 7.77148 21 7.77148C21.3662 7.77148 21.7617 7.80078 22.1279 7.83008L22.875 6.40918C23.0361 6.11621 23.3145 5.95508 23.6953 6.02832C24.0908 6.08691 24.2959 6.32129 24.3398 6.70215L24.5889 8.26953C25.3066 8.45996 26.0244 8.72363 26.7129 9.0166L27.8848 7.99121C28.1631 7.74219 28.4707 7.69824 28.8369 7.88867C29.1445 8.0498 29.2764 8.34277 29.1885 8.75293L28.8809 10.2764C29.4814 10.7158 30.082 11.2139 30.6094 11.7266L32.0596 11.1553C32.3965 10.9941 32.7041 11.0527 32.9971 11.3896C33.2314 11.668 33.2314 11.9902 33.041 12.2979L32.2207 13.6455C32.6455 14.2754 33.0117 14.9053 33.3486 15.6084L34.9307 15.5645C35.2969 15.5352 35.5898 15.7109 35.6924 16.0771C35.8242 16.4434 35.6924 16.7363 35.4287 16.9561L34.1982 17.9375C34.3887 18.6699 34.5205 19.417 34.5791 20.1934L36.0586 20.6621C36.4541 20.7939 36.6445 21.043 36.6445 21.4238C36.6445 21.8047 36.4541 22.0537 36.0586 22.1709L34.5791 22.6543C34.5205 23.4307 34.3887 24.1777 34.1982 24.9102L35.4287 25.8916C35.707 26.126 35.8242 26.4336 35.6924 26.7852C35.5898 27.1514 35.2969 27.3271 34.9307 27.2979L33.3486 27.2393C33.0264 27.9277 32.6455 28.5869 32.2207 29.2021L33.041 30.5498C33.2461 30.8721 33.2461 31.1943 32.9971 31.4727C32.7041 31.7949 32.3965 31.8682 32.0449 31.707L30.6094 31.1211C30.082 31.6484 29.4814 32.1465 28.8809 32.5713L29.1885 34.1094C29.2764 34.4902 29.1445 34.7979 28.8369 34.9736C28.4707 35.1641 28.1484 35.0908 27.8848 34.8564L26.7129 33.8164C26.0244 34.124 25.3066 34.4023 24.5889 34.5928L24.3398 36.1602C24.2959 36.541 24.0908 36.7754 23.71 36.834C23.3145 36.9072 23.0361 36.7461 22.875 36.4385L22.1279 35.0176C21.7617 35.0615 21.3662 35.0615 21 35.0615ZM20.9854 17.9082C22.626 17.9082 24.0176 19.0508 24.3984 20.5742H32.6602C32.2354 14.3779 27.2988 9.58789 21 9.58789C19.0811 9.58789 17.2939 10.0273 15.7119 10.8184L19.9307 18.0693C20.2676 17.9668 20.6191 17.9082 20.9854 17.9082ZM9.3252 21.4385C9.3252 25.4961 11.2588 29.0264 14.2617 31.1504L18.5977 24.0166C17.8945 23.3867 17.4697 22.4639 17.4697 21.4385C17.4697 20.4424 17.8799 19.5342 18.5537 18.8896L14.3203 11.6533C11.2734 13.7773 9.3252 17.3369 9.3252 21.4385ZM20.9854 23.2402C22.0107 23.2402 22.8018 22.4785 22.8018 21.4385C22.8018 20.4131 22.0107 19.6221 20.9854 19.6221C19.96 19.6221 19.1689 20.4131 19.1689 21.4385C19.1689 22.4785 19.96 23.2402 20.9854 23.2402ZM21 33.2598C27.3281 33.2598 32.2939 28.4111 32.6602 22.1709H24.4277C24.0908 23.7676 22.6699 24.9541 20.9854 24.9541C20.6484 24.9541 20.3115 24.8955 20.0039 24.8076L15.668 32C17.25 32.8057 19.0518 33.2598 21 33.2598Z" fill="black"/>
</svg>
