<svg width="42" height="42" viewBox="0 0 42 42" fill="none" xmlns="http://www.w3.org/2000/svg">
<path d="M6.87891 18.5527C6.87891 12.2832 11.9766 7.18555 18.2461 7.18555C24.5156 7.18555 29.6133 12.2832 29.6133 18.5527C29.6133 21.2334 28.6758 23.6943 27.1084 25.6426L34.7109 33.2598C34.96 33.5234 35.1064 33.875 35.1064 34.2559C35.1064 35.0322 34.5498 35.6768 33.7002 35.6768C33.334 35.6768 32.9678 35.5303 32.7041 35.2666L25.0723 27.6201C23.168 29.0557 20.8242 29.9199 18.2461 29.9199C11.9766 29.9199 6.87891 24.8223 6.87891 18.5527ZM8.7832 18.5527C8.7832 23.7676 13.0312 28.0156 18.2461 28.0156C23.4609 28.0156 27.709 23.7676 27.709 18.5527C27.709 13.3379 23.4609 9.08984 18.2461 9.08984C13.0312 9.08984 8.7832 13.3379 8.7832 18.5527Z" fill="black"/>
</svg>
