<svg width="80" height="80" viewBox="0 0 80 80" fill="none" xmlns="http://www.w3.org/2000/svg">
<rect width="80" height="80" rx="16" fill="white"/>
<path d="M53.2715 55.4014H46.2168C45.6625 55.4014 45.209 54.9479 45.209 54.3936V51.0342C45.209 50.4799 45.6625 50.0264 46.2168 50.0264H53.2715C54.758 50.0264 55.959 48.8254 55.959 47.3389V31.2139C55.959 29.7273 54.758 28.5264 53.2715 28.5264H46.2168C45.6625 28.5264 45.209 28.0729 45.209 27.5186V24.1592C45.209 23.6049 45.6625 23.1514 46.2168 23.1514H53.2715C57.7227 23.1514 61.334 26.7627 61.334 31.2139V47.3389C61.334 51.79 57.7227 55.4014 53.2715 55.4014ZM49.3242 38.5205L35.2148 24.4111C33.9551 23.1514 31.7715 24.0332 31.7715 25.8389V33.9014H20.3496C19.2326 33.9014 18.334 34.8 18.334 35.917V43.9795C18.334 45.0965 19.2326 45.9951 20.3496 45.9951H31.7715V54.0576C31.7715 55.8633 33.9551 56.7451 35.2148 55.4854L49.3242 41.376C50.1053 40.5865 50.1053 39.31 49.3242 38.5205Z" fill="#01212F"/>
<path d="M53.2715 55.4014H46.2168C45.6625 55.4014 45.209 54.9479 45.209 54.3936V51.0342C45.209 50.4799 45.6625 50.0264 46.2168 50.0264H53.2715C54.758 50.0264 55.959 48.8254 55.959 47.3389V31.2139C55.959 29.7273 54.758 28.5264 53.2715 28.5264H46.2168C45.6625 28.5264 45.209 28.0729 45.209 27.5186V24.1592C45.209 23.6049 45.6625 23.1514 46.2168 23.1514H53.2715C57.7227 23.1514 61.334 26.7627 61.334 31.2139V47.3389C61.334 51.79 57.7227 55.4014 53.2715 55.4014Z" fill="#5AC8FA"/>
</svg>
