<svg width="80" height="80" viewBox="0 0 80 80" fill="none" xmlns="http://www.w3.org/2000/svg">
<rect width="80" height="80" rx="16" fill="white"/>
<path d="M60.4636 25.556C61.1287 25.556 61.6673 25.0174 61.6673 24.3523V21.9449C61.6673 21.2799 61.1287 20.7412 60.4636 20.7412H19.5377C18.8726 20.7412 18.334 21.2799 18.334 21.9449V24.3523C18.334 25.0174 18.8726 25.556 19.5377 25.556H20.7399V54.4449H19.5377C18.8726 54.4449 18.334 54.9836 18.334 55.6486V58.056C18.334 58.7211 18.8726 59.2597 19.5377 59.2597H37.5932V53.2412C37.5932 52.5792 38.1349 52.0375 38.7969 52.0375H41.2044C41.8664 52.0375 42.4081 52.5792 42.4081 53.2412V59.2597H60.4636C61.1287 59.2597 61.6673 58.7211 61.6673 58.056V55.6486C61.6673 54.9836 61.1287 54.4449 60.4636 54.4449H59.2599V25.556H60.4636ZM37.5932 28.9264C37.5932 28.4449 38.0747 27.9634 38.5562 27.9634H41.4451C41.9266 27.9634 42.4081 28.4449 42.4081 28.9264V31.8153C42.4081 32.2968 41.9266 32.7782 41.4451 32.7782H38.5562C38.0747 32.7782 37.5932 32.2968 37.5932 31.8153V28.9264V28.9264ZM37.5932 36.1486C37.5932 35.6671 38.0747 35.1857 38.5562 35.1857H41.4451C41.9266 35.1857 42.4081 35.6671 42.4081 36.1486V39.0375C42.4081 39.519 41.9266 40.0005 41.4451 40.0005H38.5562C38.0747 40.0005 37.5932 39.519 37.5932 39.0375V36.1486V36.1486ZM27.9636 28.9264C27.9636 28.4449 28.4451 27.9634 28.9266 27.9634H31.8155C32.2969 27.9634 32.7784 28.4449 32.7784 28.9264V31.8153C32.7784 32.2968 32.2969 32.7782 31.8155 32.7782H28.9266C28.4451 32.7782 27.9636 32.2968 27.9636 31.8153V28.9264ZM31.8155 40.0005H28.9266C28.4451 40.0005 27.9636 39.519 27.9636 39.0375V36.1486C27.9636 35.6671 28.4451 35.1857 28.9266 35.1857H31.8155C32.2969 35.1857 32.7784 35.6671 32.7784 36.1486V39.0375C32.7784 39.519 32.2969 40.0005 31.8155 40.0005ZM32.7784 49.6301C32.7784 45.6413 36.0119 42.4079 40.0007 42.4079C43.9894 42.4079 47.2229 45.6413 47.2229 49.6301H32.7784ZM52.0377 39.0375C52.0377 39.519 51.5562 40.0005 51.0747 40.0005H48.1858C47.7044 40.0005 47.2229 39.519 47.2229 39.0375V36.1486C47.2229 35.6671 47.7044 35.1857 48.1858 35.1857H51.0747C51.5562 35.1857 52.0377 35.6671 52.0377 36.1486V39.0375ZM52.0377 31.8153C52.0377 32.2968 51.5562 32.7782 51.0747 32.7782H48.1858C47.7044 32.7782 47.2229 32.2968 47.2229 31.8153V28.9264C47.2229 28.4449 47.7044 27.9634 48.1858 27.9634H51.0747C51.5562 27.9634 52.0377 28.4449 52.0377 28.9264V31.8153Z" fill="#01212F"/>
<path fill-rule="evenodd" clip-rule="evenodd" d="M38.5562 27.9634C38.0747 27.9634 37.5932 28.4449 37.5932 28.9264V31.8153C37.5932 32.2968 38.0747 32.7782 38.5562 32.7782H41.4451C41.9266 32.7782 42.4081 32.2968 42.4081 31.8153V28.9264C42.4081 28.4449 41.9266 27.9634 41.4451 27.9634H38.5562ZM38.5562 35.1857C38.0747 35.1857 37.5932 35.6671 37.5932 36.1486V39.0375C37.5932 39.519 38.0747 40.0005 38.5562 40.0005H41.4451C41.9266 40.0005 42.4081 39.519 42.4081 39.0375V36.1486C42.4081 35.6671 41.9266 35.1857 41.4451 35.1857H38.5562ZM40.0007 42.4079C36.0119 42.4079 32.7784 45.6413 32.7784 49.6301H47.2229C47.2229 45.6413 43.9894 42.4079 40.0007 42.4079ZM51.0747 40.0005C51.5562 40.0005 52.0377 39.519 52.0377 39.0375V36.1486C52.0377 35.6671 51.5562 35.1857 51.0747 35.1857H48.1858C47.7044 35.1857 47.2229 35.6671 47.2229 36.1486V39.0375C47.2229 39.519 47.7044 40.0005 48.1858 40.0005H51.0747ZM51.0747 32.7782C51.5562 32.7782 52.0377 32.2968 52.0377 31.8153V28.9264C52.0377 28.4449 51.5562 27.9634 51.0747 27.9634H48.1858C47.7044 27.9634 47.2229 28.4449 47.2229 28.9264V31.8153C47.2229 32.2968 47.7044 32.7782 48.1858 32.7782H51.0747Z" fill="#5AC8FA"/>
<path d="M27.9636 28.9264C27.9636 28.4449 28.4451 27.9634 28.9266 27.9634H31.8155C32.2969 27.9634 32.7784 28.4449 32.7784 28.9264V31.8153C32.7784 32.2968 32.2969 32.7782 31.8155 32.7782H28.9266C28.4451 32.7782 27.9636 32.2968 27.9636 31.8153V28.9264Z" fill="#5AC8FA"/>
<path d="M31.8155 40.0005H28.9266C28.4451 40.0005 27.9636 39.519 27.9636 39.0375V36.1486C27.9636 35.6671 28.4451 35.1857 28.9266 35.1857H31.8155C32.2969 35.1857 32.7784 35.6671 32.7784 36.1486V39.0375C32.7784 39.519 32.2969 40.0005 31.8155 40.0005Z" fill="#5AC8FA"/>
<path d="M37.5932 53.2412V59.2597H42.4081V53.2412C42.4081 52.5792 41.8664 52.0375 41.2044 52.0375H38.7969C38.1349 52.0375 37.5932 52.5792 37.5932 53.2412Z" fill="#5AC8FA"/>
</svg>
