<svg width="400" height="350" viewBox="0 0 400 350" fill="none" xmlns="http://www.w3.org/2000/svg">
<mask id="path-1-inside-1_1009_3441" fill="white">
<path d="M0 0H400V350H0V0Z"/>
</mask>
<path d="M0 0H400V350H0V0Z" fill="white"/>
<path d="M0 350H2V0H0H-2V350H0Z" fill="black" fill-opacity="0.14" mask="url(#path-1-inside-1_1009_3441)"/>
<path d="M36.293 312V297.633H31.0898V295.09H44.5312V297.633H39.3164V312H36.293ZM45.8906 312V299.191H48.8086V301.16H49.0078C49.4414 299.789 50.6133 298.98 52.3008 298.98C52.7461 298.98 53.2031 299.039 53.4844 299.121V301.734C53.0156 301.641 52.5352 301.57 52.0312 301.57C50.0859 301.57 48.8086 302.73 48.8086 304.559V312H45.8906ZM59.2031 312.211C56.7656 312.211 54.9961 310.711 54.9961 308.379V308.355C54.9961 306.07 56.7422 304.734 59.8594 304.547L63.1523 304.348V303.246C63.1523 301.969 62.3203 301.266 60.75 301.266C59.4141 301.266 58.5469 301.746 58.2539 302.59L58.2422 302.637H55.4883L55.5 302.531C55.7812 300.375 57.8438 298.945 60.8906 298.945C64.1836 298.945 66.0352 300.539 66.0352 303.246V312H63.1523V310.242H62.9531C62.25 311.484 60.8906 312.211 59.2031 312.211ZM57.8789 308.238C57.8789 309.328 58.8047 309.973 60.0938 309.973C61.8516 309.973 63.1523 308.824 63.1523 307.301V306.27L60.2695 306.457C58.6406 306.562 57.8789 307.16 57.8789 308.215V308.238ZM72.5859 312L68.0273 299.191H71.1445L74.1094 309.152H74.3086L77.25 299.191H80.3203L75.7852 312H72.5859ZM87.75 312.258C83.9414 312.258 81.6328 309.703 81.6328 305.625V305.613C81.6328 301.582 83.9648 298.945 87.6094 298.945C91.2539 298.945 93.5039 301.5 93.5039 305.367V306.328H84.5508C84.5859 308.625 85.8281 309.961 87.8086 309.961C89.3906 309.961 90.293 309.164 90.5742 308.578L90.6094 308.496H93.3867L93.3516 308.602C92.9414 310.254 91.2305 312.258 87.75 312.258ZM87.6445 301.23C86.0156 301.23 84.7969 302.332 84.5742 304.371H90.6562C90.457 302.273 89.2734 301.23 87.6445 301.23ZM96.5391 312V294.234H99.457V312H96.5391ZM108.598 312L114.598 295.09H118.008L124.008 312H120.844L119.426 307.629H113.168L111.762 312H108.598ZM116.203 298.23L113.93 305.297H118.676L116.402 298.23H116.203ZM126.609 316.254V299.191H129.527V301.195H129.727C130.43 299.801 131.824 298.98 133.617 298.98C136.828 298.98 138.879 301.535 138.879 305.59V305.613C138.879 309.691 136.863 312.211 133.617 312.211C131.859 312.211 130.395 311.344 129.727 309.961H129.527V316.254H126.609ZM132.703 309.75C134.695 309.75 135.902 308.18 135.902 305.613V305.59C135.902 303.012 134.695 301.441 132.703 301.441C130.723 301.441 129.492 303.012 129.492 305.578V305.602C129.492 308.168 130.723 309.75 132.703 309.75ZM141.82 316.254V299.191H144.738V301.195H144.938C145.641 299.801 147.035 298.98 148.828 298.98C152.039 298.98 154.09 301.535 154.09 305.59V305.613C154.09 309.691 152.074 312.211 148.828 312.211C147.07 312.211 145.605 311.344 144.938 309.961H144.738V316.254H141.82ZM147.914 309.75C149.906 309.75 151.113 308.18 151.113 305.613V305.59C151.113 303.012 149.906 301.441 147.914 301.441C145.934 301.441 144.703 303.012 144.703 305.578V305.602C144.703 308.168 145.934 309.75 147.914 309.75ZM157.148 312V294.234H160.066V312H157.148ZM165.258 297.047C164.297 297.047 163.512 296.285 163.512 295.324C163.512 294.375 164.297 293.602 165.258 293.602C166.207 293.602 166.992 294.375 166.992 295.324C166.992 296.285 166.207 297.047 165.258 297.047ZM163.793 312V299.191H166.711V312H163.793ZM175.793 312.258C171.938 312.258 169.664 309.762 169.664 305.578V305.555C169.664 301.418 171.926 298.945 175.781 298.945C179.074 298.945 181.043 300.773 181.371 303.422V303.469H178.617L178.605 303.434C178.336 302.191 177.387 301.301 175.793 301.301C173.801 301.301 172.629 302.871 172.629 305.555V305.578C172.629 308.297 173.812 309.891 175.793 309.891C177.305 309.891 178.23 309.199 178.594 307.852L178.617 307.805L181.371 307.793L181.348 307.887C180.926 310.512 179.039 312.258 175.793 312.258ZM187.641 312.211C185.203 312.211 183.434 310.711 183.434 308.379V308.355C183.434 306.07 185.18 304.734 188.297 304.547L191.59 304.348V303.246C191.59 301.969 190.758 301.266 189.188 301.266C187.852 301.266 186.984 301.746 186.691 302.59L186.68 302.637H183.926L183.938 302.531C184.219 300.375 186.281 298.945 189.328 298.945C192.621 298.945 194.473 300.539 194.473 303.246V312H191.59V310.242H191.391C190.688 311.484 189.328 312.211 187.641 312.211ZM186.316 308.238C186.316 309.328 187.242 309.973 188.531 309.973C190.289 309.973 191.59 308.824 191.59 307.301V306.27L188.707 306.457C187.078 306.562 186.316 307.16 186.316 308.215V308.238ZM203.016 312.059C200.074 312.059 198.867 311.074 198.867 308.602V301.453H196.875V299.191H198.867V296.051H201.832V299.191H204.539V301.453H201.832V307.91C201.832 309.188 202.336 309.727 203.555 309.727C203.965 309.727 204.188 309.715 204.539 309.68V311.93C204.117 312.012 203.578 312.059 203.016 312.059ZM208.945 297.047C207.984 297.047 207.199 296.285 207.199 295.324C207.199 294.375 207.984 293.602 208.945 293.602C209.895 293.602 210.68 294.375 210.68 295.324C210.68 296.285 209.895 297.047 208.945 297.047ZM207.48 312V299.191H210.398V312H207.48ZM219.516 312.258C215.672 312.258 213.352 309.75 213.352 305.602V305.578C213.352 301.465 215.707 298.945 219.516 298.945C223.336 298.945 225.68 301.453 225.68 305.578V305.602C225.68 309.75 223.348 312.258 219.516 312.258ZM219.516 309.891C221.543 309.891 222.691 308.309 222.691 305.613V305.59C222.691 302.895 221.531 301.301 219.516 301.301C217.488 301.301 216.328 302.895 216.328 305.59V305.613C216.328 308.309 217.488 309.891 219.516 309.891ZM228.609 312V299.191H231.527V301.148H231.727C232.336 299.777 233.566 298.945 235.418 298.945C238.277 298.945 239.836 300.668 239.836 303.715V312H236.918V304.395C236.918 302.402 236.109 301.395 234.34 301.395C232.605 301.395 231.527 302.613 231.527 304.535V312H228.609Z" fill="black"/>
<path d="M329.766 313V302.648H301.719V292.805C303.229 290.409 304.74 288 306.25 285.578C307.76 283.156 309.271 280.747 310.781 278.352C312.292 275.93 313.789 273.521 315.273 271.125C316.784 268.703 318.294 266.281 319.805 263.859C321.315 261.438 322.826 259.029 324.336 256.633H340.977V293.234H348.398V302.648H340.977V313H329.766ZM311.992 293.547H330V265.148H329.727C328.529 267.023 327.344 268.898 326.172 270.773C325 272.648 323.815 274.523 322.617 276.398C321.445 278.247 320.26 280.122 319.062 282.023C317.891 283.898 316.706 285.773 315.508 287.648C314.336 289.497 313.164 291.359 311.992 293.234V293.547ZM360.352 313.664C358.581 313.664 357.083 313.052 355.859 311.828C354.635 310.604 354.023 309.107 354.023 307.336C354.023 305.565 354.635 304.068 355.859 302.844C357.083 301.62 358.581 301.008 360.352 301.008C362.122 301.008 363.62 301.62 364.844 302.844C366.068 304.068 366.68 305.565 366.68 307.336C366.68 309.107 366.068 310.604 364.844 311.828C363.62 313.052 362.122 313.664 360.352 313.664Z" fill="black" fill-opacity="0.16"/>
</svg>
