<svg width="400" height="350" viewBox="0 0 400 350" fill="none" xmlns="http://www.w3.org/2000/svg">
<mask id="path-1-inside-1_1009_3439" fill="white">
<path d="M0 0H400V350H0V0Z"/>
</mask>
<path d="M0 0H400V350H0V0Z" fill="white"/>
<path d="M0 350H2V0H0H-2V350H0Z" fill="black" fill-opacity="0.14" mask="url(#path-1-inside-1_1009_3439)"/>
<path d="M39.1406 312.422C34.3477 312.422 31.3711 309.023 31.3711 303.562V303.539C31.3711 298.055 34.3359 294.668 39.1289 294.668C42.9727 294.668 45.8906 297.105 46.2891 300.562V300.656H43.3242L43.3125 300.609C42.8789 298.605 41.2617 297.281 39.1289 297.281C36.2578 297.281 34.4648 299.684 34.4648 303.527V303.551C34.4648 307.406 36.2578 309.809 39.1406 309.809C41.2852 309.809 42.8789 308.613 43.3125 306.75L43.3242 306.691H46.2891V306.773C45.8438 310.16 43.043 312.422 39.1406 312.422ZM49.3594 312V299.191H52.2773V301.16H52.4766C52.9102 299.789 54.082 298.98 55.7695 298.98C56.2148 298.98 56.6719 299.039 56.9531 299.121V301.734C56.4844 301.641 56.0039 301.57 55.5 301.57C53.5547 301.57 52.2773 302.73 52.2773 304.559V312H49.3594ZM64.5 312.258C60.6914 312.258 58.3828 309.703 58.3828 305.625V305.613C58.3828 301.582 60.7148 298.945 64.3594 298.945C68.0039 298.945 70.2539 301.5 70.2539 305.367V306.328H61.3008C61.3359 308.625 62.5781 309.961 64.5586 309.961C66.1406 309.961 67.043 309.164 67.3242 308.578L67.3594 308.496H70.1367L70.1016 308.602C69.6914 310.254 67.9805 312.258 64.5 312.258ZM64.3945 301.23C62.7656 301.23 61.5469 302.332 61.3242 304.371H67.4062C67.207 302.273 66.0234 301.23 64.3945 301.23ZM76.6641 312.211C74.2266 312.211 72.457 310.711 72.457 308.379V308.355C72.457 306.07 74.2031 304.734 77.3203 304.547L80.6133 304.348V303.246C80.6133 301.969 79.7812 301.266 78.2109 301.266C76.875 301.266 76.0078 301.746 75.7148 302.59L75.7031 302.637H72.9492L72.9609 302.531C73.2422 300.375 75.3047 298.945 78.3516 298.945C81.6445 298.945 83.4961 300.539 83.4961 303.246V312H80.6133V310.242H80.4141C79.7109 311.484 78.3516 312.211 76.6641 312.211ZM75.3398 308.238C75.3398 309.328 76.2656 309.973 77.5547 309.973C79.3125 309.973 80.6133 308.824 80.6133 307.301V306.27L77.7305 306.457C76.1016 306.562 75.3398 307.16 75.3398 308.215V308.238ZM92.0391 312.059C89.0977 312.059 87.8906 311.074 87.8906 308.602V301.453H85.8984V299.191H87.8906V296.051H90.8555V299.191H93.5625V301.453H90.8555V307.91C90.8555 309.188 91.3594 309.727 92.5781 309.727C92.9883 309.727 93.2109 309.715 93.5625 309.68V311.93C93.1406 312.012 92.6016 312.059 92.0391 312.059ZM97.9688 297.047C97.0078 297.047 96.2227 296.285 96.2227 295.324C96.2227 294.375 97.0078 293.602 97.9688 293.602C98.918 293.602 99.7031 294.375 99.7031 295.324C99.7031 296.285 98.918 297.047 97.9688 297.047ZM96.5039 312V299.191H99.4219V312H96.5039ZM106.453 312L101.895 299.191H105.012L107.977 309.152H108.176L111.117 299.191H114.188L109.652 312H106.453ZM121.617 312.258C117.809 312.258 115.5 309.703 115.5 305.625V305.613C115.5 301.582 117.832 298.945 121.477 298.945C125.121 298.945 127.371 301.5 127.371 305.367V306.328H118.418C118.453 308.625 119.695 309.961 121.676 309.961C123.258 309.961 124.16 309.164 124.441 308.578L124.477 308.496H127.254L127.219 308.602C126.809 310.254 125.098 312.258 121.617 312.258ZM121.512 301.23C119.883 301.23 118.664 302.332 118.441 304.371H124.523C124.324 302.273 123.141 301.23 121.512 301.23ZM136.992 312V295.09H143.742C147.176 295.09 149.496 297.352 149.496 300.738V300.762C149.496 304.137 147.176 306.41 143.742 306.41H140.016V312H136.992ZM143.004 297.562H140.016V303.973H143.004C145.172 303.973 146.438 302.801 146.438 300.773V300.75C146.438 298.723 145.172 297.562 143.004 297.562ZM152.648 312V294.234H155.566V312H152.648ZM162.75 312.211C160.312 312.211 158.543 310.711 158.543 308.379V308.355C158.543 306.07 160.289 304.734 163.406 304.547L166.699 304.348V303.246C166.699 301.969 165.867 301.266 164.297 301.266C162.961 301.266 162.094 301.746 161.801 302.59L161.789 302.637H159.035L159.047 302.531C159.328 300.375 161.391 298.945 164.438 298.945C167.73 298.945 169.582 300.539 169.582 303.246V312H166.699V310.242H166.5C165.797 311.484 164.438 312.211 162.75 312.211ZM161.426 308.238C161.426 309.328 162.352 309.973 163.641 309.973C165.398 309.973 166.699 308.824 166.699 307.301V306.27L163.816 306.457C162.188 306.562 161.426 307.16 161.426 308.215V308.238ZM178.125 312.059C175.184 312.059 173.977 311.074 173.977 308.602V301.453H171.984V299.191H173.977V296.051H176.941V299.191H179.648V301.453H176.941V307.91C176.941 309.188 177.445 309.727 178.664 309.727C179.074 309.727 179.297 309.715 179.648 309.68V311.93C179.227 312.012 178.688 312.059 178.125 312.059ZM183.562 312V301.453H181.465V299.191H183.562V297.926C183.562 295.371 184.852 294.117 187.711 294.117C188.332 294.117 188.859 294.152 189.328 294.234V296.273C189.105 296.238 188.742 296.215 188.332 296.215C186.961 296.215 186.434 296.871 186.434 298.09V299.191H189.211V301.453H186.48V312H183.562ZM197.086 312.258C193.242 312.258 190.922 309.75 190.922 305.602V305.578C190.922 301.465 193.277 298.945 197.086 298.945C200.906 298.945 203.25 301.453 203.25 305.578V305.602C203.25 309.75 200.918 312.258 197.086 312.258ZM197.086 309.891C199.113 309.891 200.262 308.309 200.262 305.613V305.59C200.262 302.895 199.102 301.301 197.086 301.301C195.059 301.301 193.898 302.895 193.898 305.59V305.613C193.898 308.309 195.059 309.891 197.086 309.891ZM206.18 312V299.191H209.098V301.16H209.297C209.73 299.789 210.902 298.98 212.59 298.98C213.035 298.98 213.492 299.039 213.773 299.121V301.734C213.305 301.641 212.824 301.57 212.32 301.57C210.375 301.57 209.098 302.73 209.098 304.559V312H206.18ZM216.328 312V299.191H219.246V301.184H219.445C219.996 299.754 221.285 298.945 222.961 298.945C224.695 298.945 225.961 299.836 226.512 301.254H226.711C227.332 299.859 228.809 298.945 230.59 298.945C233.168 298.945 234.715 300.527 234.715 303.188V312H231.797V303.902C231.797 302.238 231.035 301.395 229.477 301.395C227.953 301.395 226.969 302.531 226.969 303.996V312H224.051V303.691C224.051 302.273 223.172 301.395 221.742 301.395C220.301 301.395 219.246 302.613 219.246 304.207V312H216.328Z" fill="black"/>
<path d="M306.406 313V304.914L326.328 286.281C328.776 284.016 330.625 282.128 331.875 280.617C333.125 279.107 333.971 277.753 334.414 276.555C334.883 275.357 335.117 274.107 335.117 272.805V272.727C335.117 271.19 334.753 269.836 334.023 268.664C333.294 267.466 332.279 266.529 330.977 265.852C329.701 265.174 328.229 264.836 326.562 264.836C324.635 264.836 322.943 265.227 321.484 266.008C320.026 266.763 318.88 267.818 318.047 269.172C317.214 270.5 316.771 272.01 316.719 273.703L316.68 274.055H305.742V273.742C305.742 270.201 306.641 267.076 308.438 264.367C310.234 261.633 312.695 259.497 315.82 257.961C318.971 256.424 322.526 255.656 326.484 255.656C330.469 255.656 333.971 256.359 336.992 257.766C340.013 259.146 342.37 261.073 344.062 263.547C345.755 266.021 346.602 268.859 346.602 272.062V272.141C346.602 274.406 346.185 276.516 345.352 278.469C344.544 280.396 343.203 282.453 341.328 284.641C339.453 286.802 336.888 289.38 333.633 292.375L317.305 307.258L321.836 299.328V307.258L317.344 303.625H347.383V313H306.406ZM360.352 313.664C358.581 313.664 357.083 313.052 355.859 311.828C354.635 310.604 354.023 309.107 354.023 307.336C354.023 305.565 354.635 304.068 355.859 302.844C357.083 301.62 358.581 301.008 360.352 301.008C362.122 301.008 363.62 301.62 364.844 302.844C366.068 304.068 366.68 305.565 366.68 307.336C366.68 309.107 366.068 310.604 364.844 311.828C363.62 313.052 362.122 313.664 360.352 313.664Z" fill="black" fill-opacity="0.16"/>
</svg>
