<svg width="400" height="350" viewBox="0 0 400 350" fill="none" xmlns="http://www.w3.org/2000/svg">
<mask id="path-1-inside-1_1009_3438" fill="white">
<path d="M0 0H400V350H0V0Z"/>
</mask>
<path d="M0 0H400V350H0V0Z" fill="white"/>
<path d="M400 0H398V350H400H402V0H400ZM0 350H2V0H0H-2V350H0Z" fill="black" fill-opacity="0.14" mask="url(#path-1-inside-1_1009_3438)"/>
<path d="M32.0859 312V295.09H42.8672V297.633H35.1094V302.637H42.1992V305.098H35.1094V312H32.0859ZM47.4141 297.047C46.4531 297.047 45.668 296.285 45.668 295.324C45.668 294.375 46.4531 293.602 47.4141 293.602C48.3633 293.602 49.1484 294.375 49.1484 295.324C49.1484 296.285 48.3633 297.047 47.4141 297.047ZM45.9492 312V299.191H48.8672V312H45.9492ZM52.4531 312V299.191H55.3711V301.148H55.5703C56.1797 299.777 57.4102 298.945 59.2617 298.945C62.1211 298.945 63.6797 300.668 63.6797 303.715V312H60.7617V304.395C60.7617 302.402 59.9531 301.395 58.1836 301.395C56.4492 301.395 55.3711 302.613 55.3711 304.535V312H52.4531ZM72.1641 312.059C69.2227 312.059 68.0156 311.074 68.0156 308.602V301.453H66.0234V299.191H68.0156V296.051H70.9805V299.191H73.6875V301.453H70.9805V307.91C70.9805 309.188 71.4844 309.727 72.7031 309.727C73.1133 309.727 73.3359 309.715 73.6875 309.68V311.93C73.2656 312.012 72.7266 312.059 72.1641 312.059ZM81.9609 312.258C78.1523 312.258 75.8438 309.703 75.8438 305.625V305.613C75.8438 301.582 78.1758 298.945 81.8203 298.945C85.4648 298.945 87.7148 301.5 87.7148 305.367V306.328H78.7617C78.7969 308.625 80.0391 309.961 82.0195 309.961C83.6016 309.961 84.5039 309.164 84.7852 308.578L84.8203 308.496H87.5977L87.5625 308.602C87.1523 310.254 85.4414 312.258 81.9609 312.258ZM81.8555 301.23C80.2266 301.23 79.0078 302.332 78.7852 304.371H84.8672C84.668 302.273 83.4844 301.23 81.8555 301.23ZM96.1289 312.258C92.2734 312.258 90 309.762 90 305.578V305.555C90 301.418 92.2617 298.945 96.1172 298.945C99.4102 298.945 101.379 300.773 101.707 303.422V303.469H98.9531L98.9414 303.434C98.6719 302.191 97.7227 301.301 96.1289 301.301C94.1367 301.301 92.9648 302.871 92.9648 305.555V305.578C92.9648 308.297 94.1484 309.891 96.1289 309.891C97.6406 309.891 98.5664 309.199 98.9297 307.852L98.9531 307.805L101.707 307.793L101.684 307.887C101.262 310.512 99.375 312.258 96.1289 312.258ZM104.602 312V294.234H107.52V301.148H107.719C108.328 299.777 109.559 298.945 111.41 298.945C114.27 298.945 115.828 300.668 115.828 303.715V312H112.91V304.395C112.91 302.402 112.102 301.395 110.332 301.395C108.598 301.395 107.52 302.613 107.52 304.535V312H104.602ZM124.723 312L130.723 295.09H134.133L140.133 312H136.969L135.551 307.629H129.293L127.887 312H124.723ZM132.328 298.23L130.055 305.297H134.801L132.527 298.23H132.328ZM142.734 316.254V299.191H145.652V301.195H145.852C146.555 299.801 147.949 298.98 149.742 298.98C152.953 298.98 155.004 301.535 155.004 305.59V305.613C155.004 309.691 152.988 312.211 149.742 312.211C147.984 312.211 146.52 311.344 145.852 309.961H145.652V316.254H142.734ZM148.828 309.75C150.82 309.75 152.027 308.18 152.027 305.613V305.59C152.027 303.012 150.82 301.441 148.828 301.441C146.848 301.441 145.617 303.012 145.617 305.578V305.602C145.617 308.168 146.848 309.75 148.828 309.75ZM157.945 316.254V299.191H160.863V301.195H161.062C161.766 299.801 163.16 298.98 164.953 298.98C168.164 298.98 170.215 301.535 170.215 305.59V305.613C170.215 309.691 168.199 312.211 164.953 312.211C163.195 312.211 161.73 311.344 161.062 309.961H160.863V316.254H157.945ZM164.039 309.75C166.031 309.75 167.238 308.18 167.238 305.613V305.59C167.238 303.012 166.031 301.441 164.039 301.441C162.059 301.441 160.828 303.012 160.828 305.578V305.602C160.828 308.168 162.059 309.75 164.039 309.75ZM173.273 312V294.234H176.191V312H173.273ZM181.383 297.047C180.422 297.047 179.637 296.285 179.637 295.324C179.637 294.375 180.422 293.602 181.383 293.602C182.332 293.602 183.117 294.375 183.117 295.324C183.117 296.285 182.332 297.047 181.383 297.047ZM179.918 312V299.191H182.836V312H179.918ZM191.918 312.258C188.062 312.258 185.789 309.762 185.789 305.578V305.555C185.789 301.418 188.051 298.945 191.906 298.945C195.199 298.945 197.168 300.773 197.496 303.422V303.469H194.742L194.73 303.434C194.461 302.191 193.512 301.301 191.918 301.301C189.926 301.301 188.754 302.871 188.754 305.555V305.578C188.754 308.297 189.938 309.891 191.918 309.891C193.43 309.891 194.355 309.199 194.719 307.852L194.742 307.805L197.496 307.793L197.473 307.887C197.051 310.512 195.164 312.258 191.918 312.258ZM203.766 312.211C201.328 312.211 199.559 310.711 199.559 308.379V308.355C199.559 306.07 201.305 304.734 204.422 304.547L207.715 304.348V303.246C207.715 301.969 206.883 301.266 205.312 301.266C203.977 301.266 203.109 301.746 202.816 302.59L202.805 302.637H200.051L200.062 302.531C200.344 300.375 202.406 298.945 205.453 298.945C208.746 298.945 210.598 300.539 210.598 303.246V312H207.715V310.242H207.516C206.812 311.484 205.453 312.211 203.766 312.211ZM202.441 308.238C202.441 309.328 203.367 309.973 204.656 309.973C206.414 309.973 207.715 308.824 207.715 307.301V306.27L204.832 306.457C203.203 306.562 202.441 307.16 202.441 308.215V308.238ZM219.141 312.059C216.199 312.059 214.992 311.074 214.992 308.602V301.453H213V299.191H214.992V296.051H217.957V299.191H220.664V301.453H217.957V307.91C217.957 309.188 218.461 309.727 219.68 309.727C220.09 309.727 220.312 309.715 220.664 309.68V311.93C220.242 312.012 219.703 312.059 219.141 312.059ZM225.07 297.047C224.109 297.047 223.324 296.285 223.324 295.324C223.324 294.375 224.109 293.602 225.07 293.602C226.02 293.602 226.805 294.375 226.805 295.324C226.805 296.285 226.02 297.047 225.07 297.047ZM223.605 312V299.191H226.523V312H223.605ZM235.641 312.258C231.797 312.258 229.477 309.75 229.477 305.602V305.578C229.477 301.465 231.832 298.945 235.641 298.945C239.461 298.945 241.805 301.453 241.805 305.578V305.602C241.805 309.75 239.473 312.258 235.641 312.258ZM235.641 309.891C237.668 309.891 238.816 308.309 238.816 305.613V305.59C238.816 302.895 237.656 301.301 235.641 301.301C233.613 301.301 232.453 302.895 232.453 305.59V305.613C232.453 308.309 233.613 309.891 235.641 309.891ZM244.734 312V299.191H247.652V301.148H247.852C248.461 299.777 249.691 298.945 251.543 298.945C254.402 298.945 255.961 300.668 255.961 303.715V312H253.043V304.395C253.043 302.402 252.234 301.395 250.465 301.395C248.73 301.395 247.652 302.613 247.652 304.535V312H244.734Z" fill="black"/>
<path d="M331.289 313V267.453H331.055L316.68 277.219V266.75L331.25 256.633H342.969V313H331.289ZM360.352 313.664C358.581 313.664 357.083 313.052 355.859 311.828C354.635 310.604 354.023 309.107 354.023 307.336C354.023 305.565 354.635 304.068 355.859 302.844C357.083 301.62 358.581 301.008 360.352 301.008C362.122 301.008 363.62 301.62 364.844 302.844C366.068 304.068 366.68 305.565 366.68 307.336C366.68 309.107 366.068 310.604 364.844 311.828C363.62 313.052 362.122 313.664 360.352 313.664Z" fill="black" fill-opacity="0.16"/>
</svg>
