<svg width="400" height="350" viewBox="0 0 400 350" fill="none" xmlns="http://www.w3.org/2000/svg">
<mask id="path-1-inside-1_1009_3442" fill="white">
<path d="M0 0H400V350H0V0Z"/>
</mask>
<path d="M0 0H400V350H0V0Z" fill="white"/>
<path d="M400 0H398V350H400H402V0H400Z" fill="black" fill-opacity="0.14" mask="url(#path-1-inside-1_1009_3442)"/>
<path d="M32.0859 312V295.09H35.5547L40.6406 308.098H40.8398L45.9141 295.09H49.3828V312H46.6641V299.977H46.4531L41.7656 312H39.7031L35.0156 299.977H34.8164V312H32.0859ZM58.7344 312.258C54.9258 312.258 52.6172 309.703 52.6172 305.625V305.613C52.6172 301.582 54.9492 298.945 58.5938 298.945C62.2383 298.945 64.4883 301.5 64.4883 305.367V306.328H55.5352C55.5703 308.625 56.8125 309.961 58.793 309.961C60.375 309.961 61.2773 309.164 61.5586 308.578L61.5938 308.496H64.3711L64.3359 308.602C63.9258 310.254 62.2148 312.258 58.7344 312.258ZM58.6289 301.23C57 301.23 55.7812 302.332 55.5586 304.371H61.6406C61.4414 302.273 60.2578 301.23 58.6289 301.23ZM72.0234 312.211C68.8125 312.211 66.7734 309.668 66.7734 305.613V305.59C66.7734 301.512 68.7773 298.98 72.0234 298.98C73.7812 298.98 75.2461 299.848 75.9141 301.23H76.1133V294.234H79.043V312H76.1133V309.996H75.9141C75.2109 311.391 73.8281 312.211 72.0234 312.211ZM72.9375 309.75C74.9297 309.75 76.1602 308.18 76.1602 305.613V305.59C76.1602 303.023 74.918 301.441 72.9375 301.441C70.957 301.441 69.7383 303.012 69.7383 305.59V305.613C69.7383 308.191 70.9453 309.75 72.9375 309.75ZM84.2109 297.047C83.25 297.047 82.4648 296.285 82.4648 295.324C82.4648 294.375 83.25 293.602 84.2109 293.602C85.1602 293.602 85.9453 294.375 85.9453 295.324C85.9453 296.285 85.1602 297.047 84.2109 297.047ZM82.7461 312V299.191H85.6641V312H82.7461ZM94.7461 312.258C90.8906 312.258 88.6172 309.762 88.6172 305.578V305.555C88.6172 301.418 90.8789 298.945 94.7344 298.945C98.0273 298.945 99.9961 300.773 100.324 303.422V303.469H97.5703L97.5586 303.434C97.2891 302.191 96.3398 301.301 94.7461 301.301C92.7539 301.301 91.582 302.871 91.582 305.555V305.578C91.582 308.297 92.7656 309.891 94.7461 309.891C96.2578 309.891 97.1836 309.199 97.5469 307.852L97.5703 307.805L100.324 307.793L100.301 307.887C99.8789 310.512 97.9922 312.258 94.7461 312.258ZM104.602 297.047C103.641 297.047 102.855 296.285 102.855 295.324C102.855 294.375 103.641 293.602 104.602 293.602C105.551 293.602 106.336 294.375 106.336 295.324C106.336 296.285 105.551 297.047 104.602 297.047ZM103.137 312V299.191H106.055V312H103.137ZM109.641 312V299.191H112.559V301.148H112.758C113.367 299.777 114.598 298.945 116.449 298.945C119.309 298.945 120.867 300.668 120.867 303.715V312H117.949V304.395C117.949 302.402 117.141 301.395 115.371 301.395C113.637 301.395 112.559 302.613 112.559 304.535V312H109.641ZM129.797 312.258C125.988 312.258 123.68 309.703 123.68 305.625V305.613C123.68 301.582 126.012 298.945 129.656 298.945C133.301 298.945 135.551 301.5 135.551 305.367V306.328H126.598C126.633 308.625 127.875 309.961 129.855 309.961C131.438 309.961 132.34 309.164 132.621 308.578L132.656 308.496H135.434L135.398 308.602C134.988 310.254 133.277 312.258 129.797 312.258ZM129.691 301.23C128.062 301.23 126.844 302.332 126.621 304.371H132.703C132.504 302.273 131.32 301.23 129.691 301.23ZM145.172 312V295.09H152.004C155.637 295.09 157.816 297.117 157.816 300.34V300.363C157.816 302.602 156.633 304.453 154.629 305.18L158.32 312H154.863L151.547 305.637H148.195V312H145.172ZM148.195 303.316H151.688C153.598 303.316 154.711 302.25 154.711 300.434V300.41C154.711 298.641 153.551 297.539 151.629 297.539H148.195V303.316ZM166.266 312.258C162.457 312.258 160.148 309.703 160.148 305.625V305.613C160.148 301.582 162.48 298.945 166.125 298.945C169.77 298.945 172.02 301.5 172.02 305.367V306.328H163.066C163.102 308.625 164.344 309.961 166.324 309.961C167.906 309.961 168.809 309.164 169.09 308.578L169.125 308.496H171.902L171.867 308.602C171.457 310.254 169.746 312.258 166.266 312.258ZM166.16 301.23C164.531 301.23 163.312 302.332 163.09 304.371H169.172C168.973 302.273 167.789 301.23 166.16 301.23ZM174.938 312V299.191H177.855V301.184H178.055C178.605 299.754 179.895 298.945 181.57 298.945C183.305 298.945 184.57 299.836 185.121 301.254H185.32C185.941 299.859 187.418 298.945 189.199 298.945C191.777 298.945 193.324 300.527 193.324 303.188V312H190.406V303.902C190.406 302.238 189.645 301.395 188.086 301.395C186.562 301.395 185.578 302.531 185.578 303.996V312H182.66V303.691C182.66 302.273 181.781 301.395 180.352 301.395C178.91 301.395 177.855 302.613 177.855 304.207V312H174.938ZM198.281 297.047C197.32 297.047 196.535 296.285 196.535 295.324C196.535 294.375 197.32 293.602 198.281 293.602C199.23 293.602 200.016 294.375 200.016 295.324C200.016 296.285 199.23 297.047 198.281 297.047ZM196.816 312V299.191H199.734V312H196.816ZM203.32 312V299.191H206.238V301.148H206.438C207.047 299.777 208.277 298.945 210.129 298.945C212.988 298.945 214.547 300.668 214.547 303.715V312H211.629V304.395C211.629 302.402 210.82 301.395 209.051 301.395C207.316 301.395 206.238 302.613 206.238 304.535V312H203.32ZM222.609 312.211C219.398 312.211 217.359 309.668 217.359 305.613V305.59C217.359 301.512 219.363 298.98 222.609 298.98C224.367 298.98 225.832 299.848 226.5 301.23H226.699V294.234H229.629V312H226.699V309.996H226.5C225.797 311.391 224.414 312.211 222.609 312.211ZM223.523 309.75C225.516 309.75 226.746 308.18 226.746 305.613V305.59C226.746 303.023 225.504 301.441 223.523 301.441C221.543 301.441 220.324 303.012 220.324 305.59V305.613C220.324 308.191 221.531 309.75 223.523 309.75ZM238.781 312.258C234.973 312.258 232.664 309.703 232.664 305.625V305.613C232.664 301.582 234.996 298.945 238.641 298.945C242.285 298.945 244.535 301.5 244.535 305.367V306.328H235.582C235.617 308.625 236.859 309.961 238.84 309.961C240.422 309.961 241.324 309.164 241.605 308.578L241.641 308.496H244.418L244.383 308.602C243.973 310.254 242.262 312.258 238.781 312.258ZM238.676 301.23C237.047 301.23 235.828 302.332 235.605 304.371H241.688C241.488 302.273 240.305 301.23 238.676 301.23ZM247.453 312V299.191H250.371V301.16H250.57C251.004 299.789 252.176 298.98 253.863 298.98C254.309 298.98 254.766 299.039 255.047 299.121V301.734C254.578 301.641 254.098 301.57 253.594 301.57C251.648 301.57 250.371 302.73 250.371 304.559V312H247.453Z" fill="black"/>
<path d="M326.719 313.977C322.63 313.977 319.049 313.247 315.977 311.789C312.904 310.331 310.469 308.352 308.672 305.852C306.875 303.352 305.859 300.539 305.625 297.414L305.586 296.828H316.484L316.562 297.102C316.849 298.508 317.448 299.784 318.359 300.93C319.297 302.076 320.482 302.987 321.914 303.664C323.346 304.315 324.961 304.641 326.758 304.641C328.815 304.641 330.625 304.211 332.188 303.352C333.776 302.466 335.013 301.255 335.898 299.719C336.81 298.182 337.266 296.411 337.266 294.406V294.328C337.266 292.349 336.81 290.604 335.898 289.094C335.013 287.557 333.776 286.359 332.188 285.5C330.625 284.641 328.828 284.211 326.797 284.211C325.365 284.211 324.036 284.419 322.812 284.836C321.589 285.227 320.495 285.812 319.531 286.594C318.984 287.036 318.477 287.518 318.008 288.039C317.539 288.56 317.148 289.12 316.836 289.719H306.562L309.141 256.633H345.117V266.008H318.516L317.148 281.867H317.383C318.164 280.591 319.18 279.51 320.43 278.625C321.706 277.714 323.151 277.01 324.766 276.516C326.406 276.021 328.177 275.773 330.078 275.773C333.672 275.773 336.849 276.568 339.609 278.156C342.37 279.719 344.544 281.88 346.133 284.641C347.721 287.401 348.516 290.552 348.516 294.094V294.172C348.516 298.104 347.591 301.555 345.742 304.523C343.919 307.492 341.367 309.81 338.086 311.477C334.805 313.143 331.016 313.977 326.719 313.977ZM360.352 313.664C358.581 313.664 357.083 313.052 355.859 311.828C354.635 310.604 354.023 309.107 354.023 307.336C354.023 305.565 354.635 304.068 355.859 302.844C357.083 301.62 358.581 301.008 360.352 301.008C362.122 301.008 363.62 301.62 364.844 302.844C366.068 304.068 366.68 305.565 366.68 307.336C366.68 309.107 366.068 310.604 364.844 311.828C363.62 313.052 362.122 313.664 360.352 313.664Z" fill="black" fill-opacity="0.16"/>
</svg>
