<svg width="400" height="350" viewBox="0 0 400 350" fill="none" xmlns="http://www.w3.org/2000/svg">
<mask id="path-1-inside-1_1009_3440" fill="white">
<path d="M0 0H400V350H0V0Z"/>
</mask>
<path d="M0 0H400V350H0V0Z" fill="white"/>
<path d="M400 0H398V350H400H402V0H400Z" fill="black" fill-opacity="0.14" mask="url(#path-1-inside-1_1009_3440)"/>
<path d="M36.293 312V297.633H31.0898V295.09H44.5312V297.633H39.3164V312H36.293ZM45.8906 312V299.191H48.8086V301.16H49.0078C49.4414 299.789 50.6133 298.98 52.3008 298.98C52.7461 298.98 53.2031 299.039 53.4844 299.121V301.734C53.0156 301.641 52.5352 301.57 52.0312 301.57C50.0859 301.57 48.8086 302.73 48.8086 304.559V312H45.8906ZM59.2031 312.211C56.7656 312.211 54.9961 310.711 54.9961 308.379V308.355C54.9961 306.07 56.7422 304.734 59.8594 304.547L63.1523 304.348V303.246C63.1523 301.969 62.3203 301.266 60.75 301.266C59.4141 301.266 58.5469 301.746 58.2539 302.59L58.2422 302.637H55.4883L55.5 302.531C55.7812 300.375 57.8438 298.945 60.8906 298.945C64.1836 298.945 66.0352 300.539 66.0352 303.246V312H63.1523V310.242H62.9531C62.25 311.484 60.8906 312.211 59.2031 312.211ZM57.8789 308.238C57.8789 309.328 58.8047 309.973 60.0938 309.973C61.8516 309.973 63.1523 308.824 63.1523 307.301V306.27L60.2695 306.457C58.6406 306.562 57.8789 307.16 57.8789 308.215V308.238ZM74.1562 312.211C70.9453 312.211 68.9062 309.668 68.9062 305.613V305.59C68.9062 301.512 70.9102 298.98 74.1562 298.98C75.9141 298.98 77.3789 299.848 78.0469 301.23H78.2461V294.234H81.1758V312H78.2461V309.996H78.0469C77.3438 311.391 75.9609 312.211 74.1562 312.211ZM75.0703 309.75C77.0625 309.75 78.293 308.18 78.293 305.613V305.59C78.293 303.023 77.0508 301.441 75.0703 301.441C73.0898 301.441 71.8711 303.012 71.8711 305.59V305.613C71.8711 308.191 73.0781 309.75 75.0703 309.75ZM86.3438 297.047C85.3828 297.047 84.5977 296.285 84.5977 295.324C84.5977 294.375 85.3828 293.602 86.3438 293.602C87.293 293.602 88.0781 294.375 88.0781 295.324C88.0781 296.285 87.293 297.047 86.3438 297.047ZM84.8789 312V299.191H87.7969V312H84.8789ZM91.3828 312V299.191H94.3008V301.148H94.5C95.1094 299.777 96.3398 298.945 98.1914 298.945C101.051 298.945 102.609 300.668 102.609 303.715V312H99.6914V304.395C99.6914 302.402 98.8828 301.395 97.1133 301.395C95.3789 301.395 94.3008 302.613 94.3008 304.535V312H91.3828ZM111.562 316.5C108.188 316.5 106.16 315.059 105.867 312.902L105.879 312.867H108.797L108.809 312.902C109.008 313.723 109.98 314.297 111.609 314.297C113.602 314.297 114.762 313.371 114.762 311.73V309.281H114.562C113.824 310.652 112.43 311.402 110.66 311.402C107.414 311.402 105.398 308.895 105.398 305.262V305.238C105.398 301.535 107.414 298.98 110.719 298.98C112.488 298.98 113.871 299.848 114.598 301.301H114.75V299.191H117.668V311.684C117.668 314.637 115.301 316.5 111.562 316.5ZM111.562 309.082C113.59 309.082 114.809 307.523 114.809 305.262V305.238C114.809 302.977 113.578 301.406 111.562 301.406C109.535 301.406 108.387 302.977 108.387 305.238V305.262C108.387 307.523 109.535 309.082 111.562 309.082ZM126.691 312L132.691 295.09H136.102L142.102 312H138.938L137.52 307.629H131.262L129.855 312H126.691ZM134.297 298.23L132.023 305.297H136.77L134.496 298.23H134.297ZM144.703 316.254V299.191H147.621V301.195H147.82C148.523 299.801 149.918 298.98 151.711 298.98C154.922 298.98 156.973 301.535 156.973 305.59V305.613C156.973 309.691 154.957 312.211 151.711 312.211C149.953 312.211 148.488 311.344 147.82 309.961H147.621V316.254H144.703ZM150.797 309.75C152.789 309.75 153.996 308.18 153.996 305.613V305.59C153.996 303.012 152.789 301.441 150.797 301.441C148.816 301.441 147.586 303.012 147.586 305.578V305.602C147.586 308.168 148.816 309.75 150.797 309.75ZM159.914 316.254V299.191H162.832V301.195H163.031C163.734 299.801 165.129 298.98 166.922 298.98C170.133 298.98 172.184 301.535 172.184 305.59V305.613C172.184 309.691 170.168 312.211 166.922 312.211C165.164 312.211 163.699 311.344 163.031 309.961H162.832V316.254H159.914ZM166.008 309.75C168 309.75 169.207 308.18 169.207 305.613V305.59C169.207 303.012 168 301.441 166.008 301.441C164.027 301.441 162.797 303.012 162.797 305.578V305.602C162.797 308.168 164.027 309.75 166.008 309.75ZM175.242 312V294.234H178.16V312H175.242ZM183.352 297.047C182.391 297.047 181.605 296.285 181.605 295.324C181.605 294.375 182.391 293.602 183.352 293.602C184.301 293.602 185.086 294.375 185.086 295.324C185.086 296.285 184.301 297.047 183.352 297.047ZM181.887 312V299.191H184.805V312H181.887ZM193.887 312.258C190.031 312.258 187.758 309.762 187.758 305.578V305.555C187.758 301.418 190.02 298.945 193.875 298.945C197.168 298.945 199.137 300.773 199.465 303.422V303.469H196.711L196.699 303.434C196.43 302.191 195.48 301.301 193.887 301.301C191.895 301.301 190.723 302.871 190.723 305.555V305.578C190.723 308.297 191.906 309.891 193.887 309.891C195.398 309.891 196.324 309.199 196.688 307.852L196.711 307.805L199.465 307.793L199.441 307.887C199.02 310.512 197.133 312.258 193.887 312.258ZM205.734 312.211C203.297 312.211 201.527 310.711 201.527 308.379V308.355C201.527 306.07 203.273 304.734 206.391 304.547L209.684 304.348V303.246C209.684 301.969 208.852 301.266 207.281 301.266C205.945 301.266 205.078 301.746 204.785 302.59L204.773 302.637H202.02L202.031 302.531C202.312 300.375 204.375 298.945 207.422 298.945C210.715 298.945 212.566 300.539 212.566 303.246V312H209.684V310.242H209.484C208.781 311.484 207.422 312.211 205.734 312.211ZM204.41 308.238C204.41 309.328 205.336 309.973 206.625 309.973C208.383 309.973 209.684 308.824 209.684 307.301V306.27L206.801 306.457C205.172 306.562 204.41 307.16 204.41 308.215V308.238ZM221.109 312.059C218.168 312.059 216.961 311.074 216.961 308.602V301.453H214.969V299.191H216.961V296.051H219.926V299.191H222.633V301.453H219.926V307.91C219.926 309.188 220.43 309.727 221.648 309.727C222.059 309.727 222.281 309.715 222.633 309.68V311.93C222.211 312.012 221.672 312.059 221.109 312.059ZM227.039 297.047C226.078 297.047 225.293 296.285 225.293 295.324C225.293 294.375 226.078 293.602 227.039 293.602C227.988 293.602 228.773 294.375 228.773 295.324C228.773 296.285 227.988 297.047 227.039 297.047ZM225.574 312V299.191H228.492V312H225.574ZM237.609 312.258C233.766 312.258 231.445 309.75 231.445 305.602V305.578C231.445 301.465 233.801 298.945 237.609 298.945C241.43 298.945 243.773 301.453 243.773 305.578V305.602C243.773 309.75 241.441 312.258 237.609 312.258ZM237.609 309.891C239.637 309.891 240.785 308.309 240.785 305.613V305.59C240.785 302.895 239.625 301.301 237.609 301.301C235.582 301.301 234.422 302.895 234.422 305.59V305.613C234.422 308.309 235.582 309.891 237.609 309.891ZM246.703 312V299.191H249.621V301.148H249.82C250.43 299.777 251.66 298.945 253.512 298.945C256.371 298.945 257.93 300.668 257.93 303.715V312H255.012V304.395C255.012 302.402 254.203 301.395 252.434 301.395C250.699 301.395 249.621 302.613 249.621 304.535V312H246.703Z" fill="black"/>
<path d="M325.82 313.977C321.549 313.977 317.826 313.286 314.648 311.906C311.471 310.5 308.945 308.56 307.07 306.086C305.221 303.612 304.167 300.76 303.906 297.531L303.867 297.023H315.117L315.195 297.453C315.378 298.807 315.911 300.018 316.797 301.086C317.708 302.128 318.919 302.961 320.43 303.586C321.966 304.185 323.75 304.484 325.781 304.484C327.812 304.484 329.57 304.159 331.055 303.508C332.539 302.831 333.685 301.906 334.492 300.734C335.326 299.536 335.742 298.169 335.742 296.633V296.555C335.742 293.846 334.792 291.776 332.891 290.344C330.99 288.911 328.333 288.195 324.922 288.195H318.477V279.797H324.766C326.745 279.797 328.464 279.471 329.922 278.82C331.38 278.169 332.5 277.271 333.281 276.125C334.089 274.953 334.492 273.612 334.492 272.102V272.023C334.492 270.487 334.141 269.185 333.438 268.117C332.76 267.023 331.758 266.19 330.43 265.617C329.128 265.018 327.552 264.719 325.703 264.719C323.88 264.719 322.266 265.018 320.859 265.617C319.453 266.216 318.333 267.062 317.5 268.156C316.667 269.224 316.159 270.487 315.977 271.945L315.938 272.297H305.117L305.156 271.828C305.417 268.547 306.419 265.708 308.164 263.312C309.935 260.891 312.318 259.016 315.312 257.688C318.307 256.333 321.771 255.656 325.703 255.656C329.766 255.656 333.281 256.281 336.25 257.531C339.245 258.755 341.562 260.474 343.203 262.688C344.844 264.901 345.664 267.492 345.664 270.461V270.539C345.664 272.883 345.143 274.94 344.102 276.711C343.06 278.482 341.641 279.94 339.844 281.086C338.073 282.232 336.094 283.039 333.906 283.508V283.742C338.099 284.133 341.445 285.487 343.945 287.805C346.471 290.122 347.734 293.195 347.734 297.023V297.102C347.734 300.461 346.823 303.404 345 305.93C343.177 308.456 340.625 310.435 337.344 311.867C334.062 313.273 330.221 313.977 325.82 313.977ZM360.352 313.664C358.581 313.664 357.083 313.052 355.859 311.828C354.635 310.604 354.023 309.107 354.023 307.336C354.023 305.565 354.635 304.068 355.859 302.844C357.083 301.62 358.581 301.008 360.352 301.008C362.122 301.008 363.62 301.62 364.844 302.844C366.068 304.068 366.68 305.565 366.68 307.336C366.68 309.107 366.068 310.604 364.844 311.828C363.62 313.052 362.122 313.664 360.352 313.664Z" fill="black" fill-opacity="0.16"/>
</svg>
