<svg width="80" height="80" viewBox="0 0 80 80" fill="none" xmlns="http://www.w3.org/2000/svg">
<rect width="80" height="80" rx="20" fill="white"/>
<path d="M39.0919 31.742L25.2229 43.165V55.494C25.2229 55.813 25.3499 56.119 25.5749 56.345C25.8009 56.571 26.107 56.698 26.426 56.698L34.8559 56.676C35.1739 56.674 35.4789 56.547 35.7029 56.321C35.9279 56.096 36.0539 55.79 36.0539 55.472V48.272C36.0539 47.953 36.181 47.647 36.406 47.421C36.632 47.196 36.938 47.069 37.257 47.069H42.072C42.391 47.069 42.697 47.196 42.923 47.421C43.149 47.647 43.2749 47.953 43.2749 48.272V55.467C43.2749 55.625 43.3059 55.782 43.3659 55.929C43.4259 56.075 43.5149 56.208 43.6269 56.321C43.7379 56.433 43.871 56.522 44.018 56.582C44.164 56.643 44.321 56.674 44.479 56.674L52.906 56.698C53.225 56.698 53.531 56.571 53.757 56.345C53.983 56.119 54.1089 55.813 54.1089 55.494V43.157L40.2429 31.742C40.0799 31.611 39.8769 31.539 39.6679 31.539C39.4579 31.539 39.2549 31.611 39.0919 31.742ZM60.9999 39.506L54.7109 34.323V23.903C54.7109 23.664 54.616 23.434 54.447 23.265C54.278 23.095 54.048 23 53.809 23H49.5959C49.3559 23 49.127 23.095 48.958 23.265C48.788 23.434 48.6929 23.664 48.6929 23.903V29.365L41.958 23.824C41.312 23.292 40.5009 23.001 39.6639 23.001C38.8269 23.001 38.0159 23.292 37.3689 23.824L18.328 39.506C18.236 39.582 18.161 39.675 18.105 39.78C18.05 39.884 18.0149 39.999 18.0039 40.117C17.9929 40.235 18.0049 40.354 18.0399 40.468C18.0749 40.581 18.1319 40.686 18.2069 40.778L20.1249 43.11C20.2009 43.201 20.2939 43.277 20.3979 43.333C20.5029 43.389 20.6179 43.423 20.7359 43.435C20.8539 43.446 20.9729 43.434 21.0869 43.399C21.1999 43.365 21.3059 43.308 21.3979 43.232L39.0919 28.658C39.2549 28.527 39.4579 28.455 39.6679 28.455C39.8769 28.455 40.0799 28.527 40.2429 28.658L57.938 43.232C58.03 43.308 58.1349 43.365 58.2489 43.4C58.3619 43.435 58.4809 43.447 58.5989 43.436C58.7169 43.424 58.8319 43.39 58.9369 43.335C59.0409 43.279 59.134 43.203 59.21 43.112L61.128 40.78C61.204 40.688 61.2599 40.582 61.2949 40.468C61.3289 40.354 61.3409 40.235 61.3289 40.117C61.3169 39.998 61.282 39.883 61.225 39.779C61.169 39.674 61.0919 39.581 60.9999 39.506Z" fill="#01212F"/>
<path d="M60.9999 39.506L54.7109 34.323V23.903C54.7109 23.664 54.616 23.434 54.447 23.265C54.278 23.095 54.048 23 53.809 23H49.5959C49.3559 23 49.127 23.095 48.958 23.265C48.788 23.434 48.6929 23.664 48.6929 23.903V29.365L41.958 23.824C41.312 23.292 40.5009 23.001 39.6639 23.001C38.8269 23.001 38.0159 23.292 37.3689 23.824L18.328 39.506C18.236 39.582 18.161 39.675 18.105 39.78C18.05 39.884 18.0149 39.999 18.0039 40.117C17.9929 40.235 18.0049 40.354 18.0399 40.468C18.0749 40.581 18.1319 40.686 18.2069 40.778L20.1249 43.11C20.2009 43.201 20.2939 43.277 20.3979 43.333C20.5029 43.389 20.6179 43.423 20.7359 43.435C20.8539 43.446 20.9729 43.434 21.0869 43.399C21.1999 43.365 21.3059 43.308 21.3979 43.232L39.0919 28.658C39.2549 28.527 39.4579 28.455 39.6679 28.455C39.8769 28.455 40.0799 28.527 40.2429 28.658L57.938 43.232C58.03 43.308 58.1349 43.365 58.2489 43.4C58.3619 43.435 58.4809 43.447 58.5989 43.436C58.7169 43.424 58.8319 43.39 58.9369 43.335C59.0409 43.279 59.134 43.203 59.21 43.112L61.128 40.78C61.204 40.688 61.2599 40.582 61.2949 40.468C61.3289 40.354 61.3409 40.235 61.3289 40.117C61.3169 39.998 61.282 39.883 61.225 39.779C61.169 39.674 61.0919 39.581 60.9999 39.506Z" fill="#5AC8FA"/>
</svg>
