<svg width="411" height="839" viewBox="0 0 411 839" fill="none" xmlns="http://www.w3.org/2000/svg">
<path d="M2.23256 271.516L5.5194 271.516C5.73709 271.517 5.94568 271.604 6.09961 271.757C6.25354 271.911 6.34023 272.12 6.34083 272.337L6.34083 326.112C6.34023 326.33 6.25354 326.538 6.09961 326.692C5.94568 326.846 5.73709 326.932 5.51939 326.933L2.23256 326.933C2.01487 326.932 1.80628 326.846 1.65235 326.692C1.49841 326.538 1.41173 326.33 1.41113 326.112L1.41113 272.337C1.41173 272.12 1.49841 271.911 1.65235 271.757C1.80628 271.604 2.01487 271.517 2.23256 271.516Z" fill="#F2F2F2"/>
<path d="M1.82227 137.079L5.1083 137.079C5.27064 137.083 5.42526 137.149 5.54008 137.264C5.65491 137.379 5.72112 137.533 5.725 137.695L5.725 163.557C5.72112 163.719 5.65491 163.873 5.54008 163.988C5.42526 164.103 5.27064 164.169 5.1083 164.173L1.82227 164.173C1.65993 164.169 1.50531 164.103 1.39048 163.988C1.27566 163.873 1.20944 163.719 1.20557 163.557L1.20557 137.695C1.20944 137.533 1.27566 137.379 1.39048 137.264C1.50531 137.149 1.65993 137.083 1.82227 137.079V137.079Z" stroke="#7690A2"/>
<path d="M2.23291 195.37L5.51894 195.37C5.68128 195.373 5.8359 195.44 5.95073 195.554C6.06555 195.669 6.13177 195.824 6.13564 195.986L6.13564 249.76C6.13177 249.922 6.06555 250.077 5.95073 250.192C5.8359 250.306 5.68128 250.372 5.51894 250.376L2.23291 250.376C2.07057 250.372 1.91595 250.306 1.80113 250.192C1.6863 250.077 1.62008 249.922 1.61621 249.76L1.61621 195.986C1.62008 195.824 1.6863 195.669 1.80113 195.554C1.91595 195.44 2.07057 195.373 2.23291 195.37V195.37Z" stroke="#7690A2"/>
<path d="M1.82143 136.874L5.10826 136.874C5.32593 136.874 5.53441 136.961 5.68832 137.115C5.84223 137.269 5.92901 137.477 5.92969 137.695L5.92969 163.556C5.92901 163.773 5.84223 163.982 5.68832 164.136C5.5344 164.289 5.32593 164.376 5.10826 164.377L1.82143 164.377C1.60374 164.376 1.39515 164.29 1.24121 164.136C1.08728 163.982 1.0006 163.773 1 163.556L1 137.695C1.00068 137.477 1.08746 137.269 1.24137 137.115C1.39529 136.961 1.60376 136.874 1.82143 136.874V136.874Z" fill="#F2F2F2"/>
<path d="M2.23208 195.164L5.51891 195.164C5.7366 195.164 5.94519 195.251 6.09912 195.405C6.25306 195.559 6.33974 195.767 6.34034 195.985L6.34034 249.76C6.33965 249.977 6.25288 250.186 6.09896 250.339C5.94505 250.493 5.73657 250.58 5.51891 250.581L2.23207 250.581C2.01441 250.58 1.80593 250.493 1.65202 250.339C1.4981 250.186 1.41133 249.977 1.41064 249.76L1.41064 195.985C1.41124 195.767 1.49793 195.559 1.65186 195.405C1.80579 195.251 2.01438 195.164 2.23208 195.164V195.164Z" fill="#F2F2F2"/>
<path d="M5.51932 326.933L2.23264 326.933C2.01492 326.933 1.80631 326.846 1.65239 326.692C1.49847 326.538 1.41173 326.33 1.41113 326.112L1.41113 272.337C1.41182 272.12 1.49859 271.911 1.6525 271.758C1.80642 271.604 2.01497 271.517 2.23264 271.516L5.51932 271.516C5.73699 271.517 5.94554 271.604 6.09946 271.758C6.25337 271.911 6.34014 272.12 6.34083 272.337L6.34083 326.112C6.34023 326.33 6.2535 326.538 6.09957 326.692C5.94565 326.846 5.73704 326.933 5.51932 326.933V326.933ZM2.23264 271.927C2.17792 271.924 2.12317 271.932 2.07197 271.952C2.02077 271.971 1.97428 272.002 1.93552 272.04C1.89677 272.079 1.86663 272.126 1.84708 272.177C1.82752 272.228 1.819 272.283 1.82205 272.337L1.82205 326.112C1.81918 326.167 1.82785 326.221 1.84749 326.272C1.86713 326.323 1.8973 326.37 1.93603 326.408C1.97476 326.447 2.02119 326.477 2.0723 326.496C2.1234 326.516 2.17803 326.524 2.23264 326.521L5.51932 326.521C5.5741 326.524 5.62891 326.516 5.68017 326.496C5.73143 326.477 5.77799 326.447 5.81678 326.408C5.85558 326.369 5.88574 326.323 5.90529 326.271C5.92484 326.22 5.93334 326.165 5.93024 326.111L5.93024 272.337C5.93334 272.282 5.92484 272.228 5.90529 272.176C5.88574 272.125 5.85558 272.079 5.81678 272.04C5.77799 272.001 5.73143 271.971 5.68017 271.952C5.62891 271.932 5.5741 271.924 5.51932 271.927L2.23264 271.927Z" fill="white"/>
<path d="M5.51883 250.581L2.23215 250.581C2.01443 250.581 1.80582 250.494 1.6519 250.34C1.49798 250.186 1.41124 249.978 1.41064 249.76L1.41064 195.985C1.41133 195.768 1.4981 195.559 1.65202 195.405C1.80593 195.252 2.01449 195.165 2.23215 195.164L5.51883 195.164C5.7365 195.165 5.94506 195.252 6.09897 195.405C6.25289 195.559 6.33966 195.768 6.34034 195.985L6.34034 249.76C6.33974 249.978 6.25301 250.186 6.09908 250.34C5.94516 250.494 5.73656 250.581 5.51883 250.581V250.581ZM2.23215 195.575C2.17743 195.572 2.12268 195.58 2.07148 195.6C2.02029 195.619 1.97379 195.65 1.93504 195.688C1.89628 195.727 1.86614 195.773 1.84659 195.825C1.82704 195.876 1.81851 195.93 1.82156 195.985L1.82156 249.76C1.8187 249.815 1.82737 249.869 1.847 249.92C1.86664 249.971 1.89681 250.018 1.93554 250.056C1.97428 250.095 2.02071 250.125 2.07181 250.144C2.12291 250.164 2.17755 250.172 2.23215 250.169L5.51883 250.169C5.57361 250.172 5.62842 250.164 5.67968 250.144C5.73095 250.125 5.7775 250.094 5.81629 250.056C5.85509 250.017 5.88525 249.97 5.9048 249.919C5.92435 249.868 5.93285 249.813 5.92975 249.759L5.92975 195.985C5.93286 195.93 5.92435 195.876 5.9048 195.824C5.88525 195.773 5.85509 195.727 5.81629 195.688C5.7775 195.649 5.73095 195.619 5.67968 195.6C5.62842 195.58 5.57361 195.571 5.51883 195.575L2.23215 195.575Z" fill="white"/>
<path d="M5.51911 164.376L1.82151 164.376C1.60395 164.375 1.39549 164.289 1.2416 164.135C1.0877 163.982 1.00086 163.773 1 163.556L1 137.695C1.00068 137.477 1.08746 137.269 1.24137 137.115C1.39529 136.961 1.60384 136.874 1.82151 136.874L5.51911 136.874C5.73677 136.874 5.94533 136.961 6.09924 137.115C6.25316 137.269 6.33993 137.477 6.34061 137.695L6.34061 163.556C6.33976 163.773 6.25291 163.982 6.09901 164.135C5.94512 164.289 5.73666 164.375 5.51911 164.376ZM1.82151 137.284C1.76679 137.281 1.71204 137.29 1.66084 137.309C1.60964 137.329 1.56314 137.359 1.52439 137.398C1.48564 137.436 1.4555 137.483 1.43595 137.534C1.41639 137.585 1.40786 137.64 1.41092 137.695L1.41092 163.556C1.40781 163.611 1.41631 163.665 1.43586 163.717C1.45542 163.768 1.48558 163.814 1.52437 163.853C1.56317 163.892 1.60972 163.922 1.66098 163.942C1.71224 163.961 1.76706 163.97 1.82183 163.967L5.51911 163.967C5.57388 163.97 5.62869 163.961 5.67996 163.942C5.73122 163.922 5.77777 163.892 5.81657 163.853C5.85536 163.814 5.88552 163.768 5.90507 163.717C5.92463 163.665 5.93313 163.611 5.93002 163.556L5.93002 137.695C5.93313 137.64 5.92463 137.585 5.90507 137.534C5.88552 137.483 5.85536 137.436 5.81657 137.397C5.77777 137.359 5.73122 137.329 5.67996 137.309C5.62869 137.289 5.57388 137.281 5.51911 137.284L1.82151 137.284Z" fill="white"/>
<path d="M404.294 205.837L409.658 205.837C410.396 205.837 410.999 206.57 410.999 207.467L410.999 314.22C410.999 315.117 410.396 315.85 409.658 315.85L404.294 315.85C403.556 315.85 402.953 315.117 402.953 314.22L402.953 207.467C402.953 206.57 403.556 205.837 404.294 205.837Z" fill="#F2F2F2"/>
<path d="M409.659 315.85L404.294 315.85C403.557 315.85 402.953 315.116 402.953 314.22L402.953 207.467C402.953 206.57 403.557 205.837 404.294 205.837L409.659 205.837C410.396 205.837 411 206.57 411 207.467L411 314.22C411 315.116 410.396 315.85 409.659 315.85ZM404.294 206.652C403.892 206.652 403.624 206.978 403.624 207.467L403.624 314.22C403.624 314.709 403.892 315.035 404.294 315.035L409.659 315.035C410.061 315.035 410.329 314.709 410.329 314.22L410.329 207.467C410.329 206.978 410.061 206.652 409.659 206.652L404.294 206.652Z" fill="white"/>
<path d="M63.8558 1L348.144 1C381.256 1 408.124 27.8463 408.124 60.9322L408.124 778.068C408.124 811.154 381.256 838 348.144 838L63.8558 838C30.7436 838 3.87597 811.153 3.87597 778.068L3.87598 60.9322C3.87598 27.8463 30.7436 1 63.8558 1Z" fill="white"/>
<path d="M63.8562 1.20508L348.145 1.20508C355.995 1.20214 363.769 2.74503 371.023 5.74556C378.277 8.74609 384.867 13.1455 390.418 18.6922C395.97 24.239 400.372 30.8244 403.375 38.0722C406.378 45.32 407.922 53.088 407.919 60.9323L407.919 778.068C407.922 785.912 406.378 793.68 403.375 800.928C400.372 808.175 395.97 814.761 390.418 820.308C384.867 825.854 378.277 830.254 371.023 833.254C363.769 836.255 355.995 837.798 348.145 837.795L63.8562 837.795C56.0057 837.798 48.2315 836.255 40.978 833.254C33.7244 830.254 27.1338 825.854 21.5826 820.308C16.0314 814.761 11.6285 808.175 8.62563 800.928C5.62271 793.68 4.0786 785.912 4.08154 778.068L4.08155 60.9323C4.0786 53.088 5.62271 45.32 8.62563 38.0722C11.6285 30.8244 16.0314 24.239 21.5826 18.6922C27.1338 13.1455 33.7244 8.74609 40.978 5.74556C48.2315 2.74503 56.0057 1.20214 63.8562 1.20508V1.20508Z" stroke="#D6D7D6"/>
<path d="M64.6773 7.15748L346.912 7.15748C354.088 7.15428 361.195 8.56426 367.825 11.3068C374.456 14.0494 380.48 18.0708 385.555 23.1411C390.629 28.2114 394.654 34.2313 397.399 40.8566C400.143 47.4819 401.554 54.5828 401.551 61.7533L401.551 776.835C401.554 784.006 400.143 791.107 397.399 797.732C394.654 804.357 390.629 810.377 385.555 815.448C380.48 820.518 374.456 824.539 367.825 827.282C361.195 830.024 354.088 831.434 346.912 831.431L64.6773 831.431C57.501 831.434 50.3946 830.024 43.764 827.282C37.1334 824.539 31.1087 820.518 26.0344 815.448C20.96 810.377 16.9355 804.357 14.1907 797.732C11.446 791.107 10.0349 784.006 10.0381 776.835L10.0381 61.7533C10.0349 54.5828 11.446 47.4819 14.1907 40.8566C16.9355 34.2313 20.96 28.2114 26.0344 23.1411C31.1087 18.0708 37.1334 14.0494 43.764 11.3068C50.3946 8.56425 57.501 7.15428 64.6773 7.15748Z" fill="#F2F2F2"/>
<path d="M10.4126 751.479L4.24561 751.479L4.24561 756.992L10.4126 756.992L10.4126 751.479Z" fill="#DEDFDE"/>
<path d="M96.1055 837.59L96.1055 831.433L101.857 831.433L101.857 837.59L96.1055 837.59Z" fill="#DEDFDE"/>
<path d="M407.713 757.133L401.551 757.133L401.551 751.386L407.713 751.386L407.713 757.133Z" fill="#DEDFDE"/>
<path d="M407.697 86.2966L401.53 86.2966L401.53 92.1344L407.697 92.1344L407.697 86.2966Z" fill="#DEDFDE"/>
<path d="M10.088 86.2966L4.24561 86.2966L4.24561 92.1344L10.088 92.1344L10.088 86.2966Z" fill="#DEDFDE"/>
<path d="M330.447 1.32422L324.28 1.32422L324.28 7.16199L330.447 7.16199L330.447 1.32422Z" fill="#DEDFDE"/>
<path d="M244.758 36.6749C248.702 36.6749 251.899 33.4804 251.899 29.5398C251.899 25.5993 248.702 22.4048 244.758 22.4048C240.815 22.4048 237.618 25.5993 237.618 29.5398C237.618 33.4804 240.815 36.6749 244.758 36.6749Z" fill="#DEDFDE"/>
<path d="M244.92 32.4585C246.623 32.4585 248.004 31.079 248.004 29.3774C248.004 27.6758 246.623 26.2964 244.92 26.2964C243.217 26.2964 241.837 27.6758 241.837 29.3774C241.837 31.079 243.217 32.4585 244.92 32.4585Z" fill="#DEDFDE"/>
<path d="M244.823 33.018C244.132 33.0181 243.457 32.8135 242.882 32.4301C242.308 32.0467 241.86 31.5018 241.596 30.8641C241.332 30.2265 241.262 29.5249 241.397 28.848C241.532 28.1711 241.864 27.5493 242.353 27.0613C242.841 26.5733 243.464 26.241 244.141 26.1063C244.818 25.9717 245.521 26.0408 246.159 26.305C246.797 26.5691 247.342 27.0164 247.726 27.5903C248.11 28.1642 248.314 28.8388 248.314 29.529C248.315 29.9873 248.225 30.4412 248.049 30.8647C247.874 31.2881 247.617 31.6729 247.292 31.997C246.968 32.321 246.583 32.578 246.159 32.7532C245.735 32.9284 245.281 33.0184 244.823 33.018V33.018ZM244.823 26.4502C244.007 26.4561 243.227 26.7823 242.65 27.3584C242.074 27.9346 241.747 28.7143 241.741 29.529C241.747 30.3437 242.074 31.1234 242.65 31.6995C243.227 32.2757 244.007 32.6019 244.823 32.6078C245.638 32.6019 246.418 32.2757 246.995 31.6995C247.571 31.1234 247.898 30.3437 247.904 29.529C247.898 28.7143 247.571 27.9346 246.995 27.3584C246.418 26.7823 245.638 26.4561 244.823 26.4502V26.4502Z" fill="#C9C9C9"/>
<path d="M223.87 33.0189L189.772 33.0189C188.852 33.01 187.972 32.6385 187.324 31.9851C186.677 31.3317 186.313 30.4493 186.313 29.5296C186.313 28.61 186.677 27.7276 187.324 27.0742C187.972 26.4208 188.852 26.0493 189.772 26.0404L223.87 26.0404C224.331 26.036 224.789 26.123 225.217 26.2963C225.644 26.4697 226.033 26.726 226.361 27.0504C226.689 27.3749 226.949 27.761 227.127 28.1866C227.304 28.6121 227.396 29.0686 227.396 29.5296C227.396 29.9907 227.304 30.4472 227.127 30.8727C226.949 31.2983 226.689 31.6844 226.361 32.0089C226.033 32.3333 225.644 32.5896 225.217 32.763C224.789 32.9363 224.331 33.0233 223.87 33.0189ZM189.772 26.8613C189.421 26.8613 189.074 26.9303 188.75 27.0644C188.426 27.1985 188.132 27.395 187.884 27.6428C187.636 27.8906 187.439 28.1847 187.305 28.5084C187.171 28.8321 187.102 29.1791 187.102 29.5295C187.102 29.8799 187.171 30.2268 187.305 30.5506C187.439 30.8743 187.636 31.1684 187.884 31.4162C188.132 31.6639 188.426 31.8605 188.75 31.9946C189.074 32.1287 189.421 32.1977 189.772 32.1977L223.87 32.1977C224.221 32.1977 224.568 32.1287 224.892 31.9946C225.216 31.8605 225.51 31.6639 225.758 31.4162C226.006 31.1684 226.203 30.8743 226.337 30.5506C226.471 30.2268 226.54 29.8799 226.54 29.5295C226.54 29.1791 226.471 28.8321 226.337 28.5084C226.203 28.1847 226.006 27.8906 225.758 27.6428C225.51 27.395 225.216 27.1985 224.892 27.0644C224.568 26.9303 224.221 26.8613 223.87 26.8613L189.772 26.8613Z" fill="#DEDFDE"/>
<path d="M218.324 29.325L217.914 29.325L217.914 29.7359L218.735 29.7359L218.735 29.325L218.324 29.325Z" fill="#DEDFDE"/>
<path d="M219.557 29.325L219.146 29.325L219.146 29.7359L219.968 29.7359L219.968 29.325L219.557 29.325Z" fill="#DEDFDE"/>
<path d="M217.092 29.325L216.681 29.325L216.681 29.7359L217.502 29.7359L217.502 29.325L217.092 29.325Z" fill="#DEDFDE"/>
<path d="M209.698 31.7878L209.287 31.7878L209.287 32.1988L210.108 32.1988L210.108 31.7878L209.698 31.7878Z" fill="#DEDFDE"/>
<path d="M189.156 30.9671L189.156 30.5562L188.334 30.5562L188.334 30.9671L189.156 30.9671Z" fill="#DEDFDE"/>
<path d="M223.665 29.3257L224.075 29.3257L224.075 28.5042L223.665 28.5042L223.665 29.3257Z" fill="#DEDFDE"/>
<path d="M207.232 31.7878L206.821 31.7878L206.821 32.1988L207.642 32.1988L207.642 31.7878L207.232 31.7878Z" fill="#DEDFDE"/>
<path d="M202.303 29.325L201.892 29.325L201.892 29.7359L202.713 29.7359L202.713 29.325L202.303 29.325Z" fill="#DEDFDE"/>
<path d="M222.432 29.3257L222.843 29.3257L222.843 28.5042L222.432 28.5042L222.432 29.3257Z" fill="#DEDFDE"/>
<path d="M206 31.7878L205.589 31.7878L205.589 32.1988L206.41 32.1988L206.41 31.7878L206 31.7878Z" fill="#DEDFDE"/>
<path d="M200.659 30.9668L200.248 30.9668L200.248 31.7883L200.659 31.7883L200.659 30.9668Z" fill="#DEDFDE"/>
<path d="M188.334 29.7351L187.923 29.7351L187.923 30.5566L188.334 30.5566L188.334 29.7351Z" fill="#DEDFDE"/>
<path d="M208.465 31.7878L208.054 31.7878L208.054 32.1988L208.875 32.1988L208.875 31.7878L208.465 31.7878Z" fill="#DEDFDE"/>
<path d="M220.789 29.325L220.378 29.325L220.378 29.7359L221.2 29.7359L221.2 29.325L220.789 29.325Z" fill="#DEDFDE"/>
<path d="M222.022 29.325L221.611 29.325L221.611 29.7359L222.432 29.7359L222.432 29.325L222.022 29.325Z" fill="#DEDFDE"/>
<path d="M192.032 30.9668L191.621 30.9668L191.621 31.7883L192.032 31.7883L192.032 30.9668Z" fill="#DEDFDE"/>
<path d="M190.799 30.9668L190.388 30.9668L190.388 31.7883L190.799 31.7883L190.799 30.9668Z" fill="#DEDFDE"/>
<path d="M207.232 29.325L206.821 29.325L206.821 29.7359L207.642 29.7359L207.642 29.325L207.232 29.325Z" fill="#DEDFDE"/>
<path d="M208.465 29.325L208.054 29.325L208.054 29.7359L208.875 29.7359L208.875 29.325L208.465 29.325Z" fill="#DEDFDE"/>
<path d="M214.627 31.7878L214.216 31.7878L214.216 32.1988L215.037 32.1988L215.037 31.7878L214.627 31.7878Z" fill="#DEDFDE"/>
<path d="M215.859 31.7878L215.448 31.7878L215.448 32.1988L216.27 32.1988L216.27 31.7878L215.859 31.7878Z" fill="#DEDFDE"/>
<path d="M204.767 29.325L204.356 29.325L204.356 29.7359L205.177 29.7359L205.177 29.325L204.767 29.325Z" fill="#DEDFDE"/>
<path d="M217.092 31.7878L216.681 31.7878L216.681 32.1988L217.502 32.1988L217.502 31.7878L217.092 31.7878Z" fill="#DEDFDE"/>
<path d="M203.535 29.325L203.124 29.325L203.124 29.7359L203.946 29.7359L203.946 29.325L203.535 29.325Z" fill="#DEDFDE"/>
<path d="M209.698 29.325L209.287 29.325L209.287 29.7359L210.108 29.7359L210.108 29.325L209.698 29.325Z" fill="#DEDFDE"/>
<path d="M206 29.325L205.589 29.325L205.589 29.7359L206.41 29.7359L206.41 29.325L206 29.325Z" fill="#DEDFDE"/>
<path d="M212.162 31.7878L211.751 31.7878L211.751 32.1988L212.572 32.1988L212.572 31.7878L212.162 31.7878Z" fill="#DEDFDE"/>
<path d="M213.394 29.325L212.983 29.325L212.983 29.7359L213.805 29.7359L213.805 29.325L213.394 29.325Z" fill="#DEDFDE"/>
<path d="M210.929 31.7878L210.519 31.7878L210.519 32.1988L211.34 32.1988L211.34 31.7878L210.929 31.7878Z" fill="#DEDFDE"/>
<path d="M214.627 29.325L214.216 29.325L214.216 29.7359L215.037 29.7359L215.037 29.325L214.627 29.325Z" fill="#DEDFDE"/>
<path d="M199.427 30.9668L199.016 30.9668L199.016 31.7883L199.427 31.7883L199.427 30.9668Z" fill="#DEDFDE"/>
<path d="M215.859 29.325L215.448 29.325L215.448 29.7359L216.27 29.7359L216.27 29.325L215.859 29.325Z" fill="#DEDFDE"/>
<path d="M189.567 30.9668L189.156 30.9668L189.156 31.7883L189.567 31.7883L189.567 30.9668Z" fill="#DEDFDE"/>
<path d="M191.621 29.3257L192.032 29.3257L192.032 28.5042L191.621 28.5042L191.621 29.3257Z" fill="#DEDFDE"/>
<path d="M213.394 31.7878L212.983 31.7878L212.983 32.1988L213.805 32.1988L213.805 31.7878L213.394 31.7878Z" fill="#DEDFDE"/>
<path d="M212.162 29.325L211.751 29.325L211.751 29.7359L212.572 29.7359L212.572 29.325L212.162 29.325Z" fill="#DEDFDE"/>
<path d="M223.254 29.325L222.843 29.325L222.843 29.7359L223.665 29.7359L223.665 29.325L223.254 29.325Z" fill="#DEDFDE"/>
<path d="M196.139 31.7878L195.729 31.7878L195.729 32.1988L196.55 32.1988L196.55 31.7878L196.139 31.7878Z" fill="#DEDFDE"/>
<path d="M190.388 28.0937L190.799 28.0937L190.799 27.2722L190.388 27.2722L190.388 28.0937Z" fill="#DEDFDE"/>
<path d="M201.48 29.3257L201.891 29.3257L201.891 28.5042L201.48 28.5042L201.48 29.3257Z" fill="#DEDFDE"/>
<path d="M194.907 31.7878L194.497 31.7878L194.497 32.1988L195.318 32.1988L195.318 31.7878L194.907 31.7878Z" fill="#DEDFDE"/>
<path d="M200.248 29.3257L200.659 29.3257L200.659 28.5042L200.248 28.5042L200.248 29.3257Z" fill="#DEDFDE"/>
<path d="M199.016 29.3257L199.427 29.3257L199.427 28.5042L199.016 28.5042L199.016 29.3257Z" fill="#DEDFDE"/>
<path d="M205.178 29.3257L205.589 29.3257L205.589 28.5042L205.178 28.5042L205.178 29.3257Z" fill="#DEDFDE"/>
<path d="M189.156 28.0937L189.567 28.0937L189.567 27.2722L189.156 27.2722L189.156 28.0937Z" fill="#DEDFDE"/>
<path d="M202.713 29.3257L203.124 29.3257L203.124 28.5042L202.713 28.5042L202.713 29.3257Z" fill="#DEDFDE"/>
<path d="M203.945 29.3257L204.356 29.3257L204.356 28.5042L203.945 28.5042L203.945 29.3257Z" fill="#DEDFDE"/>
<path d="M197.372 31.7878L196.961 31.7878L196.961 32.1988L197.783 32.1988L197.783 31.7878L197.372 31.7878Z" fill="#DEDFDE"/>
<path d="M194.085 29.3257L194.496 29.3257L194.496 28.5042L194.085 28.5042L194.085 29.3257Z" fill="#DEDFDE"/>
<path d="M192.442 31.7878L192.031 31.7878L192.031 32.1988L192.853 32.1988L192.853 31.7878L192.442 31.7878Z" fill="#DEDFDE"/>
<path d="M204.356 30.9668L203.945 30.9668L203.945 31.7883L204.356 31.7883L204.356 30.9668Z" fill="#DEDFDE"/>
<path d="M206.411 29.3257L206.822 29.3257L206.822 28.5042L206.411 28.5042L206.411 29.3257Z" fill="#DEDFDE"/>
<path d="M191.21 31.7878L190.799 31.7878L190.799 32.1988L191.621 32.1988L191.621 31.7878L191.21 31.7878Z" fill="#DEDFDE"/>
<path d="M192.853 29.3257L193.264 29.3257L193.264 28.5042L192.853 28.5042L192.853 29.3257Z" fill="#DEDFDE"/>
<path d="M221.2 29.3257L221.611 29.3257L221.611 28.5042L221.2 28.5042L221.2 29.3257Z" fill="#DEDFDE"/>
<path d="M197.783 29.3257L198.194 29.3257L198.194 28.5042L197.783 28.5042L197.783 29.3257Z" fill="#DEDFDE"/>
<path d="M191.621 28.0937L192.032 28.0937L192.032 27.2722L191.621 27.2722L191.621 28.0937Z" fill="#DEDFDE"/>
<path d="M193.675 31.7878L193.264 31.7878L193.264 32.1988L194.086 32.1988L194.086 31.7878L193.675 31.7878Z" fill="#DEDFDE"/>
<path d="M196.551 29.3257L196.962 29.3257L196.962 28.5042L196.551 28.5042L196.551 29.3257Z" fill="#DEDFDE"/>
<path d="M195.318 29.3257L195.729 29.3257L195.729 28.5042L195.318 28.5042L195.318 29.3257Z" fill="#DEDFDE"/>
<path d="M203.535 31.7878L203.124 31.7878L203.124 32.1988L203.946 32.1988L203.946 31.7878L203.535 31.7878Z" fill="#DEDFDE"/>
<path d="M216.27 29.3257L216.681 29.3257L216.681 28.5042L216.27 28.5042L216.27 29.3257Z" fill="#DEDFDE"/>
<path d="M202.303 31.7878L201.892 31.7878L201.892 32.1988L202.713 32.1988L202.713 31.7878L202.303 31.7878Z" fill="#DEDFDE"/>
<path d="M215.038 29.3257L215.449 29.3257L215.449 28.5042L215.038 28.5042L215.038 29.3257Z" fill="#DEDFDE"/>
<path d="M187.923 29.3257L188.334 29.3257L188.334 28.5042L187.923 28.5042L187.923 29.3257Z" fill="#DEDFDE"/>
<path d="M217.502 29.3257L217.913 29.3257L217.913 28.5042L217.502 28.5042L217.502 29.3257Z" fill="#DEDFDE"/>
<path d="M187.923 29.7359L187.923 29.325L187.102 29.325L187.102 29.7359L187.923 29.7359Z" fill="#DEDFDE"/>
<path d="M219.968 29.3257L220.379 29.3257L220.379 28.5042L219.968 28.5042L219.968 29.3257Z" fill="#DEDFDE"/>
<path d="M204.767 31.7878L204.356 31.7878L204.356 32.1988L205.177 32.1988L205.177 31.7878L204.767 31.7878Z" fill="#DEDFDE"/>
<path d="M218.735 29.3257L219.146 29.3257L219.146 28.5042L218.735 28.5042L218.735 29.3257Z" fill="#DEDFDE"/>
<path d="M201.891 30.9668L201.48 30.9668L201.48 31.7883L201.891 31.7883L201.891 30.9668Z" fill="#DEDFDE"/>
<path d="M207.643 29.3257L208.054 29.3257L208.054 28.5042L207.643 28.5042L207.643 29.3257Z" fill="#DEDFDE"/>
<path d="M199.838 31.7878L199.427 31.7878L199.427 32.1988L200.248 32.1988L200.248 31.7878L199.838 31.7878Z" fill="#DEDFDE"/>
<path d="M208.875 29.3257L209.286 29.3257L209.286 28.5042L208.875 28.5042L208.875 29.3257Z" fill="#DEDFDE"/>
<path d="M210.108 29.3257L210.519 29.3257L210.519 28.5042L210.108 28.5042L210.108 29.3257Z" fill="#DEDFDE"/>
<path d="M203.124 30.9668L202.713 30.9668L202.713 31.7883L203.124 31.7883L203.124 30.9668Z" fill="#DEDFDE"/>
<path d="M198.605 31.7878L198.194 31.7878L198.194 32.1988L199.016 32.1988L199.016 31.7878L198.605 31.7878Z" fill="#DEDFDE"/>
<path d="M211.34 29.3257L211.751 29.3257L211.751 28.5042L211.34 28.5042L211.34 29.3257Z" fill="#DEDFDE"/>
<path d="M201.07 31.7878L200.659 31.7878L200.659 32.1988L201.481 32.1988L201.481 31.7878L201.07 31.7878Z" fill="#DEDFDE"/>
<path d="M189.156 28.5042L189.156 28.0933L188.334 28.0933L188.334 28.5042L189.156 28.5042Z" fill="#DEDFDE"/>
<path d="M212.573 29.3257L212.984 29.3257L212.984 28.5042L212.573 28.5042L212.573 29.3257Z" fill="#DEDFDE"/>
<path d="M213.805 29.3257L214.216 29.3257L214.216 28.5042L213.805 28.5042L213.805 29.3257Z" fill="#DEDFDE"/>
<path d="M210.929 29.325L210.519 29.325L210.519 29.7359L211.34 29.7359L211.34 29.325L210.929 29.325Z" fill="#DEDFDE"/>
<path d="M195.318 32.6094L195.318 33.0203L195.729 33.0203L195.729 32.1985L195.318 32.1985L195.318 32.6094Z" fill="#DEDFDE"/>
<path d="M186.691 31.1723C186.813 31.3871 186.951 31.5931 187.102 31.789L187.102 30.9668L186.691 30.9668L186.691 31.1723Z" fill="#DEDFDE"/>
<path d="M187.923 32.4861C188.052 32.5708 188.19 32.6397 188.334 32.6915L188.334 32.1985L187.923 32.1985L187.923 32.4861Z" fill="#DEDFDE"/>
<path d="M186.28 29.325L186.28 29.7359L186.691 29.7359L186.691 29.325L186.28 29.325Z" fill="#DEDFDE"/>
<path d="M186.445 30.5562C186.482 30.6996 186.537 30.8378 186.609 30.9671L186.691 30.9671L186.691 30.5562L186.445 30.5562Z" fill="#DEDFDE"/>
<path d="M186.609 28.0933C186.537 28.2226 186.482 28.3607 186.445 28.5042L186.691 28.5042L186.691 28.0933L186.609 28.0933Z" fill="#DEDFDE"/>
<path d="M194.085 32.6094L194.085 33.0203L194.496 33.0203L194.496 32.1985L194.085 32.1985L194.085 32.6094Z" fill="#DEDFDE"/>
<path d="M192.853 32.6094L192.853 33.0203L193.264 33.0203L193.264 32.1985L192.853 32.1985L192.853 32.6094Z" fill="#DEDFDE"/>
<path d="M191.621 32.6094L191.621 33.0203L192.032 33.0203L192.032 32.1985L191.621 32.1985L191.621 32.6094Z" fill="#DEDFDE"/>
<path d="M190.388 32.6094L190.388 33.0203L190.799 33.0203L190.799 32.1985L190.388 32.1985L190.388 32.6094Z" fill="#DEDFDE"/>
<path d="M189.156 32.6094L189.156 32.9775C189.279 32.9775 189.443 33.0187 189.567 33.0187L189.567 32.1985L189.156 32.1985L189.156 32.6094Z" fill="#DEDFDE"/>
<path d="M187.513 31.7878L187.102 31.7878C187.218 31.9446 187.356 32.0831 187.513 32.1988L187.924 32.1988L187.924 31.7878L187.513 31.7878Z" fill="#DEDFDE"/>
<path d="M187.102 27.6831L187.102 27.2722C186.951 27.468 186.813 27.6741 186.691 27.8889L186.691 28.0944L187.102 28.0944L187.102 27.6831Z" fill="#DEDFDE"/>
<path d="M195.729 26.4514L195.729 26.0405L195.318 26.0405L195.318 26.862L195.729 26.862L195.729 26.4514Z" fill="#DEDFDE"/>
<path d="M194.496 26.4514L194.496 26.0405L194.085 26.0405L194.085 26.862L194.496 26.862L194.496 26.4514Z" fill="#DEDFDE"/>
<path d="M198.194 26.4514L198.194 26.0405L197.783 26.0405L197.783 26.862L198.194 26.862L198.194 26.4514Z" fill="#DEDFDE"/>
<path d="M196.962 26.4514L196.962 26.0405L196.551 26.0405L196.551 26.862L196.962 26.862L196.962 26.4514Z" fill="#DEDFDE"/>
<path d="M193.264 26.4514L193.264 26.0405L192.853 26.0405L192.853 26.862L193.264 26.862L193.264 26.4514Z" fill="#DEDFDE"/>
<path d="M187.512 26.8616C187.365 26.9881 187.228 27.1254 187.102 27.2725L187.923 27.2725L187.923 26.8616L187.512 26.8616Z" fill="#DEDFDE"/>
<path d="M188.334 26.4513L188.334 26.3691C188.19 26.4209 188.052 26.4899 187.923 26.5746L187.923 26.8622L188.334 26.8622L188.334 26.4513Z" fill="#DEDFDE"/>
<path d="M189.567 26.4514L189.567 26.0405C189.444 26.0405 189.28 26.0817 189.156 26.0817L189.156 26.8607L189.567 26.8607L189.567 26.4514Z" fill="#DEDFDE"/>
<path d="M192.032 26.4514L192.032 26.0405L191.621 26.0405L191.621 26.862L192.032 26.862L192.032 26.4514Z" fill="#DEDFDE"/>
<path d="M190.8 26.4514L190.8 26.0405L190.389 26.0405L190.389 26.862L190.8 26.862L190.8 26.4514Z" fill="#DEDFDE"/>
<path d="M205.178 32.6094L205.178 33.0203L205.589 33.0203L205.589 32.1985L205.178 32.1985L205.178 32.6094Z" fill="#DEDFDE"/>
<path d="M213.805 32.6094L213.805 33.0203L214.216 33.0203L214.216 32.1985L213.805 32.1985L213.805 32.6094Z" fill="#DEDFDE"/>
<path d="M215.038 32.6094L215.038 33.0203L215.449 33.0203L215.449 32.1985L215.038 32.1985L215.038 32.6094Z" fill="#DEDFDE"/>
<path d="M196.551 32.6094L196.551 33.0203L196.962 33.0203L196.962 32.1985L196.551 32.1985L196.551 32.6094Z" fill="#DEDFDE"/>
<path d="M211.34 32.6094L211.34 33.0203L211.751 33.0203L211.751 32.1985L211.34 32.1985L211.34 32.6094Z" fill="#DEDFDE"/>
<path d="M212.572 32.6094L212.572 33.0203L212.983 33.0203L212.983 32.1985L212.572 32.1985L212.572 32.6094Z" fill="#DEDFDE"/>
<path d="M219.968 32.6094L219.968 33.0203L220.379 33.0203L220.379 32.1985L219.968 32.1985L219.968 32.6094Z" fill="#DEDFDE"/>
<path d="M221.2 32.6094L221.2 33.0203L221.611 33.0203L221.611 32.1985L221.2 32.1985L221.2 32.6094Z" fill="#DEDFDE"/>
<path d="M222.432 32.6094L222.432 33.0203L222.843 33.0203L222.843 32.1985L222.432 32.1985L222.432 32.6094Z" fill="#DEDFDE"/>
<path d="M218.735 32.6094L218.735 33.0203L219.146 33.0203L219.146 32.1985L218.735 32.1985L218.735 32.6094Z" fill="#DEDFDE"/>
<path d="M217.502 32.6094L217.502 33.0203L217.913 33.0203L217.913 32.1985L217.502 32.1985L217.502 32.6094Z" fill="#DEDFDE"/>
<path d="M210.108 32.6094L210.108 33.0203L210.519 33.0203L210.519 32.1985L210.108 32.1985L210.108 32.6094Z" fill="#DEDFDE"/>
<path d="M216.27 32.6094L216.27 33.0203L216.681 33.0203L216.681 32.1985L216.27 32.1985L216.27 32.6094Z" fill="#DEDFDE"/>
<path d="M201.48 32.6094L201.48 33.0203L201.891 33.0203L201.891 32.1985L201.48 32.1985L201.48 32.6094Z" fill="#DEDFDE"/>
<path d="M200.248 32.6094L200.248 33.0203L200.659 33.0203L200.659 32.1985L200.248 32.1985L200.248 32.6094Z" fill="#DEDFDE"/>
<path d="M208.875 32.6094L208.875 33.0203L209.286 33.0203L209.286 32.1985L208.875 32.1985L208.875 32.6094Z" fill="#DEDFDE"/>
<path d="M199.016 32.6094L199.016 33.0203L199.427 33.0203L199.427 32.1985L199.016 32.1985L199.016 32.6094Z" fill="#DEDFDE"/>
<path d="M202.713 32.6094L202.713 33.0203L203.124 33.0203L203.124 32.1985L202.713 32.1985L202.713 32.6094Z" fill="#DEDFDE"/>
<path d="M197.783 32.6094L197.783 33.0203L198.194 33.0203L198.194 32.1985L197.783 32.1985L197.783 32.6094Z" fill="#DEDFDE"/>
<path d="M206.411 32.6094L206.411 33.0203L206.822 33.0203L206.822 32.1985L206.411 32.1985L206.411 32.6094Z" fill="#DEDFDE"/>
<path d="M207.643 32.6094L207.643 33.0203L208.054 33.0203L208.054 32.1985L207.643 32.1985L207.643 32.6094Z" fill="#DEDFDE"/>
<path d="M203.945 32.6094L203.945 33.0203L204.356 33.0203L204.356 32.1985L203.945 32.1985L203.945 32.6094Z" fill="#DEDFDE"/>
<path d="M199.427 26.4514L199.427 26.0405L199.016 26.0405L199.016 26.862L199.427 26.862L199.427 26.4514Z" fill="#DEDFDE"/>
<path d="M210.519 26.4514L210.519 26.0405L210.108 26.0405L210.108 26.862L210.519 26.862L210.519 26.4514Z" fill="#DEDFDE"/>
<path d="M223.254 31.7878L222.843 31.7878L222.843 32.1988L223.665 32.1988L223.665 31.7878L223.254 31.7878Z" fill="#DEDFDE"/>
<path d="M191.21 29.325L190.799 29.325L190.799 29.7359L191.621 29.7359L191.621 29.325L191.21 29.325Z" fill="#DEDFDE"/>
<path d="M226.951 30.9671L227.034 30.9671C227.075 30.8437 227.157 30.6795 227.198 30.5562L226.541 30.5562L226.541 30.9671L226.951 30.9671Z" fill="#DEDFDE"/>
<path d="M196.962 30.9668L196.551 30.9668L196.551 31.7883L196.962 31.7883L196.962 30.9668Z" fill="#DEDFDE"/>
<path d="M192.442 29.325L192.031 29.325L192.031 29.7359L192.853 29.7359L192.853 29.325L192.442 29.325Z" fill="#DEDFDE"/>
<path d="M224.897 31.3777L224.897 31.7886L225.308 31.7886L225.308 30.9668L224.897 30.9668L224.897 31.3777Z" fill="#DEDFDE"/>
<path d="M193.675 29.325L193.264 29.325L193.264 29.7359L194.086 29.7359L194.086 29.325L193.675 29.325Z" fill="#DEDFDE"/>
<path d="M224.897 32.6094L224.897 32.8558C225.041 32.819 225.179 32.7638 225.308 32.6915L225.308 32.1985L224.897 32.1985L224.897 32.6094Z" fill="#DEDFDE"/>
<path d="M224.487 29.7359L224.898 29.7359L224.898 29.325L224.076 29.325L224.076 29.7359L224.487 29.7359Z" fill="#DEDFDE"/>
<path d="M188.745 29.325L188.334 29.325L188.334 29.7359L189.156 29.7359L189.156 29.325L188.745 29.325Z" fill="#DEDFDE"/>
<path d="M224.075 32.6094L224.075 32.1985L223.665 32.1985L223.665 33.02L224.075 33.02L224.075 32.6094Z" fill="#DEDFDE"/>
<path d="M194.496 30.9668L194.085 30.9668L194.085 31.7883L194.496 31.7883L194.496 30.9668Z" fill="#DEDFDE"/>
<path d="M199.838 29.325L199.427 29.325L199.427 29.7359L200.248 29.7359L200.248 29.325L199.838 29.325Z" fill="#DEDFDE"/>
<path d="M219.557 31.7878L219.146 31.7878L219.146 32.1988L219.968 32.1988L219.968 31.7878L219.557 31.7878Z" fill="#DEDFDE"/>
<path d="M198.194 30.9668L197.783 30.9668L197.783 31.7883L198.194 31.7883L198.194 30.9668Z" fill="#DEDFDE"/>
<path d="M222.022 31.7878L221.611 31.7878L221.611 32.1988L222.432 32.1988L222.432 31.7878L222.022 31.7878Z" fill="#DEDFDE"/>
<path d="M201.07 29.325L200.659 29.325L200.659 29.7359L201.481 29.7359L201.481 29.325L201.07 29.325Z" fill="#DEDFDE"/>
<path d="M198.605 29.325L198.194 29.325L198.194 29.7359L199.016 29.7359L199.016 29.325L198.605 29.325Z" fill="#DEDFDE"/>
<path d="M193.264 30.9668L192.853 30.9668L192.853 31.7883L193.264 31.7883L193.264 30.9668Z" fill="#DEDFDE"/>
<path d="M194.907 29.325L194.497 29.325L194.497 29.7359L195.318 29.7359L195.318 29.325L194.907 29.325Z" fill="#DEDFDE"/>
<path d="M196.139 29.325L195.729 29.325L195.729 29.7359L196.55 29.7359L196.55 29.325L196.139 29.325Z" fill="#DEDFDE"/>
<path d="M197.372 29.325L196.961 29.325L196.961 29.7359L197.783 29.7359L197.783 29.325L197.372 29.325Z" fill="#DEDFDE"/>
<path d="M220.789 31.7878L220.378 31.7878L220.378 32.1988L221.2 32.1988L221.2 31.7878L220.789 31.7878Z" fill="#DEDFDE"/>
<path d="M206.822 26.4514L206.822 26.0405L206.411 26.0405L206.411 26.862L206.822 26.862L206.822 26.4514Z" fill="#DEDFDE"/>
<path d="M218.324 31.7878L217.914 31.7878L217.914 32.1988L218.735 32.1988L218.735 31.7878L218.324 31.7878Z" fill="#DEDFDE"/>
<path d="M209.286 26.4514L209.286 26.0405L208.875 26.0405L208.875 26.862L209.286 26.862L209.286 26.4514Z" fill="#DEDFDE"/>
<path d="M212.984 26.4514L212.984 26.0405L212.573 26.0405L212.573 26.862L212.984 26.862L212.984 26.4514Z" fill="#DEDFDE"/>
<path d="M214.216 26.4514L214.216 26.0405L213.805 26.0405L213.805 26.862L214.216 26.862L214.216 26.4514Z" fill="#DEDFDE"/>
<path d="M211.751 26.4514L211.751 26.0405L211.34 26.0405L211.34 26.862L211.751 26.862L211.751 26.4514Z" fill="#DEDFDE"/>
<path d="M208.054 26.4514L208.054 26.0405L207.643 26.0405L207.643 26.862L208.054 26.862L208.054 26.4514Z" fill="#DEDFDE"/>
<path d="M201.891 26.4514L201.891 26.0405L201.48 26.0405L201.48 26.862L201.891 26.862L201.891 26.4514Z" fill="#DEDFDE"/>
<path d="M203.124 26.4514L203.124 26.0405L202.713 26.0405L202.713 26.862L203.124 26.862L203.124 26.4514Z" fill="#DEDFDE"/>
<path d="M204.356 26.4514L204.356 26.0405L203.945 26.0405L203.945 26.862L204.356 26.862L204.356 26.4514Z" fill="#DEDFDE"/>
<path d="M200.659 26.4514L200.659 26.0405L200.249 26.0405L200.249 26.862L200.659 26.862L200.659 26.4514Z" fill="#DEDFDE"/>
<path d="M205.589 26.4514L205.589 26.0405L205.178 26.0405L205.178 26.862L205.589 26.862L205.589 26.4514Z" fill="#DEDFDE"/>
<path d="M222.844 26.4514L222.844 26.0405L222.433 26.0405L222.433 26.862L222.844 26.862L222.844 26.4514Z" fill="#DEDFDE"/>
<path d="M224.075 26.4514L224.075 26.0405L223.665 26.0405L223.665 26.862L224.075 26.862L224.075 26.4514Z" fill="#DEDFDE"/>
<path d="M221.611 26.4514L221.611 26.0405L221.2 26.0405L221.2 26.862L221.611 26.862L221.611 26.4514Z" fill="#DEDFDE"/>
<path d="M215.449 26.4514L215.449 26.0405L215.038 26.0405L215.038 26.862L215.449 26.862L215.449 26.4514Z" fill="#DEDFDE"/>
<path d="M226.951 28.5042L227.198 28.5042C227.161 28.3607 227.106 28.2226 227.034 28.0933L226.541 28.0933L226.541 28.5042L226.951 28.5042Z" fill="#DEDFDE"/>
<path d="M225.308 26.4509L225.308 26.3688C225.185 26.3279 225.021 26.2458 224.897 26.2046L224.897 26.8619L225.308 26.8619L225.308 26.4509Z" fill="#DEDFDE"/>
<path d="M226.951 29.7359L227.362 29.7359L227.362 29.325L226.541 29.325L226.541 29.7359L226.951 29.7359Z" fill="#DEDFDE"/>
<path d="M217.913 26.4514L217.913 26.0405L217.502 26.0405L217.502 26.862L217.913 26.862L217.913 26.4514Z" fill="#DEDFDE"/>
<path d="M216.681 26.4514L216.681 26.0405L216.271 26.0405L216.271 26.862L216.681 26.862L216.681 26.4514Z" fill="#DEDFDE"/>
<path d="M219.146 26.4514L219.146 26.0405L218.735 26.0405L218.735 26.862L219.146 26.862L219.146 26.4514Z" fill="#DEDFDE"/>
<path d="M220.379 26.4514L220.379 26.0405L219.968 26.0405L219.968 26.862L220.379 26.862L220.379 26.4514Z" fill="#DEDFDE"/>
<path d="M217.092 30.5562L216.681 30.5562L216.681 30.9671L217.502 30.9671L217.502 30.5562L217.092 30.5562Z" fill="#DEDFDE"/>
<path d="M215.859 27.2725L216.27 27.2725L216.27 26.8616L215.448 26.8616L215.448 27.2725L215.859 27.2725Z" fill="#DEDFDE"/>
<path d="M218.324 27.2725L218.735 27.2725L218.735 26.8616L217.914 26.8616L217.914 27.2725L218.324 27.2725Z" fill="#DEDFDE"/>
<path d="M191.21 30.5562L190.799 30.5562L190.799 30.9671L191.621 30.9671L191.621 30.5562L191.21 30.5562Z" fill="#DEDFDE"/>
<path d="M193.675 30.5562L193.264 30.5562L193.264 30.9671L194.086 30.9671L194.086 30.5562L193.675 30.5562Z" fill="#DEDFDE"/>
<path d="M215.449 30.9668L215.038 30.9668L215.038 31.7883L215.449 31.7883L215.449 30.9668Z" fill="#DEDFDE"/>
<path d="M189.567 30.146L189.567 29.7351L189.156 29.7351L189.156 30.5566L189.567 30.5566L189.567 30.146Z" fill="#DEDFDE"/>
<path d="M219.557 27.2725L219.968 27.2725L219.968 26.8616L219.146 26.8616L219.146 27.2725L219.557 27.2725Z" fill="#DEDFDE"/>
<path d="M212.573 28.0937L212.984 28.0937L212.984 27.2722L212.573 27.2722L212.573 28.0937Z" fill="#DEDFDE"/>
<path d="M189.567 28.9151L189.567 28.5042L189.156 28.5042L189.156 29.3257L189.567 29.3257L189.567 28.9151Z" fill="#DEDFDE"/>
<path d="M189.978 30.5562L189.567 30.5562L189.567 30.9671L190.388 30.9671L190.388 30.5562L189.978 30.5562Z" fill="#DEDFDE"/>
<path d="M217.092 27.2725L217.502 27.2725L217.502 26.8616L216.681 26.8616L216.681 27.2725L217.092 27.2725Z" fill="#DEDFDE"/>
<path d="M192.442 30.5562L192.031 30.5562L192.031 30.9671L192.853 30.9671L192.853 30.5562L192.442 30.5562Z" fill="#DEDFDE"/>
<path d="M222.022 27.2725L222.433 27.2725L222.433 26.8616L221.611 26.8616L221.611 27.2725L222.022 27.2725Z" fill="#DEDFDE"/>
<path d="M198.605 30.5562L198.194 30.5562L198.194 30.9671L199.016 30.9671L199.016 30.5562L198.605 30.5562Z" fill="#DEDFDE"/>
<path d="M194.907 30.5562L194.497 30.5562L194.497 30.9671L195.318 30.9671L195.318 30.5562L194.907 30.5562Z" fill="#DEDFDE"/>
<path d="M201.07 30.5562L200.659 30.5562L200.659 30.9671L201.481 30.9671L201.481 30.5562L201.07 30.5562Z" fill="#DEDFDE"/>
<path d="M215.038 28.0937L215.449 28.0937L215.449 27.2722L215.038 27.2722L215.038 28.0937Z" fill="#DEDFDE"/>
<path d="M199.838 30.5562L199.427 30.5562L199.427 30.9671L200.248 30.9671L200.248 30.5562L199.838 30.5562Z" fill="#DEDFDE"/>
<path d="M196.139 30.5562L195.729 30.5562L195.729 30.9671L196.55 30.9671L196.55 30.5562L196.139 30.5562Z" fill="#DEDFDE"/>
<path d="M213.805 28.0937L214.216 28.0937L214.216 27.2722L213.805 27.2722L213.805 28.0937Z" fill="#DEDFDE"/>
<path d="M220.789 27.2725L221.2 27.2725L221.2 26.8616L220.378 26.8616L220.378 27.2725L220.789 27.2725Z" fill="#DEDFDE"/>
<path d="M197.372 30.5562L196.961 30.5562L196.961 30.9671L197.783 30.9671L197.783 30.5562L197.372 30.5562Z" fill="#DEDFDE"/>
<path d="M202.303 28.5042L202.713 28.5042L202.713 28.0933L201.892 28.0933L201.892 28.5042L202.303 28.5042Z" fill="#DEDFDE"/>
<path d="M208.875 28.0937L209.286 28.0937L209.286 27.2722L208.875 27.2722L208.875 28.0937Z" fill="#DEDFDE"/>
<path d="M199.838 28.5042L200.249 28.5042L200.249 28.0933L199.427 28.0933L199.427 28.5042L199.838 28.5042Z" fill="#DEDFDE"/>
<path d="M210.929 27.2725L211.34 27.2725L211.34 26.8616L210.519 26.8616L210.519 27.2725L210.929 27.2725Z" fill="#DEDFDE"/>
<path d="M197.372 28.5042L197.783 28.5042L197.783 28.0933L196.961 28.0933L196.961 28.5042L197.372 28.5042Z" fill="#DEDFDE"/>
<path d="M212.162 27.2725L212.573 27.2725L212.573 26.8616L211.751 26.8616L211.751 27.2725L212.162 27.2725Z" fill="#DEDFDE"/>
<path d="M198.605 28.5042L199.016 28.5042L199.016 28.0933L198.194 28.0933L198.194 28.5042L198.605 28.5042Z" fill="#DEDFDE"/>
<path d="M212.983 30.9668L212.572 30.9668L212.572 31.7883L212.983 31.7883L212.983 30.9668Z" fill="#DEDFDE"/>
<path d="M189.978 28.5042L190.389 28.5042L190.389 28.0933L189.567 28.0933L189.567 28.5042L189.978 28.5042Z" fill="#DEDFDE"/>
<path d="M201.07 28.5042L201.481 28.5042L201.481 28.0933L200.659 28.0933L200.659 28.5042L201.07 28.5042Z" fill="#DEDFDE"/>
<path d="M209.698 27.2725L210.108 27.2725L210.108 26.8616L209.287 26.8616L209.287 27.2725L209.698 27.2725Z" fill="#DEDFDE"/>
<path d="M223.254 27.2725L223.665 27.2725L223.665 26.8616L222.843 26.8616L222.843 27.2725L223.254 27.2725Z" fill="#DEDFDE"/>
<path d="M203.535 28.5042L203.946 28.5042L203.946 28.0933L203.124 28.0933L203.124 28.5042L203.535 28.5042Z" fill="#DEDFDE"/>
<path d="M196.139 28.5042L196.55 28.5042L196.55 28.0933L195.729 28.0933L195.729 28.5042L196.139 28.5042Z" fill="#DEDFDE"/>
<path d="M214.216 30.9668L213.805 30.9668L213.805 31.7883L214.216 31.7883L214.216 30.9668Z" fill="#DEDFDE"/>
<path d="M214.627 27.2725L215.038 27.2725L215.038 26.8616L214.216 26.8616L214.216 27.2725L214.627 27.2725Z" fill="#DEDFDE"/>
<path d="M211.34 28.0937L211.751 28.0937L211.751 27.2722L211.34 27.2722L211.34 28.0937Z" fill="#DEDFDE"/>
<path d="M191.21 28.5042L191.621 28.5042L191.621 28.0933L190.799 28.0933L190.799 28.5042L191.21 28.5042Z" fill="#DEDFDE"/>
<path d="M192.442 28.5042L192.853 28.5042L192.853 28.0933L192.031 28.0933L192.031 28.5042L192.442 28.5042Z" fill="#DEDFDE"/>
<path d="M194.907 28.5042L195.318 28.5042L195.318 28.0933L194.497 28.0933L194.497 28.5042L194.907 28.5042Z" fill="#DEDFDE"/>
<path d="M193.675 28.5042L194.086 28.5042L194.086 28.0933L193.264 28.0933L193.264 28.5042L193.675 28.5042Z" fill="#DEDFDE"/>
<path d="M210.108 28.0937L210.519 28.0937L210.519 27.2722L210.108 27.2722L210.108 28.0937Z" fill="#DEDFDE"/>
<path d="M213.394 27.2725L213.805 27.2725L213.805 26.8616L212.983 26.8616L212.983 27.2725L213.394 27.2725Z" fill="#DEDFDE"/>
<path d="M222.432 28.0937L222.843 28.0937L222.843 27.2722L222.432 27.2722L222.432 28.0937Z" fill="#DEDFDE"/>
<path d="M224.487 30.5562L224.076 30.5562L224.076 30.9671L224.897 30.9671L224.897 30.5562L224.487 30.5562Z" fill="#DEDFDE"/>
<path d="M224.487 31.7878L224.076 31.7878L224.076 32.1988L224.897 32.1988L224.897 31.7878L224.487 31.7878Z" fill="#DEDFDE"/>
<path d="M219.146 30.9668L218.735 30.9668L218.735 31.7883L219.146 31.7883L219.146 30.9668Z" fill="#DEDFDE"/>
<path d="M223.254 30.5562L222.843 30.5562L222.843 30.9671L223.665 30.9671L223.665 30.5562L223.254 30.5562Z" fill="#DEDFDE"/>
<path d="M224.075 30.9668L223.665 30.9668L223.665 31.7883L224.075 31.7883L224.075 30.9668Z" fill="#DEDFDE"/>
<path d="M222.022 30.5562L221.611 30.5562L221.611 30.9671L222.432 30.9671L222.432 30.5562L222.022 30.5562Z" fill="#DEDFDE"/>
<path d="M218.324 30.5562L217.914 30.5562L217.914 30.9671L218.735 30.9671L218.735 30.5562L218.324 30.5562Z" fill="#DEDFDE"/>
<path d="M225.308 31.7878L225.308 32.1988L226.13 32.1988L226.13 31.7878L225.308 31.7878Z" fill="#DEDFDE"/>
<path d="M220.789 30.5562L220.378 30.5562L220.378 30.9671L221.2 30.9671L221.2 30.5562L220.789 30.5562Z" fill="#DEDFDE"/>
<path d="M219.968 28.0937L220.379 28.0937L220.379 27.2722L219.968 27.2722L219.968 28.0937Z" fill="#DEDFDE"/>
<path d="M208.465 27.2725L208.876 27.2725L208.876 26.8616L208.054 26.8616L208.054 27.2725L208.465 27.2725Z" fill="#DEDFDE"/>
<path d="M219.557 30.5562L219.146 30.5562L219.146 30.9671L219.968 30.9671L219.968 30.5562L219.557 30.5562Z" fill="#DEDFDE"/>
<path d="M221.611 30.9668L221.2 30.9668L221.2 31.7883L221.611 31.7883L221.611 30.9668Z" fill="#DEDFDE"/>
<path d="M221.2 28.0937L221.611 28.0937L221.611 27.2722L221.2 27.2722L221.2 28.0937Z" fill="#DEDFDE"/>
<path d="M224.897 28.0937L225.308 28.0937L225.308 27.2722L224.897 27.2722L224.897 28.0937Z" fill="#DEDFDE"/>
<path d="M220.379 30.9668L219.968 30.9668L219.968 31.7883L220.379 31.7883L220.379 30.9668Z" fill="#DEDFDE"/>
<path d="M223.665 28.0937L224.075 28.0937L224.075 27.2722L223.665 27.2722L223.665 28.0937Z" fill="#DEDFDE"/>
<path d="M195.729 30.9668L195.318 30.9668L195.318 31.7883L195.729 31.7883L195.729 30.9668Z" fill="#DEDFDE"/>
<path d="M222.843 30.9668L222.432 30.9668L222.432 31.7883L222.843 31.7883L222.843 30.9668Z" fill="#DEDFDE"/>
<path d="M225.719 28.5042L226.13 28.5042L226.13 28.0933L225.308 28.0933L225.308 28.5042L225.719 28.5042Z" fill="#DEDFDE"/>
<path d="M225.308 30.5562L225.308 30.9671L226.13 30.9671L226.13 30.5562L225.308 30.5562Z" fill="#DEDFDE"/>
<path d="M225.308 29.325L225.308 29.7359L226.13 29.7359L226.13 29.325L225.308 29.325Z" fill="#DEDFDE"/>
<path d="M210.929 30.5562L210.519 30.5562L210.519 30.9671L211.34 30.9671L211.34 30.5562L210.929 30.5562Z" fill="#DEDFDE"/>
<path d="M225.719 27.2725L226.13 27.2725L226.13 26.8616L225.308 26.8616L225.308 27.2725L225.719 27.2725Z" fill="#DEDFDE"/>
<path d="M207.232 30.5562L206.821 30.5562L206.821 30.9671L207.642 30.9671L207.642 30.5562L207.232 30.5562Z" fill="#DEDFDE"/>
<path d="M208.465 30.5562L208.054 30.5562L208.054 30.9671L208.875 30.9671L208.875 30.5562L208.465 30.5562Z" fill="#DEDFDE"/>
<path d="M226.13 28.0937L226.541 28.0937L226.541 27.2722L226.13 27.2722L226.13 28.0937Z" fill="#DEDFDE"/>
<path d="M206 30.5562L205.589 30.5562L205.589 30.9671L206.41 30.9671L206.41 30.5562L206 30.5562Z" fill="#DEDFDE"/>
<path d="M204.767 30.5562L204.356 30.5562L204.356 30.9671L205.177 30.9671L205.177 30.5562L204.767 30.5562Z" fill="#DEDFDE"/>
<path d="M203.535 30.5562L203.124 30.5562L203.124 30.9671L203.946 30.9671L203.946 30.5562L203.535 30.5562Z" fill="#DEDFDE"/>
<path d="M216.681 30.9668L216.27 30.9668L216.27 31.7883L216.681 31.7883L216.681 30.9668Z" fill="#DEDFDE"/>
<path d="M226.13 31.3777L226.13 31.7886L226.541 31.7886L226.541 30.9668L226.13 30.9668L226.13 31.3777Z" fill="#DEDFDE"/>
<path d="M209.698 30.5562L209.287 30.5562L209.287 30.9671L210.108 30.9671L210.108 30.5562L209.698 30.5562Z" fill="#DEDFDE"/>
<path d="M216.27 28.0937L216.681 28.0937L216.681 27.2722L216.27 27.2722L216.27 28.0937Z" fill="#DEDFDE"/>
<path d="M224.487 27.2725L224.898 27.2725L224.898 26.8616L224.076 26.8616L224.076 27.2725L224.487 27.2725Z" fill="#DEDFDE"/>
<path d="M226.13 30.146L226.13 30.5569L226.541 30.5569L226.541 29.7351L226.13 29.7351L226.13 30.146Z" fill="#DEDFDE"/>
<path d="M214.627 30.5562L214.216 30.5562L214.216 30.9671L215.037 30.9671L215.037 30.5562L214.627 30.5562Z" fill="#DEDFDE"/>
<path d="M213.394 30.5562L212.983 30.5562L212.983 30.9671L213.805 30.9671L213.805 30.5562L213.394 30.5562Z" fill="#DEDFDE"/>
<path d="M215.859 30.5562L215.448 30.5562L215.448 30.9671L216.27 30.9671L216.27 30.5562L215.859 30.5562Z" fill="#DEDFDE"/>
<path d="M218.735 28.0937L219.146 28.0937L219.146 27.2722L218.735 27.2722L218.735 28.0937Z" fill="#DEDFDE"/>
<path d="M217.502 28.0937L217.913 28.0937L217.913 27.2722L217.502 27.2722L217.502 28.0937Z" fill="#DEDFDE"/>
<path d="M226.13 28.9151L226.13 29.3257L226.541 29.3257L226.541 28.5042L226.13 28.5042L226.13 28.9151Z" fill="#DEDFDE"/>
<path d="M202.303 30.5562L201.892 30.5562L201.892 30.9671L202.713 30.9671L202.713 30.5562L202.303 30.5562Z" fill="#DEDFDE"/>
<path d="M217.913 30.9668L217.502 30.9668L217.502 31.7883L217.913 31.7883L217.913 30.9668Z" fill="#DEDFDE"/>
<path d="M212.162 30.5562L211.751 30.5562L211.751 30.9671L212.572 30.9671L212.572 30.5562L212.162 30.5562Z" fill="#DEDFDE"/>
<path d="M201.891 29.7351L201.48 29.7351L201.48 30.5566L201.891 30.5566L201.891 29.7351Z" fill="#DEDFDE"/>
<path d="M208.054 30.9668L207.643 30.9668L207.643 31.7883L208.054 31.7883L208.054 30.9668Z" fill="#DEDFDE"/>
<path d="M206.822 29.7351L206.411 29.7351L206.411 30.5566L206.822 30.5566L206.822 29.7351Z" fill="#DEDFDE"/>
<path d="M197.783 28.0937L198.194 28.0937L198.194 27.2722L197.783 27.2722L197.783 28.0937Z" fill="#DEDFDE"/>
<path d="M209.286 29.7351L208.875 29.7351L208.875 30.5566L209.286 30.5566L209.286 29.7351Z" fill="#DEDFDE"/>
<path d="M188.745 27.2725L189.156 27.2725L189.156 26.8616L188.334 26.8616L188.334 27.2725L188.745 27.2725Z" fill="#DEDFDE"/>
<path d="M208.054 29.7351L207.643 29.7351L207.643 30.5566L208.054 30.5566L208.054 29.7351Z" fill="#DEDFDE"/>
<path d="M203.124 29.7351L202.713 29.7351L202.713 30.5566L203.124 30.5566L203.124 29.7351Z" fill="#DEDFDE"/>
<path d="M196.551 28.0937L196.962 28.0937L196.962 27.2722L196.551 27.2722L196.551 28.0937Z" fill="#DEDFDE"/>
<path d="M187.512 28.5042L187.923 28.5042L187.923 28.0933L187.102 28.0933L187.102 28.5042L187.512 28.5042Z" fill="#DEDFDE"/>
<path d="M205.589 29.7351L205.178 29.7351L205.178 30.5566L205.589 30.5566L205.589 29.7351Z" fill="#DEDFDE"/>
<path d="M204.356 29.7351L203.945 29.7351L203.945 30.5566L204.356 30.5566L204.356 29.7351Z" fill="#DEDFDE"/>
<path d="M188.334 27.6831L188.334 27.2722L187.923 27.2722L187.923 28.0937L188.334 28.0937L188.334 27.6831Z" fill="#DEDFDE"/>
<path d="M210.519 29.7351L210.108 29.7351L210.108 30.5566L210.519 30.5566L210.519 29.7351Z" fill="#DEDFDE"/>
<path d="M204.767 28.5042L205.178 28.5042L205.178 28.0933L204.356 28.0933L204.356 28.5042L204.767 28.5042Z" fill="#DEDFDE"/>
<path d="M214.216 29.7351L213.805 29.7351L213.805 30.5566L214.216 30.5566L214.216 29.7351Z" fill="#DEDFDE"/>
<path d="M192.442 27.2725L192.853 27.2725L192.853 26.8616L192.031 26.8616L192.031 27.2725L192.442 27.2725Z" fill="#DEDFDE"/>
<path d="M216.681 29.7351L216.27 29.7351L216.27 30.5566L216.681 30.5566L216.681 29.7351Z" fill="#DEDFDE"/>
<path d="M215.449 29.7351L215.038 29.7351L215.038 30.5566L215.449 30.5566L215.449 29.7351Z" fill="#DEDFDE"/>
<path d="M211.751 29.7351L211.34 29.7351L211.34 30.5566L211.751 30.5566L211.751 29.7351Z" fill="#DEDFDE"/>
<path d="M189.978 27.2725L190.389 27.2725L190.389 26.8616L189.567 26.8616L189.567 27.2725L189.978 27.2725Z" fill="#DEDFDE"/>
<path d="M199.016 28.0937L199.427 28.0937L199.427 27.2722L199.016 27.2722L199.016 28.0937Z" fill="#DEDFDE"/>
<path d="M212.983 29.7351L212.572 29.7351L212.572 30.5566L212.983 30.5566L212.983 29.7351Z" fill="#DEDFDE"/>
<path d="M191.21 27.2725L191.621 27.2725L191.621 26.8616L190.799 26.8616L190.799 27.2725L191.21 27.2725Z" fill="#DEDFDE"/>
<path d="M194.085 28.0937L194.496 28.0937L194.496 27.2722L194.085 27.2722L194.085 28.0937Z" fill="#DEDFDE"/>
<path d="M192.032 29.7351L191.621 29.7351L191.621 30.5566L192.032 30.5566L192.032 29.7351Z" fill="#DEDFDE"/>
<path d="M188.745 31.7878L188.334 31.7878L188.334 32.1988L189.156 32.1988L189.156 31.7878L188.745 31.7878Z" fill="#DEDFDE"/>
<path d="M188.334 31.3777L188.334 30.9668L187.923 30.9668L187.923 31.7883L188.334 31.7883L188.334 31.3777Z" fill="#DEDFDE"/>
<path d="M193.264 29.7351L192.853 29.7351L192.853 30.5566L193.264 30.5566L193.264 29.7351Z" fill="#DEDFDE"/>
<path d="M190.388 29.7359L190.388 29.325L189.567 29.325L189.567 29.7359L190.388 29.7359Z" fill="#DEDFDE"/>
<path d="M190.388 29.3257L190.799 29.3257L190.799 28.5042L190.388 28.5042L190.388 29.3257Z" fill="#DEDFDE"/>
<path d="M189.978 31.7878L189.567 31.7878L189.567 32.1988L190.388 32.1988L190.388 31.7878L189.978 31.7878Z" fill="#DEDFDE"/>
<path d="M194.496 29.7351L194.085 29.7351L194.085 30.5566L194.496 30.5566L194.496 29.7351Z" fill="#DEDFDE"/>
<path d="M190.799 29.7351L190.388 29.7351L190.388 30.5566L190.799 30.5566L190.799 29.7351Z" fill="#DEDFDE"/>
<path d="M205.589 30.9668L205.178 30.9668L205.178 31.7883L205.589 31.7883L205.589 30.9668Z" fill="#DEDFDE"/>
<path d="M187.513 30.5562L187.102 30.5562L187.102 30.9671L187.924 30.9671L187.924 30.5562L187.513 30.5562Z" fill="#DEDFDE"/>
<path d="M199.427 29.7351L199.016 29.7351L199.016 30.5566L199.427 30.5566L199.427 29.7351Z" fill="#DEDFDE"/>
<path d="M195.729 29.7351L195.318 29.7351L195.318 30.5566L195.729 30.5566L195.729 29.7351Z" fill="#DEDFDE"/>
<path d="M187.102 30.146L187.102 29.7351L186.691 29.7351L186.691 30.5566L187.102 30.5566L187.102 30.146Z" fill="#DEDFDE"/>
<path d="M200.659 29.7351L200.248 29.7351L200.248 30.5566L200.659 30.5566L200.659 29.7351Z" fill="#DEDFDE"/>
<path d="M187.102 28.9151L187.102 28.5042L186.691 28.5042L186.691 29.3257L187.102 29.3257L187.102 28.9151Z" fill="#DEDFDE"/>
<path d="M206.822 30.9668L206.411 30.9668L206.411 31.7883L206.822 31.7883L206.822 30.9668Z" fill="#DEDFDE"/>
<path d="M192.853 28.0937L193.264 28.0937L193.264 27.2722L192.853 27.2722L192.853 28.0937Z" fill="#DEDFDE"/>
<path d="M198.194 29.7351L197.783 29.7351L197.783 30.5566L198.194 30.5566L198.194 29.7351Z" fill="#DEDFDE"/>
<path d="M196.962 29.7351L196.551 29.7351L196.551 30.5566L196.962 30.5566L196.962 29.7351Z" fill="#DEDFDE"/>
<path d="M195.318 28.0937L195.729 28.0937L195.729 27.2722L195.318 27.2722L195.318 28.0937Z" fill="#DEDFDE"/>
<path d="M200.248 28.0937L200.659 28.0937L200.659 27.2722L200.248 27.2722L200.248 28.0937Z" fill="#DEDFDE"/>
<path d="M214.627 28.5042L215.038 28.5042L215.038 28.0933L214.216 28.0933L214.216 28.5042L214.627 28.5042Z" fill="#DEDFDE"/>
<path d="M203.535 27.2725L203.946 27.2725L203.946 26.8616L203.124 26.8616L203.124 27.2725L203.535 27.2725Z" fill="#DEDFDE"/>
<path d="M213.394 28.5042L213.805 28.5042L213.805 28.0933L212.983 28.0933L212.983 28.5042L213.394 28.5042Z" fill="#DEDFDE"/>
<path d="M205.178 28.0937L205.589 28.0937L205.589 27.2722L205.178 27.2722L205.178 28.0937Z" fill="#DEDFDE"/>
<path d="M211.751 30.9668L211.34 30.9668L211.34 31.7883L211.751 31.7883L211.751 30.9668Z" fill="#DEDFDE"/>
<path d="M201.07 27.2725L201.481 27.2725L201.481 26.8616L200.659 26.8616L200.659 27.2725L201.07 27.2725Z" fill="#DEDFDE"/>
<path d="M217.913 29.7351L217.502 29.7351L217.502 30.5566L217.913 30.5566L217.913 29.7351Z" fill="#DEDFDE"/>
<path d="M212.162 28.5042L212.573 28.5042L212.573 28.0933L211.751 28.0933L211.751 28.5042L212.162 28.5042Z" fill="#DEDFDE"/>
<path d="M218.324 28.5042L218.735 28.5042L218.735 28.0933L217.914 28.0933L217.914 28.5042L218.324 28.5042Z" fill="#DEDFDE"/>
<path d="M202.303 27.2725L202.713 27.2725L202.713 26.8616L201.892 26.8616L201.892 27.2725L202.303 27.2725Z" fill="#DEDFDE"/>
<path d="M217.092 28.5042L217.502 28.5042L217.502 28.0933L216.681 28.0933L216.681 28.5042L217.092 28.5042Z" fill="#DEDFDE"/>
<path d="M209.698 28.5042L210.108 28.5042L210.108 28.0933L209.287 28.0933L209.287 28.5042L209.698 28.5042Z" fill="#DEDFDE"/>
<path d="M204.767 27.2725L205.178 27.2725L205.178 26.8616L204.356 26.8616L204.356 27.2725L204.767 27.2725Z" fill="#DEDFDE"/>
<path d="M207.232 27.2725L207.643 27.2725L207.643 26.8616L206.821 26.8616L206.821 27.2725L207.232 27.2725Z" fill="#DEDFDE"/>
<path d="M206 28.5042L206.411 28.5042L206.411 28.0933L205.589 28.0933L205.589 28.5042L206 28.5042Z" fill="#DEDFDE"/>
<path d="M207.643 28.0937L208.054 28.0937L208.054 27.2722L207.643 27.2722L207.643 28.0937Z" fill="#DEDFDE"/>
<path d="M208.465 28.5042L208.876 28.5042L208.876 28.0933L208.054 28.0933L208.054 28.5042L208.465 28.5042Z" fill="#DEDFDE"/>
<path d="M207.232 28.5042L207.643 28.5042L207.643 28.0933L206.821 28.0933L206.821 28.5042L207.232 28.5042Z" fill="#DEDFDE"/>
<path d="M210.929 28.5042L211.34 28.5042L211.34 28.0933L210.519 28.0933L210.519 28.5042L210.929 28.5042Z" fill="#DEDFDE"/>
<path d="M206 27.2725L206.411 27.2725L206.411 26.8616L205.589 26.8616L205.589 27.2725L206 27.2725Z" fill="#DEDFDE"/>
<path d="M206.411 28.0937L206.822 28.0937L206.822 27.2722L206.411 27.2722L206.411 28.0937Z" fill="#DEDFDE"/>
<path d="M219.557 28.5042L219.968 28.5042L219.968 28.0933L219.146 28.0933L219.146 28.5042L219.557 28.5042Z" fill="#DEDFDE"/>
<path d="M215.859 28.5042L216.27 28.5042L216.27 28.0933L215.448 28.0933L215.448 28.5042L215.859 28.5042Z" fill="#DEDFDE"/>
<path d="M221.611 29.7351L221.2 29.7351L221.2 30.5566L221.611 30.5566L221.611 29.7351Z" fill="#DEDFDE"/>
<path d="M201.48 28.0937L201.891 28.0937L201.891 27.2722L201.48 27.2722L201.48 28.0937Z" fill="#DEDFDE"/>
<path d="M222.843 29.7351L222.432 29.7351L222.432 30.5566L222.843 30.5566L222.843 29.7351Z" fill="#DEDFDE"/>
<path d="M224.075 29.7351L223.665 29.7351L223.665 30.5566L224.075 30.5566L224.075 29.7351Z" fill="#DEDFDE"/>
<path d="M196.14 27.2725L196.551 27.2725L196.551 26.8616L195.729 26.8616L195.729 27.2725L196.14 27.2725Z" fill="#DEDFDE"/>
<path d="M219.146 29.7351L218.735 29.7351L218.735 30.5566L219.146 30.5566L219.146 29.7351Z" fill="#DEDFDE"/>
<path d="M224.897 30.146L224.897 30.5569L225.308 30.5569L225.308 29.7351L224.897 29.7351L224.897 30.146Z" fill="#DEDFDE"/>
<path d="M193.675 27.2725L194.086 27.2725L194.086 26.8616L193.264 26.8616L193.264 27.2725L193.675 27.2725Z" fill="#DEDFDE"/>
<path d="M209.286 30.9668L208.875 30.9668L208.875 31.7883L209.286 31.7883L209.286 30.9668Z" fill="#DEDFDE"/>
<path d="M194.907 27.2725L195.318 27.2725L195.318 26.8616L194.497 26.8616L194.497 27.2725L194.907 27.2725Z" fill="#DEDFDE"/>
<path d="M203.945 28.0937L204.356 28.0937L204.356 27.2722L203.945 27.2722L203.945 28.0937Z" fill="#DEDFDE"/>
<path d="M220.379 29.7351L219.968 29.7351L219.968 30.5566L220.379 30.5566L220.379 29.7351Z" fill="#DEDFDE"/>
<path d="M222.022 28.5042L222.433 28.5042L222.433 28.0933L221.611 28.0933L221.611 28.5042L222.022 28.5042Z" fill="#DEDFDE"/>
<path d="M223.254 28.5042L223.665 28.5042L223.665 28.0933L222.843 28.0933L222.843 28.5042L223.254 28.5042Z" fill="#DEDFDE"/>
<path d="M210.519 30.9668L210.108 30.9668L210.108 31.7883L210.519 31.7883L210.519 30.9668Z" fill="#DEDFDE"/>
<path d="M199.838 27.2725L200.249 27.2725L200.249 26.8616L199.427 26.8616L199.427 27.2725L199.838 27.2725Z" fill="#DEDFDE"/>
<path d="M197.372 27.2725L197.783 27.2725L197.783 26.8616L196.961 26.8616L196.961 27.2725L197.372 27.2725Z" fill="#DEDFDE"/>
<path d="M220.789 28.5042L221.2 28.5042L221.2 28.0933L220.378 28.0933L220.378 28.5042L220.789 28.5042Z" fill="#DEDFDE"/>
<path d="M202.713 28.0937L203.124 28.0937L203.124 27.2722L202.713 27.2722L202.713 28.0937Z" fill="#DEDFDE"/>
<path d="M224.897 29.3257L225.308 29.3257L225.308 28.5042L224.897 28.5042L224.897 29.3257Z" fill="#DEDFDE"/>
<path d="M198.605 27.2725L199.016 27.2725L199.016 26.8616L198.194 26.8616L198.194 27.2725L198.605 27.2725Z" fill="#DEDFDE"/>
<path d="M224.487 28.5042L224.898 28.5042L224.898 28.0933L224.076 28.0933L224.076 28.5042L224.487 28.5042Z" fill="#DEDFDE"/>
<path d="M223.87 32.6087L189.772 32.6087C188.957 32.6029 188.176 32.2766 187.6 31.7005C187.023 31.1244 186.697 30.3447 186.691 29.5299C186.697 28.7152 187.023 27.9355 187.6 27.3594C188.176 26.7833 188.957 26.457 189.772 26.4512L223.87 26.4512C224.686 26.457 225.466 26.7833 226.043 27.3594C226.619 27.9355 226.946 28.7152 226.952 29.5299C226.946 30.3447 226.619 31.1244 226.043 31.7005C225.466 32.2766 224.686 32.6029 223.87 32.6087V32.6087ZM189.772 26.8618C189.064 26.8618 188.385 27.1429 187.884 27.6433C187.383 28.1436 187.102 28.8223 187.102 29.5299C187.102 30.2376 187.383 30.9163 187.884 31.4166C188.385 31.917 189.064 32.1981 189.772 32.1981L223.87 32.1981C224.579 32.1981 225.258 31.917 225.759 31.4166C226.259 30.9163 226.541 30.2376 226.541 29.5299C226.541 28.8223 226.259 28.1436 225.759 27.6433C225.258 27.1429 224.579 26.8618 223.87 26.8618L189.772 26.8618Z" fill="#C9C9C9"/>
<mask id="mask0_723_22857" style="mask-type:alpha" maskUnits="userSpaceOnUse" x="19" y="17" width="373" height="805">
<path d="M347.322 821.211L64.2674 821.211C61.2582 821.218 58.2563 820.916 55.3091 820.309C49.6421 819.14 44.2565 816.882 39.4515 813.66C32.3072 808.866 26.7233 802.088 23.3884 794.161C22.2367 791.482 21.3692 788.689 20.8002 785.828C20.193 782.884 19.8905 779.884 19.8976 776.878L19.8976 61.7948C19.888 52.9621 22.5203 44.328 27.4567 37.0008C32.3032 29.8907 39.0903 24.32 47.0119 20.9505C49.6937 19.7997 52.4889 18.9329 55.3516 18.3644C58.2842 17.7553 61.2722 17.4527 64.2675 17.4615L110.237 17.4615C111.13 17.4499 112.009 17.6766 112.784 18.1182C112.948 18.2003 113.113 18.3235 113.277 18.4056C113.846 18.7827 114.347 19.2543 114.756 19.8001C114.958 20.0864 115.137 20.3885 115.29 20.7034C115.535 21.3172 115.66 21.972 115.66 22.6328L115.66 29.1607C115.657 33.727 117.468 38.1078 120.696 41.3405C123.923 44.5733 128.303 46.3936 132.873 46.4016L278.756 46.4016C283.326 46.4045 287.711 44.5946 290.946 41.3696C294.181 38.1446 296.003 33.7682 296.011 29.2019L296.011 23.2493C296.011 23.0852 296.052 22.9208 296.052 22.7566C296.055 21.8484 296.296 20.9568 296.751 20.1705C297.146 19.5299 297.662 18.9722 298.271 18.5285L299.01 18.0365C299.766 17.6267 300.614 17.4147 301.475 17.4203L347.322 17.4203C350.331 17.4137 353.332 17.7164 356.278 18.3235C361.945 19.4925 367.331 21.7505 372.136 24.9721C379.28 29.7656 384.864 36.5437 388.199 44.4706C389.351 47.1503 390.218 49.9432 390.787 52.8037C391.395 55.7477 391.698 58.7464 391.691 61.7523L391.691 776.837C391.698 779.843 391.395 782.841 390.787 785.786C389.617 791.448 387.357 796.829 384.133 801.631C379.336 808.769 372.552 814.349 364.619 817.681C361.938 818.832 359.142 819.699 356.28 820.267C353.337 820.908 350.334 821.224 347.322 821.211V821.211Z" fill="#FCFCFC"/>
</mask>
<g mask="url(#mask0_723_22857)">
<g clip-path="url(#clip0_723_22857)">
<rect width="375" height="811.031" transform="translate(18 14)" fill="#5AC8FA"/>
<circle cx="211.5" cy="374" r="50" fill="white" fill-opacity="0.2"/>
<circle cx="208.5" cy="371" r="50" fill="white" fill-opacity="0.2"/>
<circle cx="205.5" cy="368" r="50" fill="white"/>
<path d="M195.386 343C185.784 343 178 350.995 178 360.857V375.143C178 385.005 185.784 393 195.386 393H212.772L203.817 393C194.215 393 186.431 385.005 186.431 375.143V360.265C186.431 352.794 192.328 346.738 199.602 346.738C203.1 346.738 203.718 347.352 205.993 348.205C203.497 345.585 200.758 343 195.386 343Z" fill="#5AC8FA"/>
<path d="M203.817 393C194.215 393 186.431 385.005 186.431 375.143V360.265C186.431 352.794 192.328 346.738 199.602 346.738C203.1 346.738 203.718 347.352 205.993 348.205L203.817 393Z" fill="url(#paint0_linear_723_22857)"/>
<path fill-rule="evenodd" clip-rule="evenodd" d="M217.605 343C226.108 343 233 349.546 233 357.62V373.7C233 384.359 223.901 393 212.677 393H202.21V357.62C202.21 349.546 209.103 343 217.605 343ZM222.101 371.054C224.362 371.054 226.194 369.313 226.194 367.166C226.194 365.019 224.362 363.278 222.101 363.278C219.84 363.278 218.007 365.019 218.007 367.166C218.007 369.313 219.84 371.054 222.101 371.054Z" fill="#5AC8FA"/>
<path d="M167.092 444.605C167.092 448.895 165.908 452.199 163.541 454.52C161.186 456.84 157.869 458 153.592 458H145.277V432.301H154.172C158.297 432.301 161.479 433.355 163.717 435.465C165.967 437.574 167.092 440.621 167.092 444.605ZM159.885 444.852C159.885 442.496 159.416 440.75 158.479 439.613C157.553 438.477 156.141 437.908 154.242 437.908H152.221V452.305H153.768C155.877 452.305 157.424 451.695 158.408 450.477C159.393 449.246 159.885 447.371 159.885 444.852ZM190.33 447.998C190.33 451.256 189.451 453.799 187.693 455.627C185.947 457.443 183.498 458.352 180.346 458.352C177.322 458.352 174.914 457.42 173.121 455.557C171.34 453.693 170.449 451.174 170.449 447.998C170.449 444.752 171.322 442.232 173.068 440.439C174.826 438.635 177.287 437.732 180.451 437.732C182.408 437.732 184.137 438.148 185.637 438.98C187.137 439.812 188.291 441.008 189.1 442.566C189.92 444.113 190.33 445.924 190.33 447.998ZM177.428 447.998C177.428 449.709 177.656 451.016 178.113 451.918C178.57 452.809 179.338 453.254 180.416 453.254C181.482 453.254 182.232 452.809 182.666 451.918C183.111 451.016 183.334 449.709 183.334 447.998C183.334 446.299 183.111 445.016 182.666 444.148C182.221 443.281 181.459 442.848 180.381 442.848C179.326 442.848 178.57 443.281 178.113 444.148C177.656 445.004 177.428 446.287 177.428 447.998ZM213.287 447.998C213.287 451.256 212.408 453.799 210.65 455.627C208.904 457.443 206.455 458.352 203.303 458.352C200.279 458.352 197.871 457.42 196.078 455.557C194.297 453.693 193.406 451.174 193.406 447.998C193.406 444.752 194.279 442.232 196.025 440.439C197.783 438.635 200.244 437.732 203.408 437.732C205.365 437.732 207.094 438.148 208.594 438.98C210.094 439.812 211.248 441.008 212.057 442.566C212.877 444.113 213.287 445.924 213.287 447.998ZM200.385 447.998C200.385 449.709 200.613 451.016 201.07 451.918C201.527 452.809 202.295 453.254 203.373 453.254C204.439 453.254 205.189 452.809 205.623 451.918C206.068 451.016 206.291 449.709 206.291 447.998C206.291 446.299 206.068 445.016 205.623 444.148C205.178 443.281 204.416 442.848 203.338 442.848C202.283 442.848 201.527 443.281 201.07 444.148C200.613 445.004 200.385 446.287 200.385 447.998ZM229.248 437.732C229.846 437.732 230.414 437.779 230.953 437.873L231.34 437.943L230.725 444.43C230.162 444.289 229.383 444.219 228.387 444.219C226.887 444.219 225.797 444.564 225.117 445.256C224.438 445.936 224.098 446.92 224.098 448.209V458H217.225V438.084H222.34L223.412 441.266H223.746C224.32 440.211 225.117 439.361 226.137 438.717C227.168 438.061 228.205 437.732 229.248 437.732ZM241.043 458H234.17V438.084H241.043V458ZM233.994 433.127C233.994 432.096 234.281 431.328 234.855 430.824C235.43 430.32 236.355 430.068 237.633 430.068C238.91 430.068 239.842 430.326 240.428 430.842C241.014 431.357 241.307 432.119 241.307 433.127C241.307 435.143 240.082 436.15 237.633 436.15C235.207 436.15 233.994 435.143 233.994 433.127ZM258.41 458V447.137C258.41 445.812 258.217 444.816 257.83 444.148C257.455 443.469 256.846 443.129 256.002 443.129C254.842 443.129 254.004 443.592 253.488 444.518C252.973 445.443 252.715 447.031 252.715 449.281V458H245.842V438.084H251.027L251.889 440.545H252.293C252.879 439.607 253.688 438.904 254.719 438.436C255.762 437.967 256.957 437.732 258.305 437.732C260.508 437.732 262.219 438.371 263.438 439.648C264.668 440.926 265.283 442.725 265.283 445.045V458H258.41Z" fill="#FCFCFC"/>
<path opacity="0.01" d="M393 14H18V57.9475H393V14Z" fill="white"/>
<g opacity="0.35">
<path opacity="0.35" d="M374.005 30.813H357.339C356.142 30.813 355.172 31.782 355.172 32.9774V38.9692C355.172 40.1646 356.142 41.1337 357.339 41.1337H374.005C375.202 41.1337 376.172 40.1646 376.172 38.9692V32.9774C376.172 31.782 375.202 30.813 374.005 30.813Z" stroke="#FCFCFC" stroke-miterlimit="10"/>
</g>
<path opacity="0.4" d="M377.672 33.9761V37.9713C378.065 37.8058 378.401 37.528 378.638 37.1726C378.874 36.8173 379 36.4002 379 35.9737C379 35.5471 378.874 35.1301 378.638 34.7747C378.401 34.4194 378.065 34.1416 377.672 33.9761" fill="#FCFCFC"/>
<path d="M373.339 32.311H358.005C357.269 32.311 356.672 32.9071 356.672 33.6424V38.3039C356.672 39.0392 357.269 39.6353 358.005 39.6353H373.339C374.075 39.6353 374.672 39.0392 374.672 38.3039V33.6424C374.672 32.9071 374.075 32.311 373.339 32.311Z" fill="#FCFCFC"/>
<path d="M342.006 41.2982C341.964 41.2981 341.923 41.2898 341.885 41.2738C341.847 41.2579 341.813 41.2346 341.784 41.2053L339.778 39.1857C339.747 39.1559 339.723 39.1199 339.706 39.0802C339.69 39.0405 339.682 38.9979 339.684 38.955C339.684 38.9124 339.693 38.8704 339.71 38.8314C339.728 38.7925 339.752 38.7574 339.784 38.7283C340.404 38.2046 341.19 37.9174 342.002 37.9174C342.814 37.9174 343.6 38.2046 344.221 38.7283C344.252 38.7571 344.278 38.792 344.296 38.831C344.313 38.87 344.323 38.9122 344.324 38.9551C344.325 38.9979 344.317 39.0404 344.301 39.0801C344.284 39.1198 344.26 39.1557 344.23 39.1857L342.228 41.2053C342.199 41.2346 342.164 41.2579 342.126 41.2738C342.088 41.2898 342.047 41.2981 342.006 41.2982V41.2982ZM345.529 37.7534C345.449 37.7533 345.372 37.7226 345.314 37.6675C344.408 36.8489 343.229 36.3956 342.008 36.3956C340.786 36.3956 339.608 36.8489 338.702 37.6675C338.644 37.7226 338.567 37.7533 338.487 37.7534C338.446 37.7536 338.405 37.7457 338.367 37.7301C338.33 37.7145 338.295 37.6915 338.267 37.6625L337.107 36.4929C337.076 36.463 337.052 36.4273 337.035 36.3878C337.019 36.3484 337.01 36.306 337.01 36.2632C337.01 36.2204 337.019 36.1781 337.035 36.1386C337.052 36.0992 337.076 36.0634 337.107 36.0335C338.437 34.7987 340.186 34.1125 342.002 34.1125C343.818 34.1125 345.567 34.7987 346.898 36.0335C346.929 36.0632 346.954 36.0988 346.971 36.1383C346.988 36.1777 346.997 36.2202 346.998 36.2632C346.998 36.3059 346.99 36.3482 346.973 36.3877C346.957 36.4272 346.933 36.463 346.903 36.4929L345.748 37.6625C345.719 37.6914 345.685 37.7142 345.647 37.7298C345.61 37.7454 345.569 37.7534 345.529 37.7534V37.7534ZM348.198 35.0636C348.158 35.064 348.118 35.0564 348.081 35.0413C348.044 35.0262 348.011 35.0039 347.983 34.9758C346.37 33.4456 344.23 32.5924 342.005 32.5924C339.78 32.5924 337.641 33.4456 336.028 34.9758C335.999 35.0044 335.965 35.027 335.928 35.0425C335.891 35.058 335.851 35.066 335.81 35.066C335.77 35.066 335.73 35.058 335.692 35.0425C335.655 35.027 335.621 35.0044 335.593 34.9758L334.433 33.8072C334.403 33.7772 334.379 33.7416 334.363 33.7025C334.346 33.6633 334.338 33.6213 334.338 33.5789C334.338 33.5365 334.346 33.4946 334.363 33.4554C334.379 33.4162 334.403 33.3807 334.433 33.3507C336.47 31.4024 339.182 30.3149 342.003 30.3149C344.824 30.3149 347.536 31.4024 349.574 33.3507C349.604 33.3807 349.627 33.4162 349.644 33.4554C349.66 33.4946 349.668 33.5365 349.668 33.5789C349.668 33.6213 349.66 33.6633 349.644 33.7025C349.627 33.7416 349.604 33.7772 349.574 33.8072L348.413 34.9758C348.355 35.0321 348.278 35.0637 348.198 35.0636V35.0636Z" fill="#FCFCFC"/>
<path d="M328.339 41.3012H327.339C327.074 41.3012 326.819 41.196 326.632 41.0087C326.444 40.8214 326.339 40.5673 326.339 40.3024V31.6458C326.339 31.3809 326.444 31.1268 326.632 30.9395C326.819 30.7522 327.074 30.647 327.339 30.647H328.339C328.604 30.647 328.858 30.7522 329.046 30.9395C329.234 31.1268 329.339 31.3809 329.339 31.6458V40.3024C329.339 40.5673 329.234 40.8214 329.046 41.0087C328.858 41.196 328.604 41.3012 328.339 41.3012ZM323.672 41.3012H322.672C322.407 41.3012 322.152 41.196 321.965 41.0087C321.777 40.8214 321.672 40.5673 321.672 40.3024V33.977C321.672 33.7121 321.777 33.458 321.965 33.2707C322.152 33.0834 322.407 32.9782 322.672 32.9782H323.672C323.937 32.9782 324.191 33.0834 324.379 33.2707C324.567 33.458 324.672 33.7121 324.672 33.977V40.3024C324.672 40.5672 324.567 40.8211 324.379 41.0083C324.192 41.1956 323.938 41.301 323.673 41.3012H323.672ZM319.005 41.3012H318.005C317.74 41.3012 317.485 41.196 317.298 41.0087C317.11 40.8214 317.005 40.5673 317.005 40.3024V36.3072C317.005 36.0423 317.11 35.7883 317.298 35.6009C317.485 35.4136 317.74 35.3084 318.005 35.3084H319.005C319.27 35.3084 319.524 35.4136 319.712 35.6009C319.9 35.7883 320.005 36.0423 320.005 36.3072V40.3024C320.005 40.5673 319.9 40.8214 319.712 41.0087C319.524 41.196 319.27 41.3012 319.005 41.3012ZM314.339 41.3012H313.339C313.074 41.3012 312.819 41.196 312.632 41.0087C312.444 40.8214 312.339 40.5673 312.339 40.3024V38.3048C312.339 38.0399 312.444 37.7859 312.632 37.5986C312.819 37.4112 313.074 37.306 313.339 37.306H314.339C314.604 37.306 314.858 37.4112 315.046 37.5986C315.234 37.7859 315.339 38.0399 315.339 38.3048V40.3024C315.339 40.5673 315.234 40.8214 315.046 41.0087C314.858 41.196 314.604 41.3012 314.339 41.3012Z" fill="#FCFCFC"/>
<path d="M55.3423 29.1384C57.7886 29.1384 59.7075 30.8816 59.7075 34.595V34.6096C59.7075 38.1472 58.0376 40.2493 55.3276 40.2493C53.2842 40.2493 51.7681 39.0408 51.4385 37.3855L51.4238 37.3196H53.5918L53.6138 37.3855C53.8701 38.0447 54.4707 38.4915 55.3203 38.4915C56.8511 38.4915 57.5249 36.99 57.6055 35.0637C57.6055 34.9905 57.6055 34.9099 57.6055 34.8293H57.459C57.0781 35.6423 56.1992 36.3748 54.7344 36.3748C52.6763 36.3748 51.292 34.9099 51.292 32.9104V32.8958C51.292 30.7351 52.9619 29.1384 55.3423 29.1384ZM55.3423 34.7415C56.4336 34.7415 57.2759 33.9651 57.2759 32.8738V32.8591C57.2759 31.7532 56.4336 30.8962 55.3569 30.8962C54.2876 30.8962 53.4307 31.7385 53.4307 32.8152V32.8298C53.4307 33.9431 54.2363 34.7415 55.3423 34.7415ZM63.106 33.3132C62.3589 33.3132 61.8169 32.7639 61.8169 32.0461C61.8169 31.321 62.3589 30.7717 63.106 30.7717C63.8604 30.7717 64.395 31.321 64.395 32.0461C64.395 32.7639 63.8604 33.3132 63.106 33.3132ZM63.106 38.616C62.3589 38.616 61.8169 38.0667 61.8169 37.3489C61.8169 36.6238 62.3589 36.0745 63.106 36.0745C63.8604 36.0745 64.395 36.6238 64.395 37.3489C64.395 38.0667 63.8604 38.616 63.106 38.616ZM71.6826 39.9856V38.0447H66.5044V36.3088C67.8447 33.9285 69.2803 31.5847 70.6865 29.4167H73.792V36.2722H75.1689V38.0447H73.792V39.9856H71.6826ZM68.4966 36.3308H71.7266V31.094H71.6094C70.584 32.6687 69.4487 34.5071 68.4966 36.2136V36.3308ZM79.4902 39.9856V31.5042H79.3584L76.7656 33.3059V31.3137L79.4976 29.4167H81.7021V39.9856H79.4902Z" fill="#FCFCFC"/>
<path d="M270.5 811.048H141.5C140.119 811.048 139 812.166 139 813.545C139 814.924 140.119 816.042 141.5 816.042H270.5C271.881 816.042 273 814.924 273 813.545C273 812.166 271.881 811.048 270.5 811.048Z" fill="#FCFCFC"/>
</g>
</g>
<defs>
<linearGradient id="paint0_linear_723_22857" x1="178.077" y1="369.869" x2="207.07" y2="369.869" gradientUnits="userSpaceOnUse">
<stop stop-color="#5AC8FA"/>
<stop offset="0.094673" stop-color="#6ACDFA" stop-opacity="0.905327"/>
<stop offset="0.178011" stop-color="#77D2FB" stop-opacity="0.821989"/>
<stop offset="0.266558" stop-color="#86D7FB" stop-opacity="0.733442"/>
<stop offset="0.381148" stop-color="#99DDFC" stop-opacity="0.618852"/>
<stop offset="0.480113" stop-color="#A9E2FC" stop-opacity="0.519887"/>
<stop offset="0.568659" stop-color="#B7E7FD" stop-opacity="0.436549"/>
<stop offset="0.651998" stop-color="#C5ECFD" stop-opacity="0.352205"/>
<stop offset="0.750962" stop-color="#D5F1FE" stop-opacity="0.252045"/>
<stop offset="0.860343" stop-color="#E8F7FE" stop-opacity="0.141343"/>
<stop offset="1" stop-color="white" stop-opacity="0"/>
</linearGradient>
<clipPath id="clip0_723_22857">
<rect width="375" height="811.031" fill="white" transform="translate(18 14)"/>
</clipPath>
</defs>
</svg>
