<svg width="15" height="14" viewBox="0 0 15 14" fill="none" xmlns="http://www.w3.org/2000/svg">
<g clip-path="url(#clip0_1103_495)">
<path d="M8.99219 9.55273H12.2207C13.5215 9.55273 14.207 8.84375 14.207 7.87109C14.207 6.86914 13.5332 6.14844 12.4727 5.90234C12.4082 5.89062 12.3789 5.84961 12.3848 5.7793C12.3965 5.52734 12.4199 5.24023 12.4023 5C12.2852 3.17773 10.9141 1.66016 8.99805 1.66016C7.46289 1.66016 6.58398 2.5332 6.00391 3.55273C5.97461 3.61133 5.93359 3.62305 5.86914 3.60547C4.63281 3.24805 3.33203 3.81641 3.33203 5.53906C3.33203 5.60938 3.30273 5.65039 3.22656 5.65039C1.98438 5.65039 1.27539 6.49414 1.27539 7.61328C1.27539 8.69727 2.04297 9.55273 3.47266 9.55273H6.45508V10.2734H3.47852C1.62695 10.2734 0.548828 9.10156 0.548828 7.61328C0.548828 6.27148 1.38086 5.24023 2.67578 5.08203C2.68164 3.46484 4.31641 2.46875 5.64648 2.85547C6.29688 1.80664 7.39844 0.939453 8.99805 0.939453C11.3242 0.939453 13.1465 2.80859 13.1055 5.36914C14.2598 5.7793 14.9336 6.74023 14.9336 7.87109C14.9336 9.24219 13.9258 10.2734 12.2207 10.2734H8.99219V9.55273ZM7.72656 13.7129C7.63281 13.7129 7.55664 13.6777 7.46289 13.5957L5.40039 11.6211C5.33008 11.5508 5.29492 11.4746 5.29492 11.3809C5.29492 11.1992 5.42969 11.0645 5.61719 11.0645C5.70508 11.0645 5.80469 11.1055 5.86914 11.1699L6.86523 12.166L7.39258 12.7109L7.36328 11.8555V6.6582C7.36328 6.46484 7.52734 6.30664 7.72656 6.30664C7.91992 6.30664 8.08398 6.46484 8.08398 6.6582V11.8555L8.05469 12.7051L8.57617 12.166L9.57227 11.1699C9.64258 11.1055 9.73633 11.0645 9.82422 11.0645C10.0059 11.0645 10.1465 11.1992 10.1465 11.3809C10.1465 11.4746 10.1172 11.5508 10.041 11.6211L7.98438 13.5957C7.89062 13.6777 7.81445 13.7129 7.72656 13.7129Z" fill="#007AFF"/>
</g>
<defs>
<clipPath id="clip0_1103_495">
<rect width="15" height="14" fill="white"/>
</clipPath>
</defs>
</svg>
