<svg width="20" height="20" viewBox="0 0 20 20" fill="none" xmlns="http://www.w3.org/2000/svg">
<path fill-rule="evenodd" clip-rule="evenodd" d="M13.3153 15.96C13.9536 15.7111 14.4003 15.364 14.6556 14.9186C15.1147 14.1027 15.6822 13.0352 16.3581 11.7161L17.1747 11.7836C17.842 11.9478 18.2062 12.3289 18.5103 12.7121C18.7797 13.1079 18.888 13.6086 18.8353 14.2141C18.7885 14.8087 18.6138 15.3921 18.3113 15.9641C18.0088 16.5362 17.6337 17.0065 17.1855 17.3748C16.7373 17.7432 16.271 17.933 15.7865 17.9443C11.8666 17.9835 5.72945 17.9363 2.04173 17.8027C1.60243 17.7815 1.28927 17.7215 1.10224 17.6227C0.508148 17.3087 0.353596 16.882 0.638586 16.343L3.12687 11.5563C3.34205 11.1492 3.57642 10.879 3.82995 10.7455C4.08928 10.6011 4.47712 10.5598 4.99342 10.6216L5.4745 10.6764C6.27058 12.0933 7.09002 13.5205 7.93283 14.9579C8.20232 15.4033 8.64198 15.7439 9.25187 15.9797C9.86173 16.2155 10.5354 16.3333 11.273 16.3333C12.0105 16.3333 12.6913 16.2089 13.3153 15.96Z" fill="black"/>
<path d="M19.0205 2.53711H19.0284C19.0402 2.53711 19.0487 2.53828 19.0537 2.53906C19.0572 2.54352 19.0647 2.55297 19.0733 2.57129C19.0769 2.58011 19.0849 2.60828 19.0869 2.66602C19.086 2.66936 19.0854 2.67335 19.084 2.67773C19.0727 2.71452 19.0528 2.77044 19.0205 2.84766C18.9561 3.00175 18.8546 3.21494 18.7139 3.49023L18.71 3.49805C18.4332 4.06423 17.7024 5.62548 16.5215 8.17383L16.5205 8.17578C15.6438 10.0878 14.9129 11.6354 14.3262 12.8203L13.7891 13.8809C13.6322 14.1771 13.3441 14.4397 12.8614 14.6436L12.8575 14.6445C12.3777 14.8517 11.8484 14.959 11.2637 14.959C10.6753 14.959 10.1508 14.8567 9.68362 14.6611C9.28705 14.4951 9.01549 14.2783 8.8389 14.0205L8.76956 13.9082C7.14043 10.8996 5.61089 7.93909 4.18167 5.02637L3.57523 3.78027C3.39525 3.39541 3.34488 3.17715 3.34476 3.08301C3.34476 2.81358 3.40676 2.70372 3.44339 2.66309C3.47161 2.63199 3.54518 2.57422 3.7598 2.57422H3.76273L9.15433 2.53711C9.46569 2.53713 9.67311 2.57993 9.80667 2.63477L9.91702 2.69238L9.92679 2.69922C10.0425 2.77442 10.2118 2.9775 10.3858 3.42969L10.3867 3.43262L12.1973 8.06152C12.2604 8.22723 12.3646 8.38968 12.5284 8.50879C12.6965 8.63091 12.8884 8.67871 13.0742 8.67871C13.261 8.67868 13.4468 8.63067 13.6123 8.52051C13.7749 8.41215 13.8903 8.26239 13.9698 8.10352L13.9727 8.09668L13.9766 8.08984L16.418 2.7959C16.4861 2.65443 16.5442 2.57106 16.585 2.52734C16.5929 2.51891 16.5996 2.51312 16.6045 2.50879C16.6507 2.50475 16.7371 2.5001 16.877 2.5L19.0205 2.53711Z" fill="black" stroke="black"/>
</svg>
