<svg width="20" height="20" viewBox="0 0 20 20" fill="none" xmlns="http://www.w3.org/2000/svg">
<path d="M3.57227 8.72461C3.57227 7.99544 3.70898 7.30957 3.98242 6.66699C4.26042 6.02441 4.64323 5.46159 5.13086 4.97852C5.61849 4.49089 6.18132 4.11035 6.81934 3.83691C7.46191 3.55892 8.14779 3.41992 8.87695 3.41992C9.60612 3.41992 10.2897 3.55892 10.9277 3.83691C11.5703 4.11035 12.1354 4.49089 12.623 4.97852C13.1107 5.46159 13.4912 6.02441 13.7646 6.66699C14.0426 7.30957 14.1816 7.99544 14.1816 8.72461C14.1816 9.34896 14.0768 9.94368 13.8672 10.5088C13.6621 11.0739 13.3773 11.5798 13.0127 12.0264L16.5537 15.5947C16.6175 15.654 16.6654 15.7223 16.6973 15.7998C16.7292 15.8773 16.7451 15.9616 16.7451 16.0527C16.7451 16.1712 16.7178 16.2806 16.6631 16.3809C16.6084 16.4857 16.5309 16.5677 16.4307 16.627C16.335 16.6862 16.2233 16.7158 16.0957 16.7158C16.0046 16.7158 15.918 16.6976 15.8359 16.6611C15.7585 16.6292 15.6878 16.5837 15.624 16.5244L12.0625 12.9492C11.6204 13.2865 11.1283 13.5508 10.5859 13.7422C10.0436 13.9336 9.47396 14.0293 8.87695 14.0293C8.14779 14.0293 7.46191 13.8926 6.81934 13.6191C6.18132 13.3411 5.61849 12.9583 5.13086 12.4707C4.64323 11.9831 4.26042 11.4202 3.98242 10.7822C3.70898 10.1396 3.57227 9.45378 3.57227 8.72461ZM4.46094 8.72461C4.46094 9.33073 4.57487 9.90267 4.80273 10.4404C5.0306 10.9736 5.34733 11.443 5.75293 11.8486C6.15853 12.2497 6.62793 12.5664 7.16113 12.7988C7.69434 13.0267 8.26628 13.1406 8.87695 13.1406C9.48763 13.1406 10.0596 13.0267 10.5928 12.7988C11.126 12.5664 11.5931 12.2497 11.9941 11.8486C12.3997 11.443 12.7165 10.9736 12.9443 10.4404C13.1768 9.90267 13.293 9.33073 13.293 8.72461C13.293 8.11393 13.1768 7.54199 12.9443 7.00879C12.7165 6.47559 12.3997 6.00618 11.9941 5.60059C11.5931 5.19499 11.126 4.87826 10.5928 4.65039C10.0596 4.41797 9.48763 4.30176 8.87695 4.30176C8.26628 4.30176 7.69434 4.41797 7.16113 4.65039C6.62793 4.87826 6.15853 5.19499 5.75293 5.60059C5.34733 6.00618 5.0306 6.47559 4.80273 7.00879C4.57487 7.54199 4.46094 8.11393 4.46094 8.72461Z" fill="black"/>
</svg>
