<svg width="1445" height="584" viewBox="0 0 1445 584" fill="none" xmlns="http://www.w3.org/2000/svg">
<path d="M181.487 344.397L179.197 343.074C179.428 341.827 179.428 340.547 179.197 339.3L181.487 337.978C181.75 337.827 181.869 337.515 181.783 337.225C181.186 335.311 180.17 333.58 178.842 332.139C178.638 331.918 178.304 331.865 178.046 332.015L175.756 333.338C174.793 332.51 173.686 331.87 172.487 331.451V328.811C172.487 328.51 172.277 328.246 171.982 328.182C170.009 327.741 167.987 327.763 166.111 328.182C165.815 328.246 165.605 328.51 165.605 328.811V331.456C164.412 331.881 163.304 332.521 162.337 333.343L160.052 332.021C159.788 331.87 159.46 331.918 159.256 332.144C157.928 333.58 156.912 335.311 156.315 337.23C156.224 337.521 156.347 337.832 156.611 337.983L158.901 339.305C158.67 340.553 158.67 341.832 158.901 343.08L156.611 344.402C156.347 344.553 156.229 344.865 156.315 345.155C156.912 347.069 157.928 348.8 159.256 350.241C159.46 350.461 159.794 350.515 160.052 350.365L162.342 349.042C163.304 349.87 164.412 350.51 165.611 350.929V353.574C165.611 353.875 165.82 354.139 166.116 354.203C168.089 354.644 170.111 354.623 171.987 354.203C172.283 354.139 172.492 353.875 172.492 353.574V350.929C173.686 350.504 174.793 349.865 175.761 349.042L178.052 350.365C178.315 350.515 178.643 350.467 178.847 350.241C180.175 348.805 181.191 347.074 181.788 345.155C181.869 344.859 181.75 344.547 181.487 344.397V344.397ZM169.046 345.488C166.675 345.488 164.745 343.558 164.745 341.187C164.745 338.816 166.675 336.886 169.046 336.886C171.417 336.886 173.347 338.816 173.347 341.187C173.347 343.558 171.417 345.488 169.046 345.488Z" fill="#FCFCFC"/>
<path d="M227.382 351.193C227.382 352.115 228.126 352.859 229.048 352.859H237.382V344.526H227.382V351.193ZM240.715 352.859H249.048C249.97 352.859 250.715 352.115 250.715 351.193V344.526H240.715V352.859ZM250.715 336.193H248.522C248.845 335.562 249.048 334.865 249.048 334.109C249.048 331.583 246.991 329.526 244.465 329.526C242.298 329.526 240.897 330.635 239.1 333.083C237.303 330.635 235.902 329.526 233.736 329.526C231.21 329.526 229.152 331.583 229.152 334.109C229.152 334.865 229.35 335.562 229.678 336.193H227.382C226.46 336.193 225.715 336.937 225.715 337.859V342.026C225.715 342.484 226.09 342.859 226.548 342.859H251.548C252.007 342.859 252.382 342.484 252.382 342.026V337.859C252.382 336.937 251.637 336.193 250.715 336.193ZM233.73 336.193C232.579 336.193 231.647 335.26 231.647 334.109C231.647 332.958 232.579 332.026 233.73 332.026C234.767 332.026 235.533 332.198 238.215 336.193H233.73ZM244.465 336.193H239.98C242.658 332.208 243.402 332.026 244.465 332.026C245.616 332.026 246.548 332.958 246.548 334.109C246.548 335.26 245.616 336.193 244.465 336.193Z" fill="#FCFCFC"/>
<path d="M389.736 334.526H369.882C369.421 334.526 369.048 334.153 369.048 333.693C369.048 333.232 369.421 332.859 369.882 332.859H389.882C390.342 332.859 390.715 332.486 390.715 332.026C390.715 330.645 389.596 329.526 388.215 329.526H369.048C367.207 329.526 365.715 331.018 365.715 332.859V349.526C365.715 351.367 367.207 352.859 369.048 352.859H389.736C391.195 352.859 392.382 351.738 392.382 350.359V337.026C392.382 335.647 391.195 334.526 389.736 334.526ZM387.382 345.359C386.461 345.359 385.715 344.613 385.715 343.693C385.715 342.772 386.461 342.026 387.382 342.026C388.302 342.026 389.048 342.772 389.048 343.693C389.048 344.613 388.302 345.359 387.382 345.359Z" fill="#FCFCFC"/>
<path d="M462.382 341.193C462.382 348.558 456.411 354.526 449.048 354.526C441.685 354.526 435.715 348.558 435.715 341.193C435.715 333.832 441.685 327.859 449.048 327.859C456.411 327.859 462.382 333.832 462.382 341.193ZM449.406 332.268C446.476 332.268 444.607 333.502 443.14 335.696C442.95 335.98 443.013 336.363 443.286 336.57L445.151 337.984C445.431 338.197 445.83 338.146 446.047 337.87C447.008 336.652 447.666 335.946 449.128 335.946C450.227 335.946 451.585 336.653 451.585 337.718C451.585 338.523 450.92 338.936 449.836 339.544C448.571 340.253 446.898 341.136 446.898 343.343V343.558C446.898 343.915 447.187 344.203 447.543 344.203H450.554C450.91 344.203 451.199 343.915 451.199 343.558V343.487C451.199 341.956 455.671 341.893 455.671 337.752C455.671 334.633 452.436 332.268 449.406 332.268V332.268ZM449.048 345.601C447.684 345.601 446.575 346.711 446.575 348.074C446.575 349.438 447.684 350.548 449.048 350.548C450.412 350.548 451.521 349.438 451.521 348.074C451.521 346.711 450.412 345.601 449.048 345.601Z" fill="#FCFCFC"/>
<path d="M314.075 331.859L304.023 341.193L314.075 350.526" stroke="#FCFCFC" stroke-width="2" stroke-linecap="round" stroke-linejoin="round"/>
<path d="M183.657 407.101L176.157 414.184C175.367 414.931 174.049 414.377 174.049 413.275V409.527C166.519 409.578 163.342 411.356 165.467 418.452C165.7 419.232 164.798 419.835 164.164 419.354C162.135 417.813 160.299 414.864 160.299 411.887C160.299 404.391 166.424 402.903 174.049 402.861V399.11C174.049 398.007 175.367 397.455 176.157 398.201L183.657 405.284C184.179 405.777 184.18 406.608 183.657 407.101V407.101ZM174.049 417.606V421.193H157.382V404.526H160.034C160.118 404.526 160.201 404.509 160.279 404.476C160.356 404.443 160.426 404.394 160.484 404.334C161.263 403.523 162.163 402.881 163.141 402.371C163.721 402.069 163.506 401.193 162.853 401.193H156.549C155.168 401.193 154.049 402.312 154.049 403.693V422.026C154.049 423.407 155.168 424.526 156.549 424.526H174.882C176.263 424.526 177.382 423.407 177.382 422.026V417.401C177.382 416.969 176.955 416.668 176.548 416.812C175.978 417.014 175.367 417.074 174.768 416.988C174.389 416.933 174.049 417.223 174.049 417.606V417.606Z" fill="#FCFCFC"/>
<path d="M248.216 409.526H246.966V405.776C246.966 401.411 243.414 397.859 239.049 397.859C234.685 397.859 231.133 401.411 231.133 405.776V409.526H229.883C228.503 409.526 227.383 410.646 227.383 412.026V422.026C227.383 423.406 228.503 424.526 229.883 424.526H248.216C249.596 424.526 250.716 423.406 250.716 422.026V412.026C250.716 410.646 249.596 409.526 248.216 409.526ZM242.799 409.526H235.299V405.776C235.299 403.708 236.982 402.026 239.049 402.026C241.117 402.026 242.799 403.708 242.799 405.776V409.526Z" fill="#FCFCFC"/>
<path d="M312.445 410.016L306.82 408.37C306.169 408.182 305.716 407.573 305.716 406.896C305.716 406.047 306.403 405.359 307.252 405.359H310.705C311.341 405.359 311.966 405.552 312.486 405.906C312.804 406.12 313.231 406.068 313.502 405.802L315.315 404.031C315.684 403.672 315.632 403.073 315.221 402.755C313.945 401.755 312.351 401.198 310.716 401.193V398.693C310.716 398.234 310.341 397.859 309.882 397.859H308.216C307.757 397.859 307.382 398.234 307.382 398.693V401.193H307.252C303.934 401.193 301.268 404.042 301.575 407.422C301.794 409.823 303.627 411.776 305.94 412.453L311.278 414.016C311.929 414.208 312.382 414.812 312.382 415.49C312.382 416.339 311.695 417.026 310.846 417.026H307.393C306.757 417.026 306.132 416.833 305.611 416.479C305.294 416.266 304.867 416.318 304.596 416.583L302.783 418.354C302.413 418.714 302.466 419.312 302.877 419.63C304.153 420.63 305.747 421.187 307.382 421.193V423.693C307.382 424.151 307.757 424.526 308.216 424.526H309.882C310.341 424.526 310.716 424.151 310.716 423.693V421.182C313.143 421.135 315.419 419.693 316.221 417.396C317.341 414.187 315.46 410.896 312.445 410.016V410.016Z" fill="#FCFCFC"/>
<path d="M448.021 423.988C440.454 413.017 439.049 411.891 439.049 407.859C439.049 402.336 443.526 397.859 449.049 397.859C454.572 397.859 459.049 402.336 459.049 407.859C459.049 411.891 457.644 413.017 450.077 423.988C449.58 424.705 448.518 424.705 448.021 423.988ZM449.049 412.026C451.35 412.026 453.215 410.161 453.215 407.859C453.215 405.558 451.35 403.693 449.049 403.693C446.748 403.693 444.882 405.558 444.882 407.859C444.882 410.161 446.748 412.026 449.049 412.026Z" fill="#FCFCFC"/>
<path d="M389.198 402.577C388.612 401.99 387.916 401.525 387.149 401.207C386.383 400.89 385.561 400.726 384.732 400.726C383.902 400.726 383.081 400.89 382.315 401.207C381.548 401.525 380.852 401.99 380.266 402.577L379.049 403.794L377.831 402.577C376.647 401.392 375.04 400.727 373.365 400.727C371.69 400.727 370.083 401.392 368.899 402.577C367.714 403.761 367.049 405.368 367.049 407.043C367.049 408.718 367.714 410.325 368.899 411.509L370.116 412.727L379.049 421.659L387.981 412.727L389.198 411.509C389.785 410.923 390.25 410.227 390.568 409.46C390.885 408.694 391.049 407.873 391.049 407.043C391.049 406.214 390.885 405.392 390.568 404.626C390.25 403.86 389.785 403.163 389.198 402.577V402.577Z" stroke="#FCFCFC" stroke-width="2" stroke-linecap="round" stroke-linejoin="round"/>
<path d="M4 515.196C87.7248 362.552 232.138 124.737 348.749 237.961C511.29 395.781 585.035 262.4 656.39 184.271C698.416 146.108 726.226 155.667 853.94 295.133C938.954 387.969 1068.29 327 1149.09 192.991C1187.78 128.816 1324.18 24.6778 1440.53 243.966" stroke="#FCFCFC" stroke-opacity="0.3" stroke-width="8" stroke-linecap="round"/>
<g filter="url(#filter0_d_1195_3894)">
<rect width="200.031" height="251.262" rx="16" transform="matrix(0.984653 -0.174524 0.172776 0.984961 650.049 34.9105)" fill="#ECECEC"/>
</g>
<path d="M679.57 203.199L876.532 168.289L887.659 231.724C889.186 240.428 883.37 248.734 874.669 250.276L709.217 279.601C700.516 281.143 692.224 275.338 690.698 266.634L679.57 203.199Z" fill="white"/>
<path d="M727.087 80.4569L718.399 74.3416L727.087 80.4569ZM695.663 69.1851C694.464 62.351 699.004 55.834 705.802 54.629C712.601 53.424 719.084 57.9872 720.283 64.8213C721.482 71.6554 716.942 78.1723 710.143 79.3773C703.345 80.5823 696.862 76.0192 695.663 69.1851Z" stroke="#01212F" stroke-opacity="0.64" stroke-width="2.5" stroke-linecap="round" stroke-linejoin="round"/>
<path d="M794.376 71.3856C794.264 71.4056 794.15 71.3971 794.043 71.3609C793.936 71.3247 793.84 71.2619 793.763 71.1784C793.687 71.0949 793.632 70.9934 793.605 70.8832C793.578 70.773 793.579 70.6576 793.608 70.5479L796.883 57.911L790.194 59.0967L787.088 63.563C787.011 63.6718 786.904 63.7552 786.78 63.8028C786.656 63.8504 786.521 63.8601 786.392 63.8305C786.262 63.802 786.144 63.7356 786.052 63.6397C785.959 63.5437 785.898 63.4225 785.874 63.2913L783.307 48.6586C783.285 48.5272 783.302 48.3921 783.356 48.2702C783.409 48.1484 783.498 48.0453 783.61 47.974C783.722 47.9017 783.852 47.8643 783.985 47.8664C784.118 47.8685 784.247 47.91 784.356 47.9858L788.794 51.1152L795.483 49.9295L788.139 39.1749C788.076 39.0841 788.036 38.979 788.023 38.869C788.009 38.759 788.023 38.6475 788.063 38.5442C788.103 38.4409 788.168 38.3491 788.251 38.2768C788.335 38.2045 788.435 38.1539 788.542 38.1296C789.883 37.8919 791.26 37.9454 792.578 38.2865C793.897 38.6276 795.128 39.2484 796.189 40.1072L806.024 48.0613L813.527 46.7313C814.53 46.5388 815.569 46.7253 816.443 47.2549C817.318 47.7845 817.968 48.6201 818.267 49.6013C818.42 50.1477 818.456 50.7202 818.374 51.2816C818.292 51.843 818.094 52.3809 817.792 52.8604C817.491 53.3399 817.092 53.7504 816.622 54.0653C816.153 54.3801 815.623 54.5923 815.066 54.6881L807.424 56.0427L800.889 66.8983C800.184 68.0699 799.239 69.0765 798.115 69.8505C796.992 70.6244 795.717 71.1479 794.376 71.3856V71.3856ZM789.689 57.8145L797.682 56.3978C797.793 56.3783 797.907 56.3871 798.013 56.4234C798.12 56.4596 798.215 56.5221 798.292 56.6052C798.374 56.6906 798.432 56.7963 798.461 56.9117C798.49 57.027 798.487 57.1479 798.455 57.2621L795.201 69.7922C797.101 69.1912 798.718 67.9147 799.75 66.2017L806.436 55.0793C806.486 54.9974 806.552 54.927 806.631 54.8729C806.709 54.8187 806.799 54.782 806.893 54.7652L814.833 53.3579C815.207 53.2954 815.563 53.1542 815.879 52.9434C816.195 52.7326 816.463 52.457 816.665 52.1348C816.864 51.8139 816.993 51.4548 817.045 51.0806C817.097 50.7064 817.07 50.3254 816.966 49.9622C816.76 49.3033 816.318 48.7445 815.726 48.3936C815.134 48.0426 814.434 47.9244 813.761 48.0616L805.959 49.4443C805.865 49.4608 805.769 49.457 805.677 49.4332C805.584 49.4094 805.498 49.366 805.423 49.3061L795.343 41.1556C793.795 39.9027 791.846 39.2585 789.86 39.343L797.192 50.0244C797.261 50.1205 797.305 50.2334 797.317 50.3516C797.329 50.4698 797.31 50.5892 797.262 50.6978C797.219 50.802 797.15 50.8937 797.062 50.9643C796.975 51.035 796.871 51.0824 796.76 51.1022L788.76 52.5201C788.673 52.5361 788.584 52.5346 788.498 52.5158C788.411 52.497 788.329 52.4612 788.257 52.4105L784.912 50.027L786.916 61.4538L789.253 58.0906C789.304 58.018 789.369 57.9563 789.444 57.9089C789.519 57.8615 789.602 57.8294 789.689 57.8145Z" fill="#01212F" fill-opacity="0.64" stroke="#01212F" stroke-opacity="0.64"/>
<path d="M713.585 142.685C714.545 148.157 719.783 151.844 725.227 150.879C730.67 149.914 734.338 144.648 733.378 139.177C732.418 133.706 727.18 130.018 721.736 130.983C716.293 131.948 712.625 137.214 713.585 142.685ZM731.049 139.59C731.783 143.774 728.978 147.801 724.816 148.538C720.654 149.276 716.647 146.457 715.913 142.272C715.18 138.088 717.985 134.061 722.147 133.324C726.309 132.586 730.316 135.406 731.049 139.59Z" fill="#01212F" fill-opacity="0.64" stroke="#01212F" stroke-opacity="0.64" stroke-width="0.5"/>
<path d="M715.568 163.573C718.109 159.924 721.886 157.505 726.253 156.731C730.619 155.957 734.991 156.932 738.621 159.486L739.988 157.525C735.85 154.638 730.819 153.508 725.842 154.39C720.865 155.272 716.522 158.063 713.616 162.199L715.568 163.573Z" fill="#01212F" fill-opacity="0.64" stroke="#01212F" stroke-opacity="0.64" stroke-width="0.5"/>
<path d="M753.618 237.961L751.373 238.359L742.825 229.332L744.618 239.556L742.373 239.954L739.968 226.243L742.213 225.845L750.758 234.852L748.968 224.648L751.213 224.25L753.618 237.961ZM754.857 232.095C754.666 231.005 754.72 230 755.019 229.08C755.331 228.158 755.834 227.399 756.528 226.802C757.232 226.19 758.058 225.8 759.003 225.632C759.856 225.481 760.628 225.52 761.318 225.75C762.019 225.964 762.603 226.287 763.072 226.719L762.795 225.143L765.06 224.741L766.964 235.595L764.699 235.997L764.416 234.382C764.125 234.961 763.681 235.48 763.085 235.938C762.488 236.396 761.77 236.699 760.93 236.848C759.997 237.013 759.103 236.928 758.245 236.592C757.385 236.244 756.651 235.683 756.041 234.911C755.443 234.124 755.048 233.185 754.857 232.095ZM763.746 230.56C763.614 229.811 763.343 229.189 762.931 228.693C762.532 228.195 762.058 227.846 761.508 227.646C760.959 227.445 760.395 227.396 759.818 227.498C759.24 227.601 758.727 227.841 758.279 228.218C757.828 228.582 757.494 229.068 757.275 229.676C757.068 230.267 757.03 230.938 757.161 231.686C757.292 232.435 757.559 233.065 757.96 233.576C758.374 234.085 758.857 234.446 759.409 234.66C759.971 234.858 760.535 234.907 761.1 234.807C761.677 234.704 762.19 234.465 762.638 234.087C763.087 233.71 763.413 233.219 763.618 232.614C763.834 231.993 763.877 231.308 763.746 230.56ZM773.755 232.32L775.275 222.931L777.658 222.508L775.427 234.095L772.748 234.57L766.729 224.445L769.131 224.02L773.755 232.32ZM793.391 231.724L793.757 233.812L782.768 235.76L782.402 233.672L793.391 231.724ZM797.596 220.64C797.884 220.047 798.328 219.528 798.927 219.084C799.537 218.624 800.248 218.321 801.062 218.177C802.021 218.007 802.928 218.084 803.783 218.406C804.638 218.728 805.364 219.277 805.96 220.051C806.554 220.813 806.946 221.738 807.137 222.828C807.329 223.918 807.277 224.936 806.983 225.882C806.686 226.815 806.186 227.594 805.484 228.22C804.792 228.83 803.974 229.218 803.029 229.386C802.188 229.535 801.411 229.503 800.697 229.291C799.996 229.077 799.411 228.748 798.94 228.303L799.216 229.879L796.971 230.277L794.414 215.699L796.659 215.301L797.596 220.64ZM804.853 223.233C804.722 222.485 804.451 221.869 804.042 221.386C803.643 220.888 803.163 220.547 802.603 220.362C802.053 220.161 801.49 220.112 800.912 220.215C800.348 220.315 799.835 220.555 799.373 220.934C798.925 221.312 798.592 221.804 798.374 222.411C798.168 223.017 798.131 223.693 798.263 224.442C798.394 225.19 798.66 225.82 799.061 226.332C799.473 226.827 799.954 227.175 800.503 227.376C801.066 227.574 801.63 227.623 802.194 227.523C802.772 227.421 803.285 227.181 803.733 226.803C804.192 226.411 804.523 225.905 804.726 225.287C804.942 224.666 804.984 223.982 804.853 223.233ZM808.609 222.567C808.418 221.477 808.472 220.473 808.771 219.553C809.083 218.631 809.586 217.872 810.28 217.275C810.985 216.662 811.81 216.272 812.755 216.105C813.608 215.953 814.38 215.993 815.07 216.222C815.771 216.437 816.355 216.76 816.824 217.191L816.547 215.615L818.812 215.214L820.716 226.068L818.451 226.47L818.168 224.854C817.877 225.434 817.433 225.953 816.837 226.41C816.24 226.868 815.522 227.172 814.682 227.321C813.749 227.486 812.855 227.401 811.997 227.065C811.137 226.717 810.403 226.156 809.794 225.384C809.195 224.596 808.8 223.657 808.609 222.567ZM817.498 221.033C817.366 220.284 817.095 219.662 816.683 219.166C816.284 218.668 815.81 218.319 815.26 218.118C814.711 217.918 814.147 217.869 813.57 217.971C812.992 218.074 812.479 218.313 812.031 218.691C811.58 219.055 811.246 219.541 811.027 220.148C810.82 220.74 810.782 221.41 810.913 222.159C811.044 222.908 811.311 223.538 811.712 224.049C812.126 224.558 812.609 224.919 813.161 225.132C813.723 225.331 814.287 225.38 814.852 225.28C815.429 225.177 815.942 224.937 816.39 224.56C816.839 224.183 817.165 223.691 817.37 223.086C817.587 222.466 817.629 221.781 817.498 221.033ZM824.282 215.869C824.514 215.26 824.872 214.756 825.357 214.358C825.853 213.946 826.476 213.673 827.224 213.54L827.632 215.865L827.061 215.966C826.181 216.122 825.551 216.464 825.169 216.992C824.801 217.517 824.714 218.332 824.908 219.435L825.91 225.148L823.665 225.546L821.761 214.691L824.006 214.293L824.282 215.869Z" fill="#01212F"/>
<rect x="1148.05" y="63.0569" width="150" height="150.781" rx="16" fill="white"/>
<ellipse cx="1223.05" cy="113.317" rx="30" ry="30.1561" fill="#01212F"/>
<path d="M1202.08 166.228L1201.48 168.996H1203.6V170.596H1201.15L1200.51 173.556H1198.76L1199.4 170.596H1196.27L1195.63 173.556H1193.88L1194.52 170.596H1192.04V168.996H1194.86L1195.45 166.228H1192.99V164.628H1195.79L1196.41 161.716H1198.16L1197.53 164.628H1200.67L1201.29 161.716H1203.04L1202.41 164.628H1204.54V166.228H1202.08ZM1200.33 166.228H1197.2L1196.6 168.996H1199.74L1200.33 166.228ZM1206.46 167.572C1206.46 165.727 1206.77 164.287 1207.39 163.252C1208.02 162.207 1209.1 161.684 1210.62 161.684C1212.15 161.684 1213.22 162.207 1213.84 163.252C1214.47 164.287 1214.78 165.727 1214.78 167.572C1214.78 169.439 1214.47 170.9 1213.84 171.956C1213.22 173.002 1212.15 173.524 1210.62 173.524C1209.1 173.524 1208.02 173.002 1207.39 171.956C1206.77 170.9 1206.46 169.439 1206.46 167.572ZM1212.99 167.572C1212.99 166.708 1212.93 165.978 1212.81 165.38C1212.71 164.783 1212.48 164.298 1212.14 163.924C1211.8 163.54 1211.29 163.348 1210.62 163.348C1209.95 163.348 1209.44 163.54 1209.1 163.924C1208.76 164.298 1208.53 164.783 1208.41 165.38C1208.31 165.978 1208.25 166.708 1208.25 167.572C1208.25 168.468 1208.31 169.22 1208.41 169.828C1208.52 170.436 1208.74 170.927 1209.09 171.3C1209.44 171.674 1209.95 171.86 1210.62 171.86C1211.29 171.86 1211.8 171.674 1212.14 171.3C1212.49 170.927 1212.72 170.436 1212.83 169.828C1212.94 169.22 1212.99 168.468 1212.99 167.572ZM1216.47 163.556V161.892H1219.8V173.556H1217.96V163.556H1216.47ZM1223.31 171.076C1224.34 170.191 1225.14 169.466 1225.73 168.9C1226.33 168.324 1226.82 167.727 1227.22 167.108C1227.61 166.49 1227.81 165.871 1227.81 165.252C1227.81 164.612 1227.66 164.111 1227.35 163.748C1227.05 163.386 1226.57 163.204 1225.92 163.204C1225.29 163.204 1224.8 163.407 1224.45 163.812C1224.11 164.207 1223.93 164.74 1223.91 165.412H1222.15C1222.18 164.196 1222.54 163.268 1223.23 162.628C1223.94 161.978 1224.83 161.652 1225.91 161.652C1227.07 161.652 1227.98 161.972 1228.63 162.612C1229.29 163.252 1229.62 164.106 1229.62 165.172C1229.62 165.94 1229.42 166.682 1229.03 167.396C1228.64 168.1 1228.18 168.735 1227.63 169.3C1227.1 169.855 1226.42 170.5 1225.59 171.236L1224.87 171.876H1229.94V173.396H1222.16V172.068L1223.31 171.076ZM1231.3 163.556V161.892H1234.63V173.556H1232.79V163.556H1231.3ZM1238.14 171.076C1239.17 170.191 1239.97 169.466 1240.56 168.9C1241.16 168.324 1241.65 167.727 1242.05 167.108C1242.44 166.49 1242.64 165.871 1242.64 165.252C1242.64 164.612 1242.48 164.111 1242.17 163.748C1241.88 163.386 1241.4 163.204 1240.75 163.204C1240.12 163.204 1239.63 163.407 1239.28 163.812C1238.94 164.207 1238.76 164.74 1238.73 165.412H1236.97C1237.01 164.196 1237.37 163.268 1238.06 162.628C1238.77 161.978 1239.66 161.652 1240.73 161.652C1241.9 161.652 1242.8 161.972 1243.45 162.612C1244.12 163.252 1244.45 164.106 1244.45 165.172C1244.45 165.94 1244.25 166.682 1243.85 167.396C1243.47 168.1 1243.01 168.735 1242.46 169.3C1241.93 169.855 1241.25 170.5 1240.41 171.236L1239.69 171.876H1244.77V173.396H1236.99V172.068L1238.14 171.076ZM1253.15 162.436V163.924H1248.43V167.204H1252.11V168.692H1248.43V173.556H1246.61V162.436H1253.15Z" fill="#01212F"/>
<path d="M1208.2 191.969C1208.8 192.076 1209.3 192.391 1209.72 192.913C1210.14 193.436 1210.34 194.028 1210.34 194.689C1210.34 195.255 1210.2 195.767 1209.9 196.225C1209.61 196.673 1209.19 197.031 1208.63 197.297C1208.08 197.553 1207.43 197.681 1206.7 197.681H1202.25V186.561H1206.49C1207.25 186.561 1207.9 186.689 1208.44 186.945C1208.98 187.201 1209.4 187.548 1209.67 187.985C1209.95 188.412 1210.09 188.892 1210.09 189.425C1210.09 190.065 1209.92 190.599 1209.58 191.025C1209.24 191.452 1208.78 191.767 1208.2 191.969ZM1204.07 191.233H1206.33C1206.93 191.233 1207.39 191.1 1207.72 190.833C1208.06 190.556 1208.23 190.161 1208.23 189.649C1208.23 189.148 1208.06 188.759 1207.72 188.481C1207.39 188.193 1206.93 188.049 1206.33 188.049H1204.07V191.233ZM1206.54 196.193C1207.16 196.193 1207.64 196.044 1207.99 195.745C1208.34 195.447 1208.52 195.031 1208.52 194.497C1208.52 193.953 1208.33 193.521 1207.96 193.201C1207.59 192.881 1207.09 192.721 1206.47 192.721H1204.07V196.193H1206.54ZM1214.15 185.841V197.681H1212.33V185.841H1214.15ZM1215.94 193.233C1215.94 192.348 1216.12 191.564 1216.48 190.881C1216.86 190.199 1217.36 189.671 1217.99 189.297C1218.63 188.913 1219.33 188.721 1220.1 188.721C1220.79 188.721 1221.39 188.86 1221.91 189.137C1222.43 189.404 1222.84 189.74 1223.15 190.145V188.865H1224.99V197.681H1223.15V196.369C1222.84 196.785 1222.42 197.132 1221.89 197.409C1221.36 197.687 1220.75 197.825 1220.07 197.825C1219.31 197.825 1218.62 197.633 1217.99 197.249C1217.36 196.855 1216.86 196.311 1216.48 195.617C1216.12 194.913 1215.94 194.119 1215.94 193.233ZM1223.15 193.265C1223.15 192.657 1223.03 192.129 1222.77 191.681C1222.52 191.233 1222.2 190.892 1221.79 190.657C1221.39 190.423 1220.95 190.305 1220.48 190.305C1220.01 190.305 1219.58 190.423 1219.17 190.657C1218.76 190.881 1218.43 191.217 1218.18 191.665C1217.93 192.103 1217.81 192.625 1217.81 193.233C1217.81 193.841 1217.93 194.375 1218.18 194.833C1218.43 195.292 1218.76 195.644 1219.17 195.889C1219.59 196.124 1220.02 196.241 1220.48 196.241C1220.95 196.241 1221.39 196.124 1221.79 195.889C1222.2 195.655 1222.52 195.313 1222.77 194.865C1223.03 194.407 1223.15 193.873 1223.15 193.265ZM1226.78 193.265C1226.78 192.359 1226.96 191.564 1227.33 190.881C1227.7 190.188 1228.21 189.655 1228.86 189.281C1229.51 188.908 1230.26 188.721 1231.1 188.721C1232.17 188.721 1233.05 188.977 1233.74 189.489C1234.45 189.991 1234.92 190.711 1235.17 191.649H1233.2C1233.04 191.212 1232.78 190.871 1232.43 190.625C1232.08 190.38 1231.63 190.257 1231.1 190.257C1230.35 190.257 1229.76 190.524 1229.31 191.057C1228.87 191.58 1228.65 192.316 1228.65 193.265C1228.65 194.215 1228.87 194.956 1229.31 195.489C1229.76 196.023 1230.35 196.289 1231.1 196.289C1232.16 196.289 1232.86 195.825 1233.2 194.897H1235.17C1234.91 195.793 1234.43 196.508 1233.73 197.041C1233.02 197.564 1232.15 197.825 1231.1 197.825C1230.26 197.825 1229.51 197.639 1228.86 197.265C1228.21 196.881 1227.7 196.348 1227.33 195.665C1226.96 194.972 1226.78 194.172 1226.78 193.265ZM1240.47 193.281L1244.54 197.681H1242.07L1238.81 193.889V197.681H1236.98V185.841H1238.81V192.721L1242.01 188.865H1244.54L1240.47 193.281Z" fill="#01212F" fill-opacity="0.5"/>
<rect x="930.049" y="295.259" width="150" height="150.781" rx="16" fill="white"/>
<ellipse cx="1005.05" cy="345.519" rx="30" ry="30.1561" fill="#EDF2F4"/>
<path d="M980.577 398.43L979.985 401.198H982.097V402.798H979.649L979.009 405.758H977.265L977.905 402.798H974.769L974.129 405.758H972.385L973.025 402.798H970.545V401.198H973.361L973.953 398.43H971.489V396.83H974.289L974.913 393.918H976.657L976.033 396.83H979.169L979.793 393.918H981.537L980.913 396.83H983.041V398.43H980.577ZM978.833 398.43H975.697L975.105 401.198H978.241L978.833 398.43ZM987.026 396.11V399.374H990.866V400.862H987.026V404.27H991.346V405.758H985.202V394.622H991.346V396.11H987.026ZM997.225 394.638C998.409 394.638 999.443 394.867 1000.33 395.326C1001.22 395.774 1001.91 396.425 1002.39 397.278C1002.88 398.121 1003.13 399.107 1003.13 400.238C1003.13 401.369 1002.88 402.35 1002.39 403.182C1001.91 404.014 1001.22 404.654 1000.33 405.102C999.443 405.539 998.409 405.758 997.225 405.758H993.593V394.638H997.225ZM997.225 404.27C998.526 404.27 999.523 403.918 1000.22 403.214C1000.91 402.51 1001.26 401.518 1001.26 400.238C1001.26 398.947 1000.91 397.939 1000.22 397.214C999.523 396.489 998.526 396.126 997.225 396.126H995.417V404.27H997.225ZM1011.48 394.638V396.126H1006.76V399.406H1010.44V400.894H1006.76V405.758H1004.94V394.638H1011.48ZM1013.94 403.278C1014.96 402.393 1015.77 401.667 1016.35 401.102C1016.95 400.526 1017.45 399.929 1017.84 399.31C1018.24 398.691 1018.43 398.073 1018.43 397.454C1018.43 396.814 1018.28 396.313 1017.97 395.95C1017.67 395.587 1017.2 395.406 1016.55 395.406C1015.92 395.406 1015.43 395.609 1015.07 396.014C1014.73 396.409 1014.55 396.942 1014.53 397.614H1012.77C1012.8 396.398 1013.17 395.47 1013.86 394.83C1014.56 394.179 1015.45 393.854 1016.53 393.854C1017.69 393.854 1018.6 394.174 1019.25 394.814C1019.91 395.454 1020.24 396.307 1020.24 397.374C1020.24 398.142 1020.05 398.883 1019.65 399.598C1019.27 400.302 1018.8 400.937 1018.26 401.502C1017.73 402.057 1017.04 402.702 1016.21 403.438L1015.49 404.078H1020.56V405.598H1012.79V404.27L1013.94 403.278ZM1028.95 394.638V396.126H1024.23V399.406H1027.91V400.894H1024.23V405.758H1022.41V394.638H1028.95ZM1030.18 403.326V401.95L1035.55 394.238H1037.76V401.742H1039.25V403.326H1037.76V405.758H1035.97V403.326H1030.18ZM1036.05 396.094L1032.27 401.742H1036.05V396.094Z" fill="#01212F"/>
<path d="M995.297 421.963C995.009 421.408 994.609 420.992 994.097 420.715C993.585 420.427 992.993 420.283 992.321 420.283C991.585 420.283 990.929 420.448 990.353 420.779C989.777 421.11 989.323 421.579 988.993 422.187C988.673 422.795 988.513 423.499 988.513 424.299C988.513 425.099 988.673 425.808 988.993 426.427C989.323 427.035 989.777 427.504 990.353 427.835C990.929 428.166 991.585 428.331 992.321 428.331C993.313 428.331 994.118 428.054 994.737 427.499C995.355 426.944 995.734 426.192 995.873 425.243H991.697V423.787H997.825V425.211C997.707 426.075 997.398 426.87 996.897 427.595C996.406 428.32 995.761 428.902 994.961 429.339C994.171 429.766 993.291 429.979 992.321 429.979C991.275 429.979 990.321 429.739 989.457 429.259C988.593 428.768 987.905 428.091 987.393 427.227C986.891 426.363 986.641 425.387 986.641 424.299C986.641 423.211 986.891 422.235 987.393 421.371C987.905 420.507 988.593 419.835 989.457 419.355C990.331 418.864 991.286 418.619 992.321 418.619C993.505 418.619 994.555 418.912 995.473 419.499C996.401 420.075 997.073 420.896 997.489 421.963H995.297ZM1001.45 422.347C1001.71 421.899 1002.07 421.552 1002.5 421.307C1002.95 421.051 1003.48 420.923 1004.09 420.923V422.811H1003.62C1002.91 422.811 1002.37 422.992 1001.99 423.355C1001.63 423.718 1001.45 424.347 1001.45 425.243V429.883H999.624V421.067H1001.45V422.347ZM1013.84 425.259C1013.84 425.59 1013.82 425.888 1013.78 426.155H1007.04C1007.1 426.859 1007.36 427.424 1007.83 427.851C1008.3 428.278 1008.87 428.491 1009.56 428.491C1010.54 428.491 1011.23 428.08 1011.64 427.259H1013.6C1013.34 428.07 1012.85 428.736 1012.15 429.259C1011.46 429.771 1010.59 430.027 1009.56 430.027C1008.71 430.027 1007.96 429.84 1007.28 429.467C1006.62 429.083 1006.1 428.55 1005.72 427.867C1005.34 427.174 1005.16 426.374 1005.16 425.467C1005.16 424.56 1005.34 423.766 1005.7 423.083C1006.07 422.39 1006.59 421.856 1007.25 421.483C1007.92 421.11 1008.69 420.923 1009.56 420.923C1010.39 420.923 1011.13 421.104 1011.78 421.467C1012.43 421.83 1012.94 422.342 1013.3 423.003C1013.66 423.654 1013.84 424.406 1013.84 425.259ZM1011.94 424.683C1011.93 424.011 1011.69 423.472 1011.22 423.067C1010.75 422.662 1010.17 422.459 1009.48 422.459C1008.85 422.459 1008.31 422.662 1007.86 423.067C1007.41 423.462 1007.15 424 1007.06 424.683H1011.94ZM1023.58 421.067L1018.17 434.027H1016.28L1018.07 429.739L1014.6 421.067H1016.63L1019.11 427.787L1021.69 421.067H1023.58Z" fill="#01212F" fill-opacity="0.5"/>
<rect x="1223.05" y="384.93" width="150" height="150.781" rx="16" fill="white"/>
<ellipse cx="1298.05" cy="435.19" rx="30" ry="30.1561" fill="#FCFCFC"/>
<path d="M1298.05 405.534C1314.34 405.534 1327.55 418.809 1327.55 435.19C1327.55 451.571 1314.34 464.847 1298.05 464.847C1281.76 464.847 1268.55 451.571 1268.55 435.19C1268.55 418.809 1281.76 405.534 1298.05 405.534Z" stroke="#01212F" stroke-opacity="0.5"/>
<path d="M1270.58 488.102L1269.98 490.87H1272.1V492.47H1269.65L1269.01 495.43H1267.26L1267.9 492.47H1264.77L1264.13 495.43H1262.38L1263.02 492.47H1260.54V490.87H1263.36L1263.95 488.102H1261.49V486.502H1264.29L1264.91 483.59H1266.66L1266.03 486.502H1269.17L1269.79 483.59H1271.54L1270.91 486.502H1273.04V488.102H1270.58ZM1268.83 488.102H1265.7L1265.1 490.87H1268.24L1268.83 488.102ZM1281.75 484.31V485.798H1277.03V489.078H1280.71V490.566H1277.03V495.43H1275.2V484.31H1281.75ZM1282.83 489.846C1282.83 488.758 1283.08 487.782 1283.58 486.918C1284.09 486.054 1284.78 485.382 1285.64 484.902C1286.52 484.411 1287.47 484.166 1288.51 484.166C1289.69 484.166 1290.74 484.459 1291.66 485.046C1292.59 485.622 1293.26 486.443 1293.68 487.51H1291.48C1291.2 486.923 1290.8 486.486 1290.28 486.198C1289.77 485.91 1289.18 485.766 1288.51 485.766C1287.77 485.766 1287.12 485.931 1286.54 486.262C1285.96 486.592 1285.51 487.067 1285.18 487.686C1284.86 488.304 1284.7 489.024 1284.7 489.846C1284.7 490.667 1284.86 491.387 1285.18 492.006C1285.51 492.624 1285.96 493.104 1286.54 493.446C1287.12 493.776 1287.77 493.942 1288.51 493.942C1289.18 493.942 1289.77 493.798 1290.28 493.51C1290.8 493.222 1291.2 492.784 1291.48 492.198H1293.68C1293.26 493.264 1292.59 494.086 1291.66 494.662C1290.74 495.238 1289.69 495.526 1288.51 495.526C1287.46 495.526 1286.51 495.286 1285.64 494.806C1284.78 494.315 1284.09 493.638 1283.58 492.774C1283.08 491.91 1282.83 490.934 1282.83 489.846ZM1302.36 484.31V485.798H1297.64V489.078H1301.32V490.566H1297.64V495.43H1295.81V484.31H1302.36ZM1303.44 489.846C1303.44 488.758 1303.69 487.782 1304.19 486.918C1304.7 486.054 1305.39 485.382 1306.25 484.902C1307.13 484.411 1308.08 484.166 1309.12 484.166C1310.3 484.166 1311.35 484.459 1312.27 485.046C1313.2 485.622 1313.87 486.443 1314.29 487.51H1312.09C1311.81 486.923 1311.41 486.486 1310.89 486.198C1310.38 485.91 1309.79 485.766 1309.12 485.766C1308.38 485.766 1307.73 485.931 1307.15 486.262C1306.57 486.592 1306.12 487.067 1305.79 487.686C1305.47 488.304 1305.31 489.024 1305.31 489.846C1305.31 490.667 1305.47 491.387 1305.79 492.006C1306.12 492.624 1306.57 493.104 1307.15 493.446C1307.73 493.776 1308.38 493.942 1309.12 493.942C1309.79 493.942 1310.38 493.798 1310.89 493.51C1311.41 493.222 1311.81 492.784 1312.09 492.198H1314.29C1313.87 493.264 1313.2 494.086 1312.27 494.662C1311.35 495.238 1310.3 495.526 1309.12 495.526C1308.07 495.526 1307.12 495.286 1306.25 494.806C1305.39 494.315 1304.7 493.638 1304.19 492.774C1303.69 491.91 1303.44 490.934 1303.44 489.846ZM1322.96 484.31V485.798H1318.24V489.078H1321.92V490.566H1318.24V495.43H1316.42V484.31H1322.96ZM1324.05 489.846C1324.05 488.758 1324.3 487.782 1324.8 486.918C1325.31 486.054 1326 485.382 1326.86 484.902C1327.74 484.411 1328.69 484.166 1329.73 484.166C1330.91 484.166 1331.96 484.459 1332.88 485.046C1333.81 485.622 1334.48 486.443 1334.9 487.51H1332.7C1332.42 486.923 1332.02 486.486 1331.5 486.198C1330.99 485.91 1330.4 485.766 1329.73 485.766C1328.99 485.766 1328.34 485.931 1327.76 486.262C1327.18 486.592 1326.73 487.067 1326.4 487.686C1326.08 488.304 1325.92 489.024 1325.92 489.846C1325.92 490.667 1326.08 491.387 1326.4 492.006C1326.73 492.624 1327.18 493.104 1327.76 493.446C1328.34 493.776 1328.99 493.942 1329.73 493.942C1330.4 493.942 1330.99 493.798 1331.5 493.51C1332.02 493.222 1332.42 492.784 1332.7 492.198H1334.9C1334.48 493.264 1333.81 494.086 1332.88 494.662C1331.96 495.238 1330.91 495.526 1329.73 495.526C1328.68 495.526 1327.73 495.286 1326.86 494.806C1326 494.315 1325.31 493.638 1324.8 492.774C1324.3 491.91 1324.05 490.934 1324.05 489.846Z" fill="#01212F"/>
<path d="M1290.23 508.434L1286.93 519.554H1284.87L1282.53 511.138L1280.05 519.554L1278 519.57L1274.85 508.434H1276.79L1279.09 517.49L1281.59 508.434H1283.64L1285.96 517.442L1288.28 508.434H1290.23ZM1296.29 510.594C1296.97 510.594 1297.56 510.738 1298.09 511.026C1298.62 511.314 1299.03 511.741 1299.33 512.306C1299.64 512.872 1299.8 513.554 1299.8 514.354V519.554H1297.99V514.626C1297.99 513.837 1297.79 513.234 1297.4 512.818C1297 512.392 1296.46 512.178 1295.78 512.178C1295.1 512.178 1294.55 512.392 1294.15 512.818C1293.75 513.234 1293.56 513.837 1293.56 514.626V519.554H1291.73V507.714H1293.56V511.762C1293.87 511.389 1294.26 511.101 1294.73 510.898C1295.21 510.696 1295.73 510.594 1296.29 510.594ZM1303.05 509.57C1302.72 509.57 1302.44 509.458 1302.22 509.234C1302 509.01 1301.88 508.733 1301.88 508.402C1301.88 508.072 1302 507.794 1302.22 507.57C1302.44 507.346 1302.72 507.234 1303.05 507.234C1303.37 507.234 1303.64 507.346 1303.87 507.57C1304.09 507.794 1304.2 508.072 1304.2 508.402C1304.2 508.733 1304.09 509.01 1303.87 509.234C1303.64 509.458 1303.37 509.57 1303.05 509.57ZM1303.95 510.738V519.554H1302.12V510.738H1303.95ZM1308.47 512.226V517.106C1308.47 517.437 1308.55 517.677 1308.69 517.826C1308.85 517.965 1309.12 518.034 1309.49 518.034H1310.61V519.554H1309.17C1308.35 519.554 1307.72 519.362 1307.29 518.978C1306.85 518.594 1306.63 517.97 1306.63 517.106V512.226H1305.59V510.738H1306.63V508.546H1308.47V510.738H1310.61V512.226H1308.47ZM1320.38 514.93C1320.38 515.261 1320.35 515.56 1320.31 515.826H1313.58C1313.63 516.53 1313.89 517.096 1314.36 517.522C1314.83 517.949 1315.41 518.162 1316.09 518.162C1317.07 518.162 1317.76 517.752 1318.17 516.93H1320.14C1319.87 517.741 1319.38 518.408 1318.68 518.93C1317.99 519.442 1317.12 519.698 1316.09 519.698C1315.25 519.698 1314.49 519.512 1313.82 519.138C1313.15 518.754 1312.63 518.221 1312.25 517.538C1311.87 516.845 1311.69 516.045 1311.69 515.138C1311.69 514.232 1311.87 513.437 1312.23 512.754C1312.61 512.061 1313.12 511.528 1313.78 511.154C1314.46 510.781 1315.22 510.594 1316.09 510.594C1316.92 510.594 1317.66 510.776 1318.31 511.138C1318.96 511.501 1319.47 512.013 1319.83 512.674C1320.19 513.325 1320.38 514.077 1320.38 514.93ZM1318.47 514.354C1318.46 513.682 1318.22 513.144 1317.75 512.738C1317.28 512.333 1316.7 512.13 1316.01 512.13C1315.38 512.13 1314.84 512.333 1314.39 512.738C1313.94 513.133 1313.68 513.672 1313.59 514.354H1318.47Z" fill="#01212F" fill-opacity="0.5"/>
<rect x="632.049" y="426.836" width="150" height="150.781" rx="16" fill="white"/>
<ellipse cx="707.049" cy="477.096" rx="30" ry="30.1561" fill="#5AC8FA"/>
<path d="M678.577 530.008L677.985 532.776H680.097V534.376H677.649L677.009 537.336H675.265L675.905 534.376H672.769L672.129 537.336H670.385L671.025 534.376H668.545V532.776H671.361L671.953 530.008H669.489V528.408H672.289L672.913 525.496H674.657L674.033 528.408H677.169L677.793 525.496H679.537L678.913 528.408H681.041V530.008H678.577ZM676.833 530.008H673.697L673.105 532.776H676.241L676.833 530.008ZM690.482 527.24H685.122V530.424C685.346 530.125 685.677 529.875 686.114 529.672C686.562 529.469 687.037 529.368 687.538 529.368C688.434 529.368 689.159 529.56 689.714 529.944C690.279 530.328 690.679 530.813 690.914 531.4C691.159 531.987 691.282 532.605 691.282 533.256C691.282 534.045 691.127 534.749 690.818 535.368C690.519 535.976 690.066 536.456 689.458 536.808C688.861 537.16 688.125 537.336 687.25 537.336C686.087 537.336 685.154 537.048 684.45 536.472C683.746 535.896 683.325 535.133 683.186 534.184H684.962C685.079 534.685 685.341 535.085 685.746 535.384C686.151 535.672 686.658 535.816 687.266 535.816C688.023 535.816 688.589 535.587 688.962 535.128C689.346 534.669 689.538 534.061 689.538 533.304C689.538 532.536 689.346 531.949 688.962 531.544C688.578 531.128 688.013 530.92 687.266 530.92C686.743 530.92 686.301 531.053 685.938 531.32C685.586 531.576 685.33 531.928 685.17 532.376H683.442V525.64H690.482V527.24ZM700.125 535.064H695.469L694.669 537.336H692.765L696.749 526.2H698.861L702.845 537.336H700.925L700.125 535.064ZM699.613 533.576L697.805 528.408L695.981 533.576H699.613ZM703.969 531.752C703.969 530.664 704.22 529.688 704.721 528.824C705.233 527.96 705.921 527.288 706.785 526.808C707.66 526.317 708.614 526.072 709.649 526.072C710.833 526.072 711.884 526.365 712.801 526.952C713.729 527.528 714.401 528.349 714.817 529.416H712.625C712.337 528.829 711.937 528.392 711.425 528.104C710.913 527.816 710.321 527.672 709.649 527.672C708.913 527.672 708.257 527.837 707.681 528.168C707.105 528.499 706.652 528.973 706.321 529.592C706.001 530.211 705.841 530.931 705.841 531.752C705.841 532.573 706.001 533.293 706.321 533.912C706.652 534.531 707.105 535.011 707.681 535.352C708.257 535.683 708.913 535.848 709.649 535.848C710.321 535.848 710.913 535.704 711.425 535.416C711.937 535.128 712.337 534.691 712.625 534.104H714.817C714.401 535.171 713.729 535.992 712.801 536.568C711.884 537.144 710.833 537.432 709.649 537.432C708.604 537.432 707.649 537.192 706.785 536.712C705.921 536.221 705.233 535.544 704.721 534.68C704.22 533.816 703.969 532.84 703.969 531.752ZM718.68 531.24C717.571 530.685 717.016 529.811 717.016 528.616C717.016 528.04 717.16 527.512 717.448 527.032C717.736 526.552 718.168 526.173 718.744 525.896C719.32 525.608 720.024 525.464 720.856 525.464C721.677 525.464 722.376 525.608 722.952 525.896C723.539 526.173 723.976 526.552 724.264 527.032C724.552 527.512 724.696 528.04 724.696 528.616C724.696 529.213 724.541 529.741 724.232 530.2C723.933 530.648 723.533 530.995 723.032 531.24C723.64 531.464 724.12 531.832 724.472 532.344C724.824 532.845 725 533.437 725 534.12C725 534.813 724.824 535.427 724.472 535.96C724.12 536.493 723.629 536.904 723 537.192C722.371 537.48 721.656 537.624 720.856 537.624C720.056 537.624 719.341 537.48 718.712 537.192C718.093 536.904 717.608 536.493 717.256 535.96C716.904 535.427 716.728 534.813 716.728 534.12C716.728 533.427 716.904 532.829 717.256 532.328C717.608 531.827 718.083 531.464 718.68 531.24ZM722.952 528.84C722.952 528.243 722.765 527.784 722.392 527.464C722.019 527.144 721.507 526.984 720.856 526.984C720.216 526.984 719.709 527.144 719.336 527.464C718.963 527.784 718.776 528.248 718.776 528.856C718.776 529.389 718.968 529.827 719.352 530.168C719.747 530.499 720.248 530.664 720.856 530.664C721.464 530.664 721.965 530.493 722.36 530.152C722.755 529.811 722.952 529.373 722.952 528.84ZM720.856 532.04C720.152 532.04 719.576 532.216 719.128 532.568C718.691 532.909 718.472 533.405 718.472 534.056C718.472 534.664 718.685 535.16 719.112 535.544C719.539 535.917 720.12 536.104 720.856 536.104C721.581 536.104 722.152 535.912 722.568 535.528C722.995 535.144 723.208 534.653 723.208 534.056C723.208 533.416 722.989 532.92 722.552 532.568C722.125 532.216 721.56 532.04 720.856 532.04ZM733.699 526.216V527.704H728.979V530.984H732.659V532.472H728.979V537.336H727.155V526.216H733.699ZM742.093 535.064H737.437L736.637 537.336H734.733L738.717 526.2H740.829L744.813 537.336H742.893L742.093 535.064ZM741.581 533.576L739.773 528.408L737.949 533.576H741.581Z" fill="#01212F"/>
<path d="M662.833 550.341L658.657 561.461H656.545L652.353 550.341H654.305L657.601 559.589L660.913 550.341H662.833ZM665.286 551.477C664.956 551.477 664.678 551.365 664.454 551.141C664.23 550.917 664.118 550.639 664.118 550.309C664.118 549.978 664.23 549.701 664.454 549.477C664.678 549.253 664.956 549.141 665.286 549.141C665.606 549.141 665.878 549.253 666.102 549.477C666.326 549.701 666.438 549.978 666.438 550.309C666.438 550.639 666.326 550.917 666.102 551.141C665.878 551.365 665.606 551.477 665.286 551.477ZM666.182 552.645V561.461H664.358V552.645H666.182ZM671.985 559.829L674.481 552.645H676.417L673.057 561.461H670.881L667.537 552.645H669.489L671.985 559.829ZM678.724 551.477C678.393 551.477 678.116 551.365 677.892 551.141C677.668 550.917 677.556 550.639 677.556 550.309C677.556 549.978 677.668 549.701 677.892 549.477C678.116 549.253 678.393 549.141 678.724 549.141C679.044 549.141 679.316 549.253 679.54 549.477C679.764 549.701 679.876 549.978 679.876 550.309C679.876 550.639 679.764 550.917 679.54 551.141C679.316 551.365 679.044 551.477 678.724 551.477ZM679.62 552.645V561.461H677.796V552.645H679.62ZM681.406 557.013C681.406 556.127 681.588 555.343 681.95 554.661C682.324 553.978 682.825 553.45 683.454 553.077C684.094 552.693 684.804 552.501 685.582 552.501C686.158 552.501 686.724 552.629 687.278 552.885C687.844 553.13 688.292 553.461 688.622 553.877V549.621H690.462V561.461H688.622V560.133C688.324 560.559 687.908 560.911 687.374 561.189C686.852 561.466 686.249 561.605 685.566 561.605C684.798 561.605 684.094 561.413 683.454 561.029C682.825 560.634 682.324 560.09 681.95 559.397C681.588 558.693 681.406 557.898 681.406 557.013ZM688.622 557.045C688.622 556.437 688.494 555.909 688.238 555.461C687.993 555.013 687.668 554.671 687.262 554.437C686.857 554.202 686.42 554.085 685.95 554.085C685.481 554.085 685.044 554.202 684.638 554.437C684.233 554.661 683.902 554.997 683.646 555.445C683.401 555.882 683.278 556.405 683.278 557.013C683.278 557.621 683.401 558.154 683.646 558.613C683.902 559.071 684.233 559.423 684.638 559.669C685.054 559.903 685.492 560.021 685.95 560.021C686.42 560.021 686.857 559.903 687.262 559.669C687.668 559.434 687.993 559.093 688.238 558.645C688.494 558.186 688.622 557.653 688.622 557.045ZM700.214 561.605C699.521 561.605 698.897 561.482 698.342 561.237C697.798 560.981 697.366 560.639 697.046 560.213C696.726 559.775 696.556 559.29 696.534 558.757H698.422C698.454 559.13 698.63 559.445 698.95 559.701C699.281 559.946 699.692 560.069 700.182 560.069C700.694 560.069 701.089 559.973 701.366 559.781C701.654 559.578 701.798 559.322 701.798 559.013C701.798 558.682 701.638 558.437 701.318 558.277C701.009 558.117 700.513 557.941 699.83 557.749C699.169 557.567 698.63 557.391 698.214 557.221C697.798 557.05 697.436 556.789 697.126 556.437C696.828 556.085 696.678 555.621 696.678 555.045C696.678 554.575 696.817 554.149 697.094 553.765C697.372 553.37 697.766 553.061 698.278 552.837C698.801 552.613 699.398 552.501 700.07 552.501C701.073 552.501 701.878 552.757 702.486 553.269C703.105 553.77 703.436 554.458 703.478 555.333H701.654C701.622 554.938 701.462 554.623 701.174 554.389C700.886 554.154 700.497 554.037 700.006 554.037C699.526 554.037 699.158 554.127 698.902 554.309C698.646 554.49 698.518 554.73 698.518 555.029C698.518 555.263 698.604 555.461 698.774 555.621C698.945 555.781 699.153 555.909 699.398 556.005C699.644 556.09 700.006 556.202 700.486 556.341C701.126 556.511 701.649 556.687 702.054 556.869C702.47 557.039 702.828 557.295 703.126 557.637C703.425 557.978 703.58 558.431 703.59 558.997C703.59 559.498 703.452 559.946 703.174 560.341C702.897 560.735 702.502 561.045 701.99 561.269C701.489 561.493 700.897 561.605 700.214 561.605ZM709.049 557.061L713.113 561.461H710.649L707.385 557.669V561.461H705.561V549.621H707.385V556.501L710.585 552.645H713.113L709.049 557.061ZM722.357 552.645L716.949 565.605H715.061L716.853 561.317L713.381 552.645H715.413L717.893 559.365L720.469 552.645H722.357ZM729.713 553.957C730.023 553.53 730.444 553.183 730.977 552.917C731.521 552.639 732.124 552.501 732.785 552.501C733.564 552.501 734.268 552.687 734.897 553.061C735.527 553.434 736.023 553.967 736.385 554.661C736.748 555.343 736.929 556.127 736.929 557.013C736.929 557.898 736.748 558.693 736.385 559.397C736.023 560.09 735.521 560.634 734.881 561.029C734.252 561.413 733.553 561.605 732.785 561.605C732.103 561.605 731.495 561.471 730.961 561.205C730.439 560.938 730.023 560.597 729.713 560.181V561.461H727.889V549.621H729.713V553.957ZM735.073 557.013C735.073 556.405 734.945 555.882 734.689 555.445C734.444 554.997 734.113 554.661 733.697 554.437C733.292 554.202 732.855 554.085 732.385 554.085C731.927 554.085 731.489 554.202 731.073 554.437C730.668 554.671 730.337 555.013 730.081 555.461C729.836 555.909 729.713 556.437 729.713 557.045C729.713 557.653 729.836 558.186 730.081 558.645C730.337 559.093 730.668 559.434 731.073 559.669C731.489 559.903 731.927 560.021 732.385 560.021C732.855 560.021 733.292 559.903 733.697 559.669C734.113 559.423 734.444 559.071 734.689 558.613C734.945 558.154 735.073 557.621 735.073 557.013ZM740.557 549.621V561.461H738.733V549.621H740.557ZM750.936 552.645V561.461H749.112V560.421C748.824 560.783 748.445 561.071 747.976 561.285C747.517 561.487 747.027 561.589 746.504 561.589C745.811 561.589 745.187 561.445 744.632 561.157C744.088 560.869 743.656 560.442 743.336 559.877C743.027 559.311 742.872 558.629 742.872 557.829V552.645H744.68V557.557C744.68 558.346 744.877 558.954 745.272 559.381C745.667 559.797 746.205 560.005 746.888 560.005C747.571 560.005 748.109 559.797 748.504 559.381C748.909 558.954 749.112 558.346 749.112 557.557V552.645H750.936ZM761.423 556.837C761.423 557.167 761.401 557.466 761.359 557.733H754.623C754.676 558.437 754.937 559.002 755.407 559.429C755.876 559.855 756.452 560.069 757.135 560.069C758.116 560.069 758.809 559.658 759.215 558.837H761.183C760.916 559.647 760.431 560.314 759.727 560.837C759.033 561.349 758.169 561.605 757.135 561.605C756.292 561.605 755.535 561.418 754.863 561.045C754.201 560.661 753.679 560.127 753.295 559.445C752.921 558.751 752.735 557.951 752.735 557.045C752.735 556.138 752.916 555.343 753.279 554.661C753.652 553.967 754.169 553.434 754.831 553.061C755.503 552.687 756.271 552.501 757.135 552.501C757.967 552.501 758.708 552.682 759.359 553.045C760.009 553.407 760.516 553.919 760.879 554.581C761.241 555.231 761.423 555.983 761.423 556.837ZM759.519 556.261C759.508 555.589 759.268 555.05 758.799 554.645C758.329 554.239 757.748 554.037 757.055 554.037C756.425 554.037 755.887 554.239 755.439 554.645C754.991 555.039 754.724 555.578 754.639 556.261H759.519Z" fill="#01212F" fill-opacity="0.5"/>
<ellipse cx="192.953" cy="530.581" rx="31.746" ry="31.5972" fill="white" fill-opacity="0.2"/>
<ellipse cx="191.049" cy="528.685" rx="31.746" ry="31.5972" fill="white" fill-opacity="0.2"/>
<ellipse cx="189.144" cy="526.79" rx="31.746" ry="31.5972" fill="white"/>
<path d="M182.722 510.992C176.626 510.992 171.684 516.044 171.684 522.277V531.304C171.684 537.536 176.626 542.589 182.722 542.589H193.761L188.076 542.589C181.979 542.589 177.037 537.536 177.037 531.304V521.902C177.037 517.181 180.781 513.354 185.399 513.354C187.62 513.354 188.013 513.742 189.457 514.281C187.872 512.625 186.133 510.992 182.722 510.992Z" fill="#5AC8FA"/>
<path d="M188.076 542.589C181.979 542.589 177.037 537.536 177.037 531.304V521.902C177.037 517.181 180.781 513.354 185.399 513.354C187.62 513.354 188.013 513.742 189.457 514.281L188.076 542.589Z" fill="url(#paint0_linear_1195_3894)"/>
<path fill-rule="evenodd" clip-rule="evenodd" d="M196.829 510.991C202.228 510.991 206.604 515.128 206.604 520.231V530.392C206.604 537.128 200.827 542.589 193.701 542.589H187.055V520.231C187.055 515.128 191.431 510.991 196.829 510.991ZM199.684 528.72C201.119 528.72 202.283 527.62 202.283 526.263C202.283 524.906 201.119 523.806 199.684 523.806C198.248 523.806 197.084 524.906 197.084 526.263C197.084 527.62 198.248 528.72 199.684 528.72Z" fill="#5AC8FA"/>
<path d="M166.711 574.001C166.711 576.384 166.053 578.22 164.738 579.509C163.43 580.798 161.587 581.443 159.211 581.443H154.592V567.165H159.533C161.825 567.165 163.592 567.751 164.836 568.923C166.086 570.095 166.711 571.788 166.711 574.001ZM162.707 574.138C162.707 572.829 162.447 571.859 161.926 571.228C161.411 570.596 160.627 570.281 159.572 570.281H158.449V578.279H159.309C160.48 578.279 161.34 577.94 161.887 577.263C162.434 576.579 162.707 575.538 162.707 574.138ZM179.621 575.886C179.621 577.696 179.133 579.109 178.156 580.124C177.186 581.133 175.826 581.638 174.074 581.638C172.395 581.638 171.057 581.12 170.061 580.085C169.071 579.05 168.576 577.65 168.576 575.886C168.576 574.083 169.061 572.683 170.031 571.687C171.008 570.684 172.375 570.183 174.133 570.183C175.22 570.183 176.18 570.414 177.014 570.876C177.847 571.339 178.488 572.003 178.938 572.868C179.393 573.728 179.621 574.734 179.621 575.886ZM172.453 575.886C172.453 576.837 172.58 577.562 172.834 578.064C173.088 578.559 173.514 578.806 174.113 578.806C174.706 578.806 175.122 578.559 175.363 578.064C175.611 577.562 175.734 576.837 175.734 575.886C175.734 574.942 175.611 574.229 175.363 573.747C175.116 573.266 174.693 573.025 174.094 573.025C173.508 573.025 173.088 573.266 172.834 573.747C172.58 574.223 172.453 574.936 172.453 575.886ZM192.375 575.886C192.375 577.696 191.887 579.109 190.91 580.124C189.94 581.133 188.579 581.638 186.828 581.638C185.148 581.638 183.811 581.12 182.814 580.085C181.825 579.05 181.33 577.65 181.33 575.886C181.33 574.083 181.815 572.683 182.785 571.687C183.762 570.684 185.129 570.183 186.887 570.183C187.974 570.183 188.934 570.414 189.768 570.876C190.601 571.339 191.242 572.003 191.691 572.868C192.147 573.728 192.375 574.734 192.375 575.886ZM185.207 575.886C185.207 576.837 185.334 577.562 185.588 578.064C185.842 578.559 186.268 578.806 186.867 578.806C187.46 578.806 187.876 578.559 188.117 578.064C188.365 577.562 188.488 576.837 188.488 575.886C188.488 574.942 188.365 574.229 188.117 573.747C187.87 573.266 187.447 573.025 186.848 573.025C186.262 573.025 185.842 573.266 185.588 573.747C185.334 574.223 185.207 574.936 185.207 575.886ZM201.242 570.183C201.574 570.183 201.89 570.209 202.189 570.261L202.404 570.3L202.062 573.904C201.75 573.826 201.317 573.786 200.764 573.786C199.93 573.786 199.325 573.978 198.947 574.363C198.57 574.74 198.381 575.287 198.381 576.003V581.443H194.562V570.378H197.404L198 572.146H198.186C198.505 571.56 198.947 571.088 199.514 570.73C200.087 570.365 200.663 570.183 201.242 570.183ZM207.795 581.443H203.977V570.378H207.795V581.443ZM203.879 567.624C203.879 567.051 204.038 566.625 204.357 566.345C204.676 566.065 205.191 565.925 205.9 565.925C206.61 565.925 207.128 566.068 207.453 566.355C207.779 566.641 207.941 567.064 207.941 567.624C207.941 568.744 207.261 569.304 205.9 569.304C204.553 569.304 203.879 568.744 203.879 567.624ZM217.443 581.443V575.408C217.443 574.672 217.336 574.118 217.121 573.747C216.913 573.37 216.574 573.181 216.105 573.181C215.461 573.181 214.995 573.438 214.709 573.952C214.423 574.467 214.279 575.349 214.279 576.599V581.443H210.461V570.378H213.342L213.82 571.745H214.045C214.37 571.225 214.82 570.834 215.393 570.574C215.972 570.313 216.636 570.183 217.385 570.183C218.609 570.183 219.559 570.538 220.236 571.247C220.92 571.957 221.262 572.956 221.262 574.245V581.443H217.443Z" fill="#FCFCFC"/>
<defs>
<filter id="filter0_d_1195_3894" x="652.57" y="2.54431" width="325.33" height="347.305" filterUnits="userSpaceOnUse" color-interpolation-filters="sRGB">
<feFlood flood-opacity="0" result="BackgroundImageFix"/>
<feColorMatrix in="SourceAlpha" type="matrix" values="0 0 0 0 0 0 0 0 0 0 0 0 0 0 0 0 0 0 127 0" result="hardAlpha"/>
<feOffset dx="60" dy="40"/>
<feGaussianBlur stdDeviation="15"/>
<feComposite in2="hardAlpha" operator="out"/>
<feColorMatrix type="matrix" values="0 0 0 0 0.00392157 0 0 0 0 0.129412 0 0 0 0 0.184314 0 0 0 0.04 0"/>
<feBlend mode="normal" in2="BackgroundImageFix" result="effect1_dropShadow_1195_3894"/>
<feBlend mode="normal" in="SourceGraphic" in2="effect1_dropShadow_1195_3894" result="shape"/>
</filter>
<linearGradient id="paint0_linear_1195_3894" x1="171.733" y1="527.971" x2="190.141" y2="527.971" gradientUnits="userSpaceOnUse">
<stop stop-color="#5AC8FA"/>
<stop offset="0.094673" stop-color="#6ACDFA" stop-opacity="0.905327"/>
<stop offset="0.178011" stop-color="#77D2FB" stop-opacity="0.821989"/>
<stop offset="0.266558" stop-color="#86D7FB" stop-opacity="0.733442"/>
<stop offset="0.381148" stop-color="#99DDFC" stop-opacity="0.618852"/>
<stop offset="0.480113" stop-color="#A9E2FC" stop-opacity="0.519887"/>
<stop offset="0.568659" stop-color="#B7E7FD" stop-opacity="0.436549"/>
<stop offset="0.651998" stop-color="#C5ECFD" stop-opacity="0.352205"/>
<stop offset="0.750962" stop-color="#D5F1FE" stop-opacity="0.252045"/>
<stop offset="0.860343" stop-color="#E8F7FE" stop-opacity="0.141343"/>
<stop offset="1" stop-color="white" stop-opacity="0"/>
</linearGradient>
</defs>
</svg>
